<svg width="74" height="74" viewBox="0 0 74 74" fill="none" xmlns="http://www.w3.org/2000/svg">
<circle cx="37" cy="37" r="37" fill="white"/>
<g clip-path="url(#clip0)">
<path d="M49.0582 50.2707C46.0195 43.7969 47.1198 34.5083 47.4484 32.2539C48.4337 31.4608 49.0659 30.2459 49.0659 28.8855V22.5746C49.0659 21.8632 48.4892 21.2865 47.7778 21.2865H47.5777V16.2482C47.5777 15.5589 47.0009 15 46.2896 15C45.5782 15 45.0015 15.5589 45.0015 16.2482V21.2865H44.4818C40.4812 21.2865 37.202 24.4343 36.9901 28.3829C36.7783 24.4343 33.499 21.2865 29.4985 21.2865H28.8609V16.2482C28.8609 15.5589 28.2842 15 27.5728 15C26.8615 15 26.2848 15.5589 26.2848 16.2482V21.2865H26.21C25.4986 21.2865 24.9219 21.8632 24.9219 22.5746V28.8859C24.9219 30.0408 25.3716 31.1264 26.1881 31.9429C26.318 32.0728 26.4554 32.1922 26.598 32.3033C26.8878 34.5963 27.7931 43.7119 24.9239 50.3873C24.7463 50.8005 24.7988 51.2763 25.0596 51.6427C25.3203 52.0092 25.7542 52.2127 26.2037 52.1805C26.2386 52.1781 29.7068 51.9503 31.719 53.8223C32.7074 54.7417 33.1878 56.014 33.1878 57.7119C33.1878 58.4233 33.7646 59 34.4759 59H39.7729C40.4843 59 41.061 58.4233 41.061 57.7119C41.061 55.9476 41.551 54.634 42.5589 53.6962C44.5032 51.8872 47.7629 52.0999 47.7918 52.1022C48.2494 52.1376 48.6908 51.9278 48.9516 51.5506C49.2125 51.1734 49.2531 50.6859 49.0582 50.2707ZM39.5554 28.789C39.5554 26.0726 41.7653 23.8627 44.4818 23.8627H46.4897V28.8857C46.4897 29.849 45.7061 30.6327 44.7427 30.6328L39.5554 30.6329V28.789ZM34.4247 28.789V30.6329L29.2451 30.6329C28.4043 30.644 27.4896 29.8997 27.4981 28.8859V23.8627H29.4984C32.2148 23.8627 34.4247 26.0726 34.4247 28.789ZM40.8193 51.796C39.5472 52.9727 38.79 54.5254 38.56 56.4238H35.6857C35.4539 54.5882 34.7081 53.0783 33.46 51.9234C31.7722 50.3615 29.5338 49.8338 27.9509 49.6661C29.9877 43.5653 29.627 36.5005 29.2969 33.2091C33.04 33.2091 40.9475 33.209 44.7215 33.2089C44.3331 36.556 43.8837 43.6476 46.004 49.604C44.4968 49.7845 42.4211 50.3146 40.8193 51.796Z" fill="black"/>
</g>
<defs>
<clipPath id="clip0">
<rect width="44" height="44" fill="white" transform="translate(15 15)"/>
</clipPath>
</defs>
</svg>
