<svg width="74" height="74" viewBox="0 0 74 74" fill="none" xmlns="http://www.w3.org/2000/svg">
<circle cx="37" cy="37" r="37" fill="white"/>
<g clip-path="url(#clip0)">
<path d="M48.2313 41.1596C45.173 41.1596 42.6851 43.6476 42.6851 46.7059C42.6851 49.7641 45.173 52.2521 48.2313 52.2521C51.2901 52.2521 53.7775 49.7641 53.7775 46.7059C53.7775 43.6476 51.2895 41.1596 48.2313 41.1596ZM48.2313 49.479C46.7019 49.479 45.4582 48.2352 45.4582 46.7059C45.4582 45.1765 46.7019 43.9328 48.2313 43.9328C49.7606 43.9328 51.0044 45.1765 51.0044 46.7059C51.0044 48.2353 49.7606 49.479 48.2313 49.479Z" fill="black"/>
<path d="M29.2816 41.1596C26.2233 41.1596 23.7354 43.6476 23.7354 46.7059C23.7354 49.7641 26.2233 52.2521 29.2816 52.2521C32.3398 52.2521 34.8278 49.7641 34.8278 46.7059C34.8278 43.6476 32.3398 41.1596 29.2816 41.1596ZM29.2816 49.479C27.7522 49.479 26.5085 48.2352 26.5085 46.7059C26.5085 45.1765 27.7522 43.9328 29.2816 43.9328C30.8105 43.9328 32.0547 45.1765 32.0547 46.7059C32.0547 48.2353 30.8109 49.479 29.2816 49.479Z" fill="black"/>
<path d="M51.966 25.2846C51.7303 24.8164 51.251 24.521 50.7269 24.521H43.4243V27.2941H49.8718L53.6474 34.8037L56.1256 33.5576L51.966 25.2846Z" fill="black"/>
<path d="M44.0717 45.3656H33.5801V48.1387H44.0717V45.3656Z" fill="black"/>
<path d="M25.1219 45.3656H20.3152C19.5494 45.3656 18.9287 45.9863 18.9287 46.7521C18.9287 47.518 19.5494 48.1386 20.3152 48.1386H25.122C25.8878 48.1386 26.5085 47.5179 26.5085 46.7521C26.5085 45.9862 25.8878 45.3656 25.1219 45.3656Z" fill="black"/>
<path d="M58.7089 36.8891L55.9816 33.3765C55.7196 33.0381 55.3152 32.8403 54.8867 32.8403H44.811V23.1344C44.811 22.3685 44.1903 21.7479 43.4245 21.7479H20.3152C19.5494 21.7479 18.9287 22.3686 18.9287 23.1344C18.9287 23.9002 19.5494 24.5209 20.3152 24.5209H42.0379V34.2268C42.0379 34.9927 42.6586 35.6133 43.4244 35.6133H54.2077L56.227 38.2145V45.3654H52.3908C51.6249 45.3654 51.0043 45.9861 51.0043 46.7519C51.0043 47.5178 51.625 48.1385 52.3908 48.1385H57.6135C58.3793 48.1385 59 47.5177 59.0001 46.7519V37.7395C59.0001 37.4317 58.8975 37.1322 58.7089 36.8891Z" fill="black"/>
<path d="M25.0294 38.3404H18.6512C17.8853 38.3404 17.2646 38.9611 17.2646 39.7269C17.2646 40.4928 17.8854 41.1134 18.6512 41.1134H25.0293C25.7951 41.1134 26.4158 40.4927 26.4158 39.7269C26.4159 38.9611 25.7951 38.3404 25.0294 38.3404Z" fill="black"/>
<path d="M28.2185 32.8865H16.3865C15.6207 32.8865 15 33.5072 15 34.2731C15 35.039 15.6207 35.6596 16.3865 35.6596H28.2185C28.9844 35.6596 29.605 35.0389 29.605 34.2731C29.605 33.5073 28.9844 32.8865 28.2185 32.8865Z" fill="black"/>
<path d="M30.4831 27.4328H18.6512C17.8853 27.4328 17.2646 28.0535 17.2646 28.8193C17.2646 29.5851 17.8854 30.2058 18.6512 30.2058H30.4831C31.249 30.2058 31.8696 29.5851 31.8696 28.8193C31.8697 28.0535 31.249 27.4328 30.4831 27.4328Z" fill="black"/>
</g>
<defs>
<clipPath id="clip0">
<rect width="44" height="44" fill="white" transform="translate(15 15)"/>
</clipPath>
</defs>
</svg>
