<svg width="74" height="74" viewBox="0 0 74 74" fill="none" xmlns="http://www.w3.org/2000/svg">
<circle cx="37" cy="37" r="37" fill="white"/>
<g clip-path="url(#clip0)">
<path d="M43.1672 41.8312L50.0708 37.8457C50.6874 37.4897 50.8986 36.7014 50.5427 36.0848C50.1867 35.4683 49.3984 35.2568 48.7818 35.613L41.8782 39.5986C41.2616 39.9545 41.0504 40.7428 41.4063 41.3594C41.7059 41.8783 42.4582 42.2407 43.1672 41.8312Z" fill="black"/>
<path d="M55.5807 25.5282L37.6444 15.1727C37.2454 14.9424 36.7541 14.9424 36.3553 15.1727L18.4189 25.5282C18.0201 25.7585 17.7744 26.184 17.7744 26.6445V47.3555C17.7744 47.816 18.0201 48.2416 18.4189 48.4718L36.3553 58.8273C36.5547 58.9424 36.7773 59 36.9998 59C37.2224 59 37.445 58.9424 37.6444 58.8273L55.5807 48.4718C55.9795 48.2415 56.2252 47.816 56.2252 47.3555V26.6445C56.2252 26.184 55.9795 25.7584 55.5807 25.5282ZM46.3857 23.1962L31.0274 32.0632L27.627 30.0998L42.9852 21.2328L46.3857 23.1962ZM29.7384 34.2959V38.2114L26.3331 36.2451L26.3363 32.3316L29.7384 34.2959ZM36.9998 17.7775L40.4068 19.7445L25.0486 28.6116L21.6416 26.6445L36.9998 17.7775ZM35.7108 55.4783L20.3525 46.6112V28.8772L23.7594 30.844L23.7545 36.9879C23.7541 37.4487 23.9998 37.8748 24.399 38.1052L30.383 41.5605C31.0542 41.948 31.6596 41.5677 31.6721 41.5605C32.071 41.3303 32.3166 40.9047 32.3166 40.4442V35.7846L35.7108 37.7442V55.4783ZM36.9998 35.5116L33.6054 33.5518L48.9636 24.6848L52.358 26.6445L36.9998 35.5116ZM53.6471 46.6112L38.2889 55.4783V37.7442L53.6471 28.8772V46.6112Z" fill="black"/>
<path d="M48.7818 42.5166L41.8782 46.5021C41.2617 46.8581 41.0503 47.6464 41.4063 48.2629C41.7091 48.7874 42.4629 49.1415 43.1672 48.7348L50.0708 44.7494C50.6873 44.3934 50.8986 43.6051 50.5427 42.9886C50.1867 42.372 49.3985 42.1608 48.7818 42.5166Z" fill="black"/>
</g>
<defs>
<clipPath id="clip0">
<rect width="44" height="44" fill="white" transform="translate(15 15)"/>
</clipPath>
</defs>
</svg>
