<svg width="21" height="21" viewBox="0 0 21 21" fill="none" xmlns="http://www.w3.org/2000/svg">
<path d="M0.5 10.4902C0.5 15.9738 5.0261 20.4999 10.5 20.4999C15.9739 20.4999 20.5 15.9641 20.5 10.4806C20.5 5.00668 15.9739 0.490234 10.5 0.490234C5.0261 0.490234 0.5 5.01635 0.5 10.4902ZM2.4923 10.4902C2.4923 6.05116 6.0609 2.50184 10.5 2.50184C14.9391 2.50184 18.4981 6.05116 18.4981 10.4806C18.4981 14.9196 14.9391 18.4883 10.5 18.498C6.0609 18.5076 2.4923 14.9293 2.4923 10.4902ZM5.7321 8.32389C5.4516 8.60435 5.471 9.17495 5.7611 9.47476L9.4652 13.4109C10.0068 14.0009 10.9642 14.0009 11.5058 13.4109L15.2099 9.47476C15.5193 9.14594 15.529 8.64304 15.2389 8.33356C14.9197 7.99507 14.3781 7.9854 14.0687 8.31422L10.4903 12.1343L6.9023 8.31422C6.5928 7.99507 6.0609 7.9854 5.7321 8.32389Z" fill="black"/>
</svg>
