<svg width="23" height="22" viewBox="0 0 23 22" fill="none" xmlns="http://www.w3.org/2000/svg">
<path fill-rule="evenodd" clip-rule="evenodd" d="M1 0.25C0.585786 0.25 0.25 0.585786 0.25 1C0.25 1.41421 0.585786 1.75 1 1.75H1.78428C2.77204 1.75 3.64429 2.39423 3.93478 3.33831L6.63155 12.1028C7.1157 13.6763 8.56946 14.75 10.2157 14.75H16.7679C18.4239 14.75 19.8839 13.6637 20.3598 12.0776L21.946 6.79021C22.4753 5.02577 21.1541 3.25 19.3119 3.25H5.5C5.49234 3.25 5.48471 3.25011 5.47711 3.25034L5.36845 2.89718C4.8843 1.32371 3.43054 0.25 1.78428 0.25H1ZM8.06522 11.6617L5.93855 4.75H19.3119C20.1493 4.75 20.7498 5.55717 20.5092 6.35918L18.923 11.6465C18.6375 12.5982 17.7615 13.25 16.7679 13.25H10.2157C9.22796 13.25 8.35571 12.6058 8.06522 11.6617ZM10 17.7499C9.30964 17.7499 8.75 18.3096 8.75 18.9999C8.75 19.6903 9.30964 20.2499 10 20.2499C10.6904 20.2499 11.25 19.6903 11.25 18.9999C11.25 18.3096 10.6904 17.7499 10 17.7499ZM7.25 18.9999C7.25 17.4812 8.48122 16.2499 10 16.2499C11.5188 16.2499 12.75 17.4812 12.75 18.9999C12.75 20.5187 11.5188 21.7499 10 21.7499C8.48122 21.7499 7.25 20.5187 7.25 18.9999ZM18 17.7499C17.3096 17.7499 16.75 18.3096 16.75 18.9999C16.75 19.6903 17.3096 20.2499 18 20.2499C18.6904 20.2499 19.25 19.6903 19.25 18.9999C19.25 18.3096 18.6904 17.7499 18 17.7499ZM15.25 18.9999C15.25 17.4812 16.4812 16.2499 18 16.2499C19.5188 16.2499 20.75 17.4812 20.75 18.9999C20.75 20.5187 19.5188 21.7499 18 21.7499C16.4812 21.7499 15.25 20.5187 15.25 18.9999Z" fill="#242424"/>
</svg>
