<svg width="20" height="18" viewBox="0 0 20 18" fill="none" xmlns="http://www.w3.org/2000/svg">
<path fill-rule="evenodd" clip-rule="evenodd" d="M8.4378 2.97522C6.8809 1.38293 4.31891 1.38293 2.76201 2.97522C1.25381 4.5177 1.25381 6.9824 2.76201 8.52488L9.86118 15.7854C9.93729 15.8632 10.0625 15.8632 10.1386 15.7854L17.2378 8.52488C18.746 6.9824 18.746 4.5177 17.2378 2.97522C15.6809 1.38293 13.1189 1.38294 11.562 2.97522L10.5362 4.02439C10.3951 4.1687 10.2017 4.25005 9.9999 4.25005C9.79807 4.25005 9.60476 4.1687 9.46365 4.02439L8.4378 2.97522ZM1.6895 1.92654C3.8348 -0.267507 7.36501 -0.267507 9.51031 1.92654L9.9999 2.42727L10.4895 1.92655C12.6348 -0.267505 16.165 -0.267508 18.3103 1.92654C20.3885 4.05196 20.3885 7.44814 18.3103 9.57355L11.2111 16.8341C10.5466 17.5137 9.45317 17.5137 8.78867 16.8341L1.6895 9.57355C-0.38869 7.44813 -0.388686 4.05196 1.6895 1.92654Z" fill="#242424"/>
</svg>
