<svg width="48" height="48" viewBox="0 0 48 48" fill="none" xmlns="http://www.w3.org/2000/svg">
<rect width="48" height="48" rx="14" fill="#2266FF" fill-opacity="0.1"/>
<g clip-path="url(#clip0_1638_4701)">
<path d="M30.481 9H16.7463C12.2762 9 8.63965 12.6366 8.63965 17.1067V30.8416C8.63965 35.3114 12.2762 38.948 16.7463 38.948H30.4812C34.9511 38.948 38.5877 35.3114 38.5877 30.8416V17.1067C38.5877 12.6366 34.9511 9 30.481 9V9ZM23.6137 32.1627C19.0983 32.1627 15.425 28.4893 15.425 23.974C15.425 19.4587 19.0983 15.7853 23.6137 15.7853C28.129 15.7853 31.8023 19.4587 31.8023 23.974C31.8023 28.4893 28.129 32.1627 23.6137 32.1627V32.1627ZM31.9981 17.7165C30.6638 17.7165 29.5785 16.6312 29.5785 15.2968C29.5785 13.9625 30.6638 12.8769 31.9981 12.8769C33.3325 12.8769 34.418 13.9625 34.418 15.2968C34.418 16.6312 33.3325 17.7165 31.9981 17.7165Z" fill="#2266FF"/>
<path d="M23.6134 17.541C20.0664 17.541 17.1804 20.4268 17.1804 23.974C17.1804 27.521 20.0664 30.407 23.6134 30.407C27.1607 30.407 30.0464 27.521 30.0464 23.974C30.0464 20.4268 27.1607 17.541 23.6134 17.541V17.541Z" fill="#2266FF"/>
<path d="M31.9982 14.6328C31.6322 14.6328 31.3342 14.9308 31.3342 15.2968C31.3342 15.6628 31.6322 15.9608 31.9982 15.9608C32.3645 15.9608 32.6624 15.6631 32.6624 15.2968C32.6624 14.9305 32.3645 14.6328 31.9982 14.6328Z" fill="#2266FF"/>
</g>
<defs>
<clipPath id="clip0_1638_4701">
<rect width="29.9481" height="29.9481" fill="white" transform="translate(8.63965 9)"/>
</clipPath>
</defs>
</svg>
