<svg width="144" height="48" viewBox="0 0 144 48" fill="none" xmlns="http://www.w3.org/2000/svg">
<rect width="144" height="48" rx="14" fill="#2266FF"/>
<path d="M30.3888 12.0894C30.2495 13.9233 29.6924 15.2988 28.7639 16.1241C27.1853 15.0695 25.4211 14.5652 23.564 14.5652C21.7534 14.5194 20.0355 15.0237 18.457 16.0324C17.3428 15.1613 16.3214 13.8316 16.4142 12.0894C13.7679 14.932 13.7679 17.3162 15.3928 19.2418C14.4643 20.8924 14 22.5888 14 24.3311C14 26.9445 14.9286 29.2828 16.8321 31.2084C18.6892 33.1341 20.9641 34.0511 23.564 34.0511C26.1639 34.0511 28.3924 33.0882 30.2959 31.2084C32.153 29.2369 33.128 26.9445 33.128 24.3311C33.128 22.4971 32.7102 20.8465 31.828 19.3794C33.4066 17.2703 32.9423 14.8403 30.3888 12.0894Z" fill="#00FF88"/>
<path d="M23.4639 20.938C24.3112 20.938 25.0246 21.2131 25.6489 21.9008C26.2731 22.5427 26.5852 23.3221 26.5852 24.2391C26.5852 25.2019 26.2731 25.9355 25.6489 26.6233C24.98 27.311 24.2666 27.5861 23.3748 27.5861C22.483 27.5861 21.7249 27.2652 21.0561 26.5774C20.4318 25.9355 20.1197 25.1561 20.1197 24.2391C20.1197 23.2763 20.4318 22.5427 21.0561 21.855C21.7249 21.1672 22.3938 20.8921 23.2856 20.8921L23.3748 20.938C23.3748 20.938 23.3748 20.938 23.4194 20.938C23.4194 20.938 23.4194 20.938 23.4639 20.938V20.938ZM23.4639 19.5625C23.4194 19.5625 23.4193 19.5625 23.3748 19.5625C23.3302 19.5625 23.3302 19.5625 23.2856 19.5625C22.0816 19.5625 21.0115 20.021 20.1197 20.938C19.2279 21.855 18.782 22.9553 18.782 24.285C18.782 25.6146 19.2279 26.715 20.1197 27.6319C21.0561 28.5489 22.1708 29.0074 23.3748 29.0074C24.6233 29.0074 25.6934 28.5489 26.5852 27.6319C27.4771 26.715 27.923 25.6146 27.923 24.285C27.923 22.9553 27.4771 21.855 26.5852 20.938C25.6934 20.021 24.6679 19.5625 23.4639 19.5625Z" fill="white"/>
<path d="M42.3903 12.7412H45.085C45.5593 12.7412 45.9871 12.7839 46.3681 12.8695C46.7492 12.955 47.0758 13.095 47.348 13.2894C47.6202 13.4838 47.8301 13.7327 47.9779 14.036C48.1256 14.3393 48.1995 14.7048 48.1995 15.1325C48.1995 15.5913 48.114 15.9763 47.9429 16.2873C47.7718 16.5984 47.5385 16.8511 47.243 17.0456C46.9553 17.2322 46.617 17.3683 46.2281 17.4538C45.8393 17.5394 45.4271 17.5821 44.9916 17.5821H43.8601V21H42.3903V12.7412ZM44.8867 16.3457C45.1277 16.3457 45.3571 16.3301 45.5749 16.299C45.7926 16.2601 45.9871 16.1979 46.1581 16.1124C46.3292 16.019 46.4653 15.8946 46.5664 15.7391C46.6675 15.5835 46.7181 15.3813 46.7181 15.1325C46.7181 14.8914 46.6675 14.697 46.5664 14.5492C46.4653 14.3937 46.3292 14.2732 46.1581 14.1876C45.9948 14.1021 45.8043 14.0476 45.5866 14.0243C45.3766 13.9932 45.1588 13.9777 44.9333 13.9777H43.8601V16.3457H44.8867ZM50.28 16.8472C50.28 16.1862 50.3889 15.5913 50.6066 15.0625C50.8321 14.5259 51.1393 14.071 51.5282 13.6977C51.9248 13.3244 52.3914 13.0367 52.928 12.8345C53.4723 12.6323 54.0634 12.5312 54.701 12.5312C55.3465 12.5312 55.9414 12.6323 56.4858 12.8345C57.0302 13.0367 57.5007 13.3244 57.8973 13.6977C58.2939 14.071 58.6011 14.5259 58.8188 15.0625C59.0443 15.5913 59.1571 16.1862 59.1571 16.8472C59.1571 17.4927 59.0443 18.0837 58.8188 18.6203C58.6011 19.1491 58.2939 19.608 57.8973 19.9968C57.5007 20.3779 57.0302 20.6773 56.4858 20.895C55.9414 21.105 55.3465 21.21 54.701 21.21C54.0634 21.21 53.4723 21.105 52.928 20.895C52.3914 20.6773 51.9248 20.3779 51.5282 19.9968C51.1393 19.608 50.8321 19.1491 50.6066 18.6203C50.3889 18.0837 50.28 17.4927 50.28 16.8472ZM51.8781 16.8472C51.8781 17.2905 51.9442 17.6988 52.0764 18.0721C52.2164 18.4376 52.4108 18.7564 52.6597 19.0286C52.9163 19.3008 53.2157 19.5147 53.5579 19.6702C53.9078 19.8179 54.2928 19.8918 54.7127 19.8918C55.1327 19.8918 55.5176 19.8179 55.8675 19.6702C56.2175 19.5147 56.5169 19.3008 56.7658 19.0286C57.0224 18.7564 57.2168 18.4376 57.349 18.0721C57.489 17.6988 57.559 17.2905 57.559 16.8472C57.559 16.4195 57.489 16.0229 57.349 15.6574C57.2168 15.2919 57.0263 14.9731 56.7774 14.7009C56.5286 14.4287 56.2292 14.2148 55.8792 14.0593C55.5293 13.9038 55.1404 13.826 54.7127 13.826C54.285 13.826 53.8962 13.9038 53.5462 14.0593C53.204 14.2148 52.9085 14.4287 52.6597 14.7009C52.4108 14.9731 52.2164 15.2919 52.0764 15.6574C51.9442 16.0229 51.8781 16.4195 51.8781 16.8472ZM60.9026 12.7412H62.5123L64.1104 18.807H64.1338L65.9535 12.7412H67.47L69.2547 18.807H69.2781L70.9112 12.7412H72.4743L70.0596 21H68.6365L66.7001 14.8059H66.6767L64.7404 21H63.3172L60.9026 12.7412ZM74.6195 12.7412H80.0904V14.0243H76.0893V16.124H79.8805V17.3605H76.0893V19.6935H80.3004V21H74.6195V12.7412ZM82.9058 12.7412H85.7754C86.1642 12.7412 86.5414 12.7839 86.9069 12.8695C87.2724 12.9472 87.5952 13.0794 87.8751 13.2661C88.1628 13.4527 88.3923 13.6977 88.5633 14.001C88.7344 14.3043 88.82 14.6737 88.82 15.1092C88.82 15.708 88.6489 16.1979 88.3067 16.579C87.9723 16.9522 87.5135 17.205 86.9302 17.3372L89.1349 21H87.3619L85.4488 17.5005H84.3756V21H82.9058V12.7412ZM85.5771 16.299C85.7871 16.299 85.997 16.2834 86.207 16.2523C86.417 16.2212 86.6036 16.1629 86.7669 16.0774C86.938 15.9918 87.078 15.8713 87.1869 15.7157C87.2957 15.5524 87.3502 15.3463 87.3502 15.0975C87.3502 14.872 87.2996 14.6892 87.1985 14.5492C87.0974 14.4015 86.9691 14.2848 86.8136 14.1993C86.6581 14.1137 86.4792 14.0554 86.277 14.0243C86.0826 13.9932 85.8921 13.9777 85.7054 13.9777H84.3756V16.299H85.5771ZM91.4085 12.7412H96.8794V14.0243H92.8783V16.124H96.6695V17.3605H92.8783V19.6935H97.0894V21H91.4085V12.7412ZM99.6948 12.7412H102.623C103.159 12.7412 103.7 12.8111 104.244 12.9511C104.789 13.0911 105.278 13.3244 105.714 13.651C106.149 13.9699 106.503 14.3937 106.775 14.9225C107.048 15.4436 107.184 16.0929 107.184 16.8706C107.184 17.5938 107.048 18.2159 106.775 18.737C106.503 19.258 106.149 19.6857 105.714 20.0201C105.278 20.3545 104.789 20.6034 104.244 20.7667C103.7 20.9222 103.159 21 102.623 21H99.6948V12.7412ZM102.389 19.7168C102.77 19.7168 103.152 19.6741 103.533 19.5885C103.914 19.4952 104.256 19.3436 104.559 19.1336C104.87 18.9158 105.123 18.6242 105.317 18.2587C105.512 17.8932 105.609 17.4305 105.609 16.8706C105.609 16.2796 105.512 15.7974 105.317 15.4241C105.123 15.0508 104.87 14.7592 104.559 14.5492C104.256 14.3393 103.914 14.1954 103.533 14.1176C103.152 14.0399 102.77 14.001 102.389 14.001H101.165V19.7168H102.389ZM113.852 12.7412H117.072C117.383 12.7412 117.69 12.78 117.993 12.8578C118.297 12.9278 118.565 13.0483 118.798 13.2194C119.039 13.3827 119.234 13.5966 119.382 13.861C119.529 14.1254 119.603 14.4443 119.603 14.8175C119.603 15.2841 119.471 15.6691 119.207 15.9724C118.942 16.2757 118.596 16.4934 118.168 16.6256V16.6489C118.689 16.7189 119.117 16.9211 119.452 17.2555C119.786 17.5899 119.953 18.0371 119.953 18.597C119.953 19.0481 119.864 19.4291 119.685 19.7402C119.506 20.0435 119.269 20.2884 118.973 20.4751C118.686 20.6617 118.351 20.7978 117.97 20.8833C117.597 20.9611 117.216 21 116.827 21H113.852V12.7412ZM115.322 16.1007H116.629C117.119 16.1007 117.492 16.0035 117.748 15.8091C118.005 15.6146 118.133 15.3386 118.133 14.9808C118.133 14.6076 118.001 14.3432 117.737 14.1876C117.472 14.0321 117.06 13.9543 116.5 13.9543H115.322V16.1007ZM115.322 19.7635H116.64C116.827 19.7635 117.029 19.7518 117.247 19.7285C117.465 19.6974 117.663 19.6391 117.842 19.5535C118.028 19.468 118.18 19.3436 118.297 19.1803C118.421 19.0169 118.483 18.7992 118.483 18.527C118.483 18.0915 118.336 17.7882 118.04 17.6171C117.745 17.4461 117.297 17.3605 116.699 17.3605H115.322V19.7635ZM124.566 17.4188L121.463 12.7412H123.26L125.336 16.2173L127.436 12.7412H129.139L126.036 17.4188V21H124.566V17.4188ZM41.8771 30.8239C41.8771 30.1629 41.9937 29.568 42.227 29.0392C42.4603 28.5026 42.7792 28.0476 43.1836 27.6744C43.5957 27.3011 44.0818 27.0133 44.6417 26.8111C45.2016 26.609 45.8082 26.5079 46.4614 26.5079C47.1147 26.5079 47.7213 26.609 48.2812 26.8111C48.8411 27.0133 49.3271 27.3011 49.7393 27.6744C50.1515 28.0476 50.4742 28.5026 50.7075 29.0392C50.9408 29.568 51.0575 30.1629 51.0575 30.8239C51.0575 31.4849 50.9408 32.0876 50.7075 32.632C50.4742 33.1764 50.1515 33.643 49.7393 34.0318C49.3271 34.4129 48.8411 34.7084 48.2812 34.9183C47.7213 35.1283 47.1147 35.2333 46.4614 35.2333C45.8082 35.2333 45.2016 35.1283 44.6417 34.9183C44.0818 34.7084 43.5957 34.4129 43.1836 34.0318C42.7792 33.643 42.4603 33.1764 42.227 32.632C41.9937 32.0876 41.8771 31.4849 41.8771 30.8239ZM44.8283 30.8239C44.8283 31.0961 44.8672 31.345 44.945 31.5705C45.0305 31.796 45.1433 31.9904 45.2833 32.1537C45.431 32.317 45.606 32.4454 45.8082 32.5387C46.0104 32.6242 46.2281 32.667 46.4614 32.667C46.6947 32.667 46.9086 32.6242 47.103 32.5387C47.3052 32.4454 47.4802 32.317 47.6279 32.1537C47.7757 31.9904 47.8885 31.796 47.9662 31.5705C48.0518 31.345 48.0945 31.0961 48.0945 30.8239C48.0945 30.5595 48.0518 30.3184 47.9662 30.1007C47.8885 29.8752 47.7757 29.6885 47.6279 29.5408C47.4802 29.3852 47.3052 29.2647 47.103 29.1792C46.9086 29.0936 46.6947 29.0508 46.4614 29.0508C46.2281 29.0508 46.0104 29.0936 45.8082 29.1792C45.606 29.2647 45.431 29.3852 45.2833 29.5408C45.1433 29.6885 45.0305 29.8752 44.945 30.1007C44.8672 30.3184 44.8283 30.5595 44.8283 30.8239ZM52.8545 32.6787L55.9457 29.0392H52.9828V26.7412H59.5736V28.7475L56.284 32.632H59.6669V35H52.8545V32.6787ZM66.1978 35V26.7412H69.2774C69.9307 26.7412 70.5528 26.8073 71.1438 26.9395C71.7426 27.0639 72.2675 27.2855 72.7186 27.6044C73.1774 27.9154 73.5429 28.3315 73.8151 28.8525C74.0873 29.3736 74.2234 30.0307 74.2234 30.8239C74.2234 31.5472 74.0912 32.1732 73.8268 32.702C73.5701 33.2308 73.2241 33.6663 72.7886 34.0085C72.3531 34.3429 71.8515 34.5917 71.2838 34.755C70.7161 34.9183 70.1251 35 69.5107 35H66.1978ZM68.8691 29.0975V32.6203H69.3824C70.0356 32.6203 70.5372 32.4804 70.8872 32.2004C71.2371 31.9127 71.4121 31.4461 71.4121 30.8006C71.4121 30.264 71.2371 29.8479 70.8872 29.5524C70.5372 29.2491 70.0706 29.0975 69.4874 29.0975H68.8691ZM78.5706 26.7412H81.5219L84.7414 35H81.7202L81.2886 33.7868H78.6639L78.2557 35H75.3161L78.5706 26.7412ZM80.0054 29.6224L79.3288 31.6638H80.6703L80.0054 29.6224ZM85.9171 30.8239C85.9171 30.1629 86.0338 29.568 86.2671 29.0392C86.5004 28.5026 86.8192 28.0476 87.2236 27.6744C87.6358 27.3011 88.1218 27.0133 88.6817 26.8111C89.2417 26.609 89.8482 26.5079 90.5015 26.5079C91.1547 26.5079 91.7613 26.609 92.3212 26.8111C92.8811 27.0133 93.3672 27.3011 93.7793 27.6744C94.1915 28.0476 94.5142 28.5026 94.7475 29.0392C94.9808 29.568 95.0975 30.1629 95.0975 30.8239C95.0975 31.4849 94.9808 32.0876 94.7475 32.632C94.5142 33.1764 94.1915 33.643 93.7793 34.0318C93.3672 34.4129 92.8811 34.7084 92.3212 34.9183C91.7613 35.1283 91.1547 35.2333 90.5015 35.2333C89.8482 35.2333 89.2417 35.1283 88.6817 34.9183C88.1218 34.7084 87.6358 34.4129 87.2236 34.0318C86.8192 33.643 86.5004 33.1764 86.2671 32.632C86.0338 32.0876 85.9171 31.4849 85.9171 30.8239ZM88.8684 30.8239C88.8684 31.0961 88.9073 31.345 88.985 31.5705C89.0706 31.796 89.1833 31.9904 89.3233 32.1537C89.4711 32.317 89.646 32.4454 89.8482 32.5387C90.0504 32.6242 90.2682 32.667 90.5015 32.667C90.7348 32.667 90.9486 32.6242 91.1431 32.5387C91.3452 32.4454 91.5202 32.317 91.668 32.1537C91.8157 31.9904 91.9285 31.796 92.0063 31.5705C92.0918 31.345 92.1346 31.0961 92.1346 30.8239C92.1346 30.5595 92.0918 30.3184 92.0063 30.1007C91.9285 29.8752 91.8157 29.6885 91.668 29.5408C91.5202 29.3852 91.3452 29.2647 91.1431 29.1792C90.9486 29.0936 90.7348 29.0508 90.5015 29.0508C90.2682 29.0508 90.0504 29.0936 89.8482 29.1792C89.646 29.2647 89.4711 29.3852 89.3233 29.5408C89.1833 29.6885 89.0706 29.8752 88.985 30.1007C88.9073 30.3184 88.8684 30.5595 88.8684 30.8239Z" fill="white"/>
</svg>
