<svg width="48" height="48" viewBox="0 0 48 48" fill="none" xmlns="http://www.w3.org/2000/svg">
<rect width="48" height="48" rx="14" fill="#2266FF" fill-opacity="0.1"/>
<g clip-path="url(#clip0_1638_4692)">
<path d="M23.9778 9H23.9703C15.714 9 9 15.7159 9 23.974C9 27.2496 10.0557 30.2856 11.8507 32.7507L9.98454 38.3135L15.7402 36.4736C18.108 38.0421 20.9324 38.9481 23.9778 38.9481C32.2341 38.9481 38.9481 32.2303 38.9481 23.974C38.9481 15.7177 32.2341 9 23.9778 9ZM32.6908 30.1452C32.3295 31.1653 30.8958 32.0113 29.7521 32.2584C28.9697 32.425 27.9478 32.5579 24.5075 31.1316C20.107 29.3085 17.2732 24.8369 17.0523 24.5468C16.8408 24.2567 15.2741 22.179 15.2741 20.0302C15.2741 17.8815 16.3654 16.8352 16.8052 16.3859C17.1665 16.0172 17.7636 15.8487 18.3363 15.8487C18.5216 15.8487 18.6882 15.8581 18.8379 15.8656C19.2778 15.8843 19.4987 15.9105 19.7888 16.6049C20.15 17.4753 21.0298 19.6241 21.1346 19.8449C21.2413 20.0658 21.348 20.3653 21.1982 20.6554C21.0578 20.9549 20.9343 21.0878 20.7134 21.3423C20.4926 21.5969 20.2829 21.7916 20.0621 22.0648C19.8599 22.3026 19.6316 22.5571 19.8861 22.997C20.1407 23.4275 21.0204 24.8631 22.3157 26.0161C23.9871 27.5042 25.3423 27.9796 25.8271 28.1817C26.1883 28.3315 26.6188 28.2959 26.8827 28.0152C27.2178 27.6539 27.6314 27.0549 28.0526 26.4653C28.3521 26.0423 28.7302 25.9899 29.127 26.1397C29.5313 26.28 31.6707 27.3376 32.1106 27.5566C32.5504 27.7774 32.8405 27.8823 32.9472 28.0676C33.052 28.2529 33.052 29.1232 32.6908 30.1452Z" fill="#2266FF"/>
</g>
<defs>
<clipPath id="clip0_1638_4692">
<rect width="29.9481" height="29.9481" fill="white" transform="translate(9 9)"/>
</clipPath>
</defs>
</svg>
