<svg width="38" height="39" viewBox="0 0 38 39" fill="none" xmlns="http://www.w3.org/2000/svg">
	<g class="rotation" id="28bb81caaa6aa67fcdb8fcfdc041e1c3" >

		<path d="M0 19.8514L0.0677343 18.2602ZM0.0677343 18.2602L0.267527 16.6825ZM0.267527 16.6825L0.596029 15.1251ZM0.596029 15.1251L1.05659 13.6016ZM1.05659 13.6016L1.64245 12.1221ZM1.64245 12.1221L2.35024 10.6968ZM2.35024 10.6968L3.17655 9.33576ZM3.17655 9.33576L4.11123 8.04584ZM4.11123 8.04584L5.15087 6.84396ZM5.15087 6.84396L6.28875 5.73009ZM6.28875 5.73009L7.51466 4.71441ZM7.51466 4.71441L8.82185 3.80707ZM8.82185 3.80707L10.2036 3.01146ZM10.2036 3.01146L11.6428 2.33434ZM11.6428 2.33434L13.1363 1.7791ZM13.1363 1.7791L14.667 1.34912ZM14.667 1.34912L16.2315 1.05119ZM16.2315 1.05119L17.8164 0.885299ZM17.8164 0.885299L19.4081 0.85144ZM19.4081 0.85144L20.9964 0.953015ZM20.9964 0.953015L22.5711 1.18323ZM22.5711 1.18323L24.1221 1.54887ZM24.1221 1.54887L25.6359 2.03979ZM25.6359 2.03979L27.1022 2.65597ZM27.1022 2.65597L28.5144 3.39403ZM28.5144 3.39403L29.8588 4.2472ZM29.8588 4.2472L31.1254 5.20871ZM31.1254 5.20871L32.3073 6.27518ZM32.3073 6.27518L33.3977 7.43305ZM33.3977 7.43305L34.3866 8.68234ZM34.3866 8.68234L35.2671 10.0061ZM35.2671 10.0061L36.0358 11.401ZM36.0358 11.401L36.6827 12.8568ZM36.6827 12.8568L37.2076 14.36ZM37.2076 14.36L37.6004 15.9004ZM37.6004 15.9004L37.8679 17.468ZM37.8679 17.468L38 19.0558ZM38 19.0558V20.6471ZM38 20.6471L37.8679 22.2315ZM37.8679 22.2315L37.6004 23.8024ZM37.6004 23.8024L37.2076 25.3429ZM37.2076 25.3429L36.6827 26.8461ZM36.6827 26.8461L36.0358 28.3019ZM36.0358 28.3019L35.2671 29.6968ZM35.2671 29.6968L34.3866 31.0205ZM34.3866 31.0205L33.3977 32.2698ZM33.3977 32.2698L32.3073 33.4277ZM32.3073 33.4277L31.1254 34.4942ZM31.1254 34.4942L29.8588 35.4557ZM29.8588 35.4557L28.5144 36.3088ZM28.5144 36.3088L27.1022 37.0469ZM27.1022 37.0469L25.6359 37.6631ZM25.6359 37.6631L24.1221 38.154ZM24.1221 38.154L22.5711 38.5196ZM22.5711 38.5196L20.9964 38.7499ZM20.9964 38.7499L19.4081 38.8514ZM19.4081 38.8514L17.8164 38.8176ZM17.8164 38.8176L16.2315 38.6517ZM16.2315 38.6517L14.667 38.3538ZM14.667 38.3538L13.1363 37.9238ZM13.1363 37.9238L11.6428 37.3685ZM11.6428 37.3685L10.2036 36.6914ZM10.2036 36.6914L8.82185 35.8958ZM8.82185 35.8958L7.51466 34.9885ZM7.51466 34.9885L6.28875 33.9728ZM6.28875 33.9728L5.15087 32.8589ZM5.15087 32.8589L4.11123 31.6537ZM4.11123 31.6537L3.17655 30.3671ZM3.17655 30.3671L2.35024 29.0061ZM2.35024 29.0061L1.64245 27.5808ZM1.64245 27.5808L1.05659 26.1013ZM1.05659 26.1013L0.596029 24.5777ZM0.596029 24.5777L0.267527 23.0204ZM0.267527 23.0204L0.0677343 21.4427ZM0.0677343 21.4427L0 19.8514Z" fill="#FFD500"/>
		<path d="M0 19.8514L0.0677343 18.2602L0.267527 16.6825L0.596029 15.1251L1.05659 13.6016L1.64245 12.1221L2.35024 10.6968L3.17655 9.33576L4.11123 8.04584L5.15087 6.84396L6.28875 5.73009L7.51466 4.71441L8.82185 3.80707L10.2036 3.01146L11.6428 2.33434L13.1363 1.7791L14.667 1.34912L16.2315 1.05119L17.8164 0.885299L19.4081 0.85144L20.9964 0.953015L22.5711 1.18323L24.1221 1.54887L25.6359 2.03979L27.1022 2.65597L28.5144 3.39403L29.8588 4.2472L31.1254 5.20871L32.3073 6.27518L33.3977 7.43305L34.3866 8.68234L35.2671 10.0061L36.0358 11.401L36.6827 12.8568L37.2076 14.36L37.6004 15.9004L37.8679 17.468L38 19.0558V20.6471L37.8679 22.2315L37.6004 23.8024L37.2076 25.3429L36.6827 26.8461L36.0358 28.3019L35.2671 29.6968L34.3866 31.0205L33.3977 32.2698L32.3073 33.4277L31.1254 34.4942L29.8588 35.4557L28.5144 36.3088L27.1022 37.0469L25.6359 37.6631L24.1221 38.154L22.5711 38.5196L20.9964 38.7499L19.4081 38.8514L17.8164 38.8176L16.2315 38.6517L14.667 38.3538L13.1363 37.9238L11.6428 37.3685L10.2036 36.6914L8.82185 35.8958L7.51466 34.9885L6.28875 33.9728L5.15087 32.8589L4.11123 31.6537L3.17655 30.3671L2.35024 29.0061L1.64245 27.5808L1.05659 26.1013L0.596029 24.5777L0.267527 23.0204L0.0677343 21.4427L0 19.8514Z" fill="#FFD500"/>
		<path fill-rule="evenodd" clip-rule="evenodd" d="M18.5366 21.4789L18.5 38.8514H18.0366L18.0732 21.9968L12.0488 37.5438L11.6167 37.3764L17.6872 21.7103L6 33.3514L5.67232 33.0238L17.2738 21.4683L1.85368 28.2755L1.66653 27.8516L17.5023 20.8609L0 20.8609L0 20.3975L17.5174 20.3975L1 14.3975L1.16744 13.9654L17.6134 19.9377L5.17232 7.22514L5.5 6.89746L17.5302 19.1991L10.4899 3.25114L10.9139 3.06399L18.0732 19.2817L18.0732 1.39746H18.5366L18.5366 19.5183L25.3467 1.94349L25.7788 2.11093L18.9132 19.8289L32.5 6.35143L32.8277 6.67911L19.354 20.0435L36.5 12.3514L36.6871 12.7754L19.6996 20.3975H38V20.8609H19.9959L36.5 27.3514L36.3326 27.7835L19.4947 21.1637L32 33.8514L31.6723 34.1791L18.955 21.2794L25.9239 37.6643L25.5 37.8514L18.5366 21.4789Z" fill="#FFEB32"/>
		<path fill-rule="evenodd" clip-rule="evenodd" d="M16.4968 2.85146L16.3988 2.36117L15.828 2.47533L15.926 2.96562L15.6499 2.54876L15.1616 2.87223L15.4377 3.28909L15.0208 3.01299L14.6973 3.50135L15.1142 3.77746L14.6239 3.6794L14.5097 4.25024L15 4.3483L14.5095 4.44532L14.6237 5.02246L15.1142 4.92544L14.6973 5.20154L15.0208 5.68993L15.4377 5.41383L15.1616 5.83069L15.65 6.15415L15.926 5.73728L15.828 6.22757L16.3988 6.34175L16.4968 5.85146L16.5939 6.34195L17.1711 6.22778L17.074 5.73728L17.3526 6.15246L17.8346 5.82901L17.556 5.41383L17.9704 5.69366L18.3002 5.20528L17.8859 4.92544L18.3764 5.02246L18.4905 4.44532L18 4.3483L18.4903 4.25024L18.3761 3.6794L17.8859 3.77746L18.3002 3.49762L17.9704 3.00925L17.556 3.28909L17.8347 2.87392L17.3527 2.55045L17.074 2.96562L17.171 2.47512L16.5939 2.36096L16.4968 2.85146ZM16.4974 3.36125L16.1203 3.43667L15.7984 3.64987L15.5852 3.97174L15.5098 4.34883L15.5855 4.73162L15.7984 5.05305L16.1203 5.26624L16.4974 5.34166L16.8787 5.26624L17.1963 5.05306L17.415 4.72933L17.4902 4.34883L17.4153 3.97403L17.1963 3.64985L16.8787 3.43666L16.4974 3.36125Z" fill="#FFEC8A"/>
		<path fill-rule="evenodd" clip-rule="evenodd" d="M5.49684 27.8515L5.39879 27.3612L4.82795 27.4753L4.926 27.9656L4.64989 27.5488L4.16154 27.8722L4.43765 28.2891L4.0208 28.013L3.69733 28.5014L4.11418 28.7775L3.62389 28.6794L3.50973 29.2502L4.00002 29.3483L3.50952 29.4453L3.62368 30.0225L4.11418 29.9255L3.69733 30.2016L4.0208 30.6899L4.43765 30.4138L4.16154 30.8307L4.64989 31.1541L4.926 30.7373L4.82795 31.2276L5.39879 31.3418L5.49684 30.8515L5.59386 31.342L6.17105 31.2278L6.07404 30.7373L6.35266 31.1525L6.83466 30.829L6.55603 30.4138L6.97039 30.6937L7.30021 30.2053L6.88586 29.9255L7.37636 30.0225L7.49052 29.4453L7.00002 29.3483L7.49031 29.2502L7.37615 28.6794L6.88586 28.7775L7.30021 28.4976L6.97039 28.0093L6.55603 28.2891L6.83466 27.8739L6.35266 27.5504L6.07404 27.9656L6.17105 27.4751L5.59386 27.361L5.49684 27.8515ZM5.49738 28.3613L5.12029 28.4367L4.79843 28.6499L4.58522 28.9718L4.50981 29.3488L4.58553 29.7316L4.79843 30.0531L5.12029 30.2663L5.49738 30.3417L5.87866 30.2663L6.19633 30.0531L6.41496 29.7293L6.49023 29.3488L6.41527 28.974L6.19633 28.6499L5.87866 28.4367L5.49738 28.3613Z" fill="#FFEC8A"/>
		<path fill-rule="evenodd" clip-rule="evenodd" d="M13.4968 14.8515L13.3988 14.3612L12.828 14.4753L12.926 14.9656L12.6499 14.5488L12.1615 14.8722L12.4377 15.2891L12.0208 15.013L11.6973 15.5014L12.1142 15.7775L11.6239 15.6794L11.5097 16.2502L12 16.3483L11.5095 16.4453L11.6237 17.0225L12.1142 16.9255L11.6973 17.2016L12.0208 17.6899L12.4377 17.4138L12.1615 17.8307L12.6499 18.1541L12.926 17.7373L12.828 18.2276L13.3988 18.3418L13.4968 17.8515L13.5939 18.342L14.171 18.2278L14.074 17.7373L14.3527 18.1525L14.8347 17.829L14.556 17.4138L14.9704 17.6937L15.3002 17.2053L14.8859 16.9255L15.3764 17.0225L15.4905 16.4453L15 16.3483L15.4903 16.2502L15.3761 15.6794L14.8859 15.7775L15.3002 15.4976L14.9704 15.0093L14.556 15.2891L14.8347 14.8739L14.3527 14.5504L14.074 14.9656L14.171 14.4751L13.5939 14.361L13.4968 14.8515ZM13.4974 15.3613L13.1203 15.4367L12.7984 15.6499L12.5852 15.9718L12.5098 16.3488L12.5855 16.7316L12.7984 17.0531L13.1203 17.2663L13.4974 17.3417L13.8787 17.2663L14.1963 17.0531L14.415 16.7293L14.4902 16.3488L14.4153 15.974L14.1963 15.6499L13.8787 15.4367L13.4974 15.3613Z" fill="#FFEC8A"/>
		<path fill-rule="evenodd" clip-rule="evenodd" d="M33.4968 15.8515L33.3988 15.3612L32.828 15.4753L32.926 15.9656L32.6462 15.5513L32.1578 15.8811L32.4376 16.2954L32.0225 16.0168L31.699 16.4988L32.1142 16.7775L31.6237 16.6804L31.5095 17.2576L32 17.3546L31.5097 17.4527L31.6239 18.0235L32.1142 17.9254L31.6973 18.2015L32.0208 18.6899L32.4376 18.4138L32.1615 18.8307L32.6499 19.1542L32.926 18.7373L32.828 19.2276L33.3988 19.3418L33.4968 18.8515L33.5938 19.342L34.171 19.2278L34.074 18.7373L34.3501 19.1542L34.8385 18.8307L34.5624 18.4138L34.9793 18.6899L35.3027 18.2015L34.8858 17.9254L35.3761 18.0235L35.4903 17.4527L35 17.3546L35.4905 17.2576L35.3763 16.6804L34.8858 16.7775L35.301 16.4989L34.9776 16.0168L34.5624 16.2954L34.8422 15.8811L34.3538 15.5513L34.074 15.9656L34.171 15.4751L33.5938 15.361L33.4968 15.8515ZM33.4974 16.3613L33.1226 16.4362L32.7984 16.6551L32.5852 16.9728L32.5098 17.3541L32.5852 17.7312L32.7984 18.0531L33.1203 18.2663L33.4974 18.3417L33.8802 18.2659L34.2016 18.0531L34.4148 17.7312L34.4902 17.3541L34.4148 16.9728L34.2016 16.6551L33.8779 16.4365L33.4974 16.3613Z" fill="#FFEC8A"/>
		<path fill-rule="evenodd" clip-rule="evenodd" d="M16.4968 33.8515L16.3988 33.3612L15.828 33.4753L15.926 33.9656L15.6499 33.5488L15.1616 33.8722L15.4377 34.2891L15.0208 34.013L14.6973 34.5013L15.1142 34.7775L14.6239 34.6794L14.5097 35.2502L15 35.3483L14.5095 35.4453L14.6237 36.0225L15.1142 35.9255L14.6973 36.2016L15.0208 36.6899L15.4377 36.4138L15.1616 36.8307L15.6499 37.1542L15.926 36.7373L15.828 37.2276L16.3988 37.3418L16.4968 36.8515L16.5939 37.342L17.171 37.2278L17.074 36.7373L17.3526 37.1525L17.8347 36.829L17.5561 36.4138L17.9704 36.6936L18.3002 36.2053L17.8859 35.9255L18.3764 36.0225L18.4905 35.4453L18 35.3483L18.4903 35.2502L18.3761 34.6794L17.8859 34.7775L18.3002 34.4976L17.9704 34.0093L17.5561 34.2891L17.8347 33.8739L17.3526 33.5504L17.074 33.9656L17.171 33.4751L16.5939 33.361L16.4968 33.8515ZM16.4974 34.3613L16.1203 34.4367L15.7984 34.6499L15.5852 34.9717L15.5098 35.3488L15.5855 35.7316L15.7984 36.0531L16.1203 36.2663L16.4974 36.3417L16.8787 36.2663L17.1964 36.0531L17.415 35.7294L17.4902 35.3488L17.4153 34.974L17.1964 34.6499L16.8787 34.4367L16.4974 34.3613Z" fill="#FFEC8A"/>
		<path fill-rule="evenodd" clip-rule="evenodd" d="M31.4968 26.8514L31.399 26.3611L30.8281 26.475L30.926 26.9654L30.6465 26.5507L30.1582 26.8798L30.4376 27.2945L30.0227 27.0154L29.6992 27.4965L30.1141 27.7755L29.6237 27.6783L29.5095 28.2542L30 28.3514L29.5097 28.4497L29.6239 29.0193L30.1141 28.9211L29.6976 29.1976L30.021 29.6849L30.4376 29.4084L30.1582 29.823L30.6465 30.1521L30.926 29.7375L30.8281 30.2278L31.399 30.3418L31.4968 29.8514L31.5936 30.342L32.1708 30.2281L32.074 29.7375L32.3534 30.1522L32.8418 29.8231L32.5623 29.4084L32.9789 29.6849L33.3024 29.1976L32.8858 28.9211L33.3761 29.0193L33.4902 28.4497L33 28.3514L33.4904 28.2542L33.3763 27.6783L32.8858 27.7755L33.3007 27.4965L32.9773 27.0154L32.5623 27.2945L32.8418 26.8798L32.3534 26.5507L32.074 26.9654L32.1708 26.4748L31.5936 26.3609L31.4968 26.8514ZM31.4973 27.3612L31.1222 27.4361L30.798 27.6545L30.5851 27.9712L30.5098 28.3509L30.5851 28.7264L30.7993 29.0492L31.1222 29.2668L31.4973 29.3417L31.8782 29.2665L32.2006 29.0492L32.4149 28.7264L32.4901 28.3509L32.4149 27.9712L32.2019 27.6545L31.8782 27.4364L31.4973 27.3612Z" fill="#FFEC8A"/>
		<path fill-rule="evenodd" clip-rule="evenodd" d="M20.4968 25.8514L20.399 25.3611L19.8281 25.475L19.926 25.9654L19.6465 25.5507L19.1582 25.8798L19.4376 26.2945L19.0227 26.0154L18.6992 26.4965L19.1141 26.7755L18.6237 26.6783L18.5095 27.2542L19 27.3514L18.5097 27.4497L18.6239 28.0193L19.1141 27.9211L18.6976 28.1976L19.021 28.6849L19.4376 28.4084L19.1582 28.823L19.6465 29.1521L19.926 28.7375L19.8281 29.2278L20.399 29.3418L20.4968 28.8514L20.5936 29.342L21.1708 29.2281L21.074 28.7375L21.3534 29.1522L21.8418 28.8231L21.5623 28.4084L21.9789 28.6849L22.3024 28.1976L21.8858 27.9211L22.3761 28.0193L22.4902 27.4497L22 27.3514L22.4904 27.2542L22.3763 26.6783L21.8858 26.7755L22.3007 26.4965L21.9773 26.0154L21.5623 26.2945L21.8418 25.8798L21.3534 25.5507L21.074 25.9654L21.1708 25.4748L20.5936 25.3609L20.4968 25.8514ZM20.4973 26.3612L20.1222 26.4361L19.798 26.6545L19.5851 26.9712L19.5098 27.3509L19.5851 27.7264L19.7993 28.0492L20.1222 28.2668L20.4973 28.3417L20.8782 28.2665L21.2006 28.0492L21.4149 27.7264L21.4901 27.3509L21.4149 26.9712L21.2019 26.6545L20.8782 26.4364L20.4973 26.3612Z" fill="#FFEC8A"/>
		<path fill-rule="evenodd" clip-rule="evenodd" d="M25.4968 8.85144L25.399 8.36111L24.8281 8.47502L24.926 8.96536L24.6465 8.55072L24.1582 8.87983L24.4376 9.29446L24.0227 9.01545L23.6992 9.49647L24.1141 9.77548L23.6237 9.67827L23.5095 10.2542L24 10.3514L23.5097 10.4497L23.6239 11.0193L24.1141 10.9211L23.6976 11.1976L24.021 11.6849L24.4376 11.4084L24.1582 11.823L24.6465 12.1521L24.926 11.7375L24.8281 12.2278L25.399 12.3418L25.4968 11.8514L25.5936 12.342L26.1708 12.2281L26.074 11.7375L26.3534 12.1522L26.8418 11.8231L26.5623 11.4084L26.9789 11.6849L27.3024 11.1976L26.8858 10.9211L27.3761 11.0193L27.4902 10.4497L27 10.3514L27.4904 10.2542L27.3763 9.67827L26.8858 9.77548L27.3007 9.49647L26.9773 9.01545L26.5623 9.29446L26.8418 8.87982L26.3534 8.55071L26.074 8.96536L26.1708 8.47482L25.5936 8.3609L25.4968 8.85144ZM25.4973 9.36119L25.1222 9.43605L24.798 9.65452L24.5851 9.97118L24.5098 10.3509L24.5851 10.7264L24.7993 11.0492L25.1222 11.2668L25.4973 11.3417L25.8782 11.2665L26.2006 11.0492L26.4149 10.7264L26.4901 10.3509L26.4149 9.97118L26.2019 9.65453L25.8782 9.43636L25.4973 9.36119Z" fill="#FFEC8A"/>
		<path fill-rule="evenodd" clip-rule="evenodd" d="M3.12141 15.4367L2.8037 15.6499L2.58477 15.974L2.50981 16.3488L2.58507 16.7293L2.8037 17.0531L3.12141 17.2663L3.50266 17.3417L3.87975 17.2663L4.20161 17.0531L4.41451 16.7316L4.49023 16.3488L4.41481 15.9718L4.20161 15.6499L3.87975 15.4367L3.50266 15.3613L3.12141 15.4367ZM3.50319 14.8515L3.40616 14.361L2.82901 14.4751L2.92604 14.9656L2.64744 14.5504L2.1654 14.8739L2.444 15.2891L2.02964 15.0093L1.69982 15.4976L2.11418 15.7775L1.62389 15.6794L1.50973 16.2502L2.00002 16.3483L1.50952 16.4453L1.62368 17.0225L2.11418 16.9255L1.69983 17.2053L2.02965 17.6937L2.444 17.4138L2.16539 17.829L2.64743 18.1525L2.92604 17.7373L2.82902 18.2278L3.40617 18.342L3.50319 17.8515L3.60124 18.3417L4.17209 18.2276L4.07404 17.7373L4.35015 18.1541L4.8385 17.8307L4.56238 17.4138L4.97923 17.6899L5.30271 17.2016L4.88586 16.9255L5.37636 17.0225L5.49052 16.4453L5.00002 16.3483L5.49031 16.2502L5.37615 15.6794L4.88586 15.7775L5.30271 15.5014L4.97924 15.013L4.56238 15.2891L4.83848 14.8722L4.35014 14.5488L4.07404 14.9656L4.1721 14.4753L3.60126 14.3612L3.50319 14.8515Z" fill="#FFEC8A"/>
	</g>

	<style>
	.rotation {
	  transform-origin: center center;
	  -webkit-animation:spin 4s linear infinite;
	    -moz-animation:spin 4s linear infinite;
	    animation:spin 4s linear infinite;
	}

	@-moz-keyframes spin { 100% { -moz-transform: rotate(360deg); } }
	@-webkit-keyframes spin { 100% { -webkit-transform: rotate(360deg); } }
	@keyframes spin { 100% { -webkit-transform: rotate(360deg); transform:rotate(360deg); } }
	</style>
</svg>
