<svg viewBox="0 0 186 69" fill="none" xmlns="http://www.w3.org/2000/svg" xmlns:anim="http://www.w3.org/2000/anim" anim="" anim:transform-origin="50% 50%" anim:duration="0.5" anim:ease="none">
<g id="d0ab1abd6dd149f5b9f0c5bba5c2ddaf">
<g id="37c28d228af1e5eeaa87e552763574d0">
<path id="76dca63d3cd72e68847a86145d8005d2" d="M21.0405 65.0766C20.8167 65.2449 20.5788 65.3099 20.3269 65.2717C20.0749 65.2335 19.867 65.1009 19.7031 64.8739L14.1109 57.1263C13.9388 56.8879 13.8764 56.6459 13.9235 56.4003C13.9624 56.1433 14.0938 55.9307 14.3176 55.7624C14.6532 55.51 15.0477 55.4585 15.5009 55.6081L22.8322 58.1598L22.6339 50.2438C22.6171 49.7661 22.7765 49.401 23.1122 49.1485C23.3471 48.9718 23.585 48.9068 23.8258 48.9534C24.0696 48.9802 24.2775 49.1128 24.4496 49.3512L30.0418 57.0988C30.2057 57.3259 30.2681 57.5679 30.2292 57.8248C30.2014 58.0734 30.0701 58.286 29.8351 58.4627C29.6001 58.6394 29.3567 58.7087 29.1047 58.6705C28.8639 58.6239 28.6616 58.4871 28.4977 58.26L23.7535 51.6873L24.2882 51.4954L24.4277 58.72C24.4356 59.257 24.294 59.6349 24.0031 59.8537C23.7152 60.0527 23.3308 60.0703 22.8501 59.9065L16.1896 57.6384L16.5276 57.174L21.2472 63.7127C21.4111 63.9397 21.4735 64.1817 21.4346 64.4387C21.4068 64.6872 21.2755 64.8999 21.0405 65.0766Z" fill="black"></path>
<path id="691d3c6cc4087cc7652929320b811a7a" d="M36.825 56.0977C35.7884 56.2648 34.8254 56.1648 33.9359 55.7978C33.0464 55.4307 32.302 54.8488 31.7026 54.0521C31.1032 53.2554 30.7223 52.3101 30.5599 51.2161C30.3954 50.1082 30.4983 49.0849 30.8684 48.1461C31.2503 47.1912 31.8328 46.3954 32.6157 45.7587C33.4104 45.1059 34.3468 44.6927 35.4249 44.5189C36.5168 44.3428 37.5292 44.4419 38.4622 44.8162C39.3931 45.1766 40.1721 45.7529 40.7992 46.5451C41.4401 47.3351 41.8486 48.276 42.0248 49.3678L41.3062 49.6751C41.4624 50.7275 41.3683 51.714 41.0237 52.6345C40.6792 53.555 40.142 54.3222 39.4123 54.9362C38.6964 55.5479 37.834 55.935 36.825 56.0977ZM36.8832 54.3442C37.6296 54.2239 38.2673 53.9438 38.7964 53.5041C39.3235 53.0504 39.7077 52.4922 39.9489 51.8294C40.202 51.1505 40.272 50.4302 40.1589 49.6686C40.0438 48.8931 39.7683 48.2285 39.3323 47.6749C38.9081 47.1052 38.3801 46.694 37.7482 46.4414C37.1142 46.175 36.4241 46.1019 35.6777 46.2222C34.959 46.3381 34.3292 46.6239 33.7883 47.0798C33.2453 47.5218 32.8474 48.0823 32.5943 48.7612C32.353 49.424 32.2899 50.1431 32.405 50.9186C32.5181 51.6803 32.7867 52.3459 33.2109 52.9156C33.6469 53.4693 34.1888 53.8782 34.8366 54.1424C35.4823 54.3928 36.1645 54.4601 36.8832 54.3442ZM41.8952 55.2165C41.6188 55.2611 41.3774 55.2078 41.171 55.0568C40.9646 54.9057 40.8408 54.6917 40.7997 54.4147L40.3064 51.0911L40.4043 49.0335L42.0248 49.3678L42.7278 54.1039C42.7689 54.3809 42.7061 54.625 42.5393 54.8362C42.3863 55.0452 42.1716 55.172 41.8952 55.2165Z" fill="black"></path>
<path id="aa9e335d9b688898d7ed236fe37b15ed" d="M49.7344 55.5676C48.755 55.5334 47.8881 55.3 47.1336 54.8674C46.3796 54.4208 45.7935 53.791 45.3754 52.9779C44.9572 52.1648 44.7694 51.1846 44.8119 50.0374L45.0079 44.7491C45.0178 44.4832 45.117 44.2626 45.3056 44.087C45.5088 43.898 45.7433 43.8082 46.0091 43.8174C46.2889 43.8272 46.5162 43.9332 46.6908 44.1354C46.8799 44.3241 46.9696 44.5514 46.9597 44.8172L46.7637 50.1056C46.7336 50.917 46.8626 51.5939 47.1508 52.1363C47.4389 52.6787 47.8368 53.0918 48.3447 53.3757C48.867 53.6461 49.457 53.7928 50.1146 53.8158C50.7582 53.8383 51.3295 53.7321 51.8285 53.4974C52.3416 53.2632 52.7528 52.9413 53.0621 52.5319C53.386 52.1089 53.5578 51.6316 53.5775 51.1L54.8368 51.144C54.7766 52.0104 54.5167 52.7858 54.0571 53.4702C53.6114 54.155 53.0103 54.6874 52.2537 55.0672C51.4976 55.433 50.6579 55.5998 49.7344 55.5676ZM54.3765 55.6246C54.0967 55.6148 53.8692 55.5158 53.694 55.3276C53.5189 55.1394 53.4365 54.9054 53.4469 54.6256L53.8016 45.0561C53.8119 44.7763 53.9114 44.5487 54.1001 44.3731C54.2887 44.1976 54.5229 44.1147 54.8028 44.1245C55.0826 44.1343 55.3101 44.2333 55.4852 44.4215C55.6604 44.6097 55.7428 44.8438 55.7324 45.1236L55.3777 54.693C55.3673 54.9728 55.2678 55.2005 55.0792 55.376C54.8905 55.5515 54.6563 55.6344 54.3765 55.6246ZM50.5976 42.4858C49.884 42.4608 49.2518 42.3197 48.701 42.0623C48.1501 41.8049 47.7146 41.4605 47.3943 41.0291C47.0881 40.5981 46.9446 40.1238 46.9638 39.6062C46.9736 39.3404 47.0659 39.1195 47.2405 38.9434C47.4151 38.7674 47.6284 38.6838 47.8802 38.6926C48.1321 38.7014 48.3316 38.7994 48.4787 38.9867C48.6399 39.1744 48.7153 39.4082 48.7049 39.688C48.6914 40.0518 48.8689 40.3661 49.2373 40.6312C49.6063 40.8822 50.0706 41.0175 50.6303 41.037C51.2039 41.0571 51.684 40.9547 52.0706 40.7301C52.4577 40.4915 52.658 40.1903 52.6715 39.8265C52.6819 39.5467 52.7744 39.3188 52.949 39.1428C53.1237 38.9668 53.3369 38.8832 53.5887 38.892C53.8406 38.9008 54.0401 38.9988 54.1873 39.186C54.3484 39.3738 54.4241 39.6006 54.4142 39.8664C54.395 40.384 54.2098 40.8468 53.8584 41.2548C53.521 41.6633 53.0681 41.9767 52.4997 42.195C51.9312 42.4133 51.2972 42.5102 50.5976 42.4858Z" fill="black"></path>
<path id="c9a27d669cda8f2da1b80da4a543f3e0" d="M64.0008 56.4325C62.9035 56.2943 61.9544 55.9209 61.1537 55.3121C60.3546 54.6894 59.7571 53.9157 59.3612 52.9911C58.9808 52.0542 58.857 51.0368 58.9896 49.9388C59.1257 48.813 59.4827 47.842 60.0608 47.0258C60.6528 46.2114 61.3948 45.6134 62.287 45.2318C63.1809 44.8364 64.1765 44.7078 65.2739 44.8459C66.0934 44.9491 66.8311 45.2042 67.487 45.6113C68.1429 46.0184 68.7031 46.5758 69.1676 47.2833C69.3246 47.5006 69.3619 47.717 69.2795 47.9324C69.211 48.1495 69.0485 48.3266 68.7923 48.4637C68.6105 48.5678 68.411 48.585 68.1937 48.5153C67.9765 48.4456 67.7963 48.303 67.6532 48.0874C67.0127 47.2025 66.1508 46.6919 65.0673 46.5555C64.3311 46.4628 63.6573 46.5543 63.0458 46.8301C62.4482 47.1076 61.9527 47.5321 61.5593 48.1034C61.1815 48.6626 60.9431 49.3522 60.844 50.1722C60.75 50.9506 60.8257 51.6656 61.0713 52.3174C61.3308 52.9709 61.7304 53.5151 62.2701 53.9499C62.8115 54.3708 63.4573 54.6285 64.2074 54.7229C64.7213 54.7876 65.1872 54.7828 65.6052 54.7084C66.0231 54.634 66.4086 54.478 66.7617 54.2402C66.9763 54.0979 67.1886 54.0329 67.3987 54.0452C67.6226 54.0593 67.8095 54.1463 67.9594 54.3063C68.1459 54.5132 68.2396 54.7296 68.2405 54.9555C68.2414 55.1814 68.1415 55.3663 67.9408 55.5104C66.8282 56.3157 65.5149 56.6231 64.0008 56.4325Z" fill="black"></path>
<path id="d32ebf148da7ec2034c948e3d1bfd509" d="M86.2466 61.4983C85.9709 61.4496 85.7584 61.3198 85.6092 61.1087C85.46 60.8975 85.4085 60.6539 85.4547 60.3778L86.4493 54.4334C86.6018 53.5221 86.4841 52.7834 86.0962 52.2175C85.7221 51.654 85.1696 51.3078 84.4389 51.179C83.6668 51.0428 82.9876 51.2002 82.4011 51.6512C81.8308 52.0909 81.4751 52.7318 81.3342 53.5741L79.7211 53.2897C79.8873 52.3808 80.2213 51.6151 80.7228 50.9928C81.2244 50.3705 81.8522 49.9268 82.6063 49.6617C83.3603 49.3966 84.1716 49.3407 85.0402 49.4938C85.8399 49.6348 86.513 49.9383 87.0596 50.4043C87.6199 50.8727 88.0147 51.4825 88.2439 52.2337C88.4754 52.9711 88.5114 53.8161 88.352 54.7689L87.3574 60.7132C87.3111 60.9894 87.1834 61.2014 86.9741 61.3493C86.7787 61.4997 86.5361 61.5493 86.2466 61.4983ZM72.1836 59.0186C71.9078 58.9699 71.6953 58.8401 71.5461 58.629C71.3969 58.4179 71.3454 58.1742 71.3916 57.8981L72.9685 48.4741C73.017 48.1841 73.1447 47.9721 73.3517 47.838C73.561 47.6901 73.8035 47.6404 74.0792 47.6891C74.3687 47.7401 74.5812 47.87 74.7166 48.0786C74.8681 48.2759 74.9196 48.5196 74.8711 48.8096L73.2943 58.2335C73.2481 58.5097 73.1204 58.7217 72.9111 58.8696C72.7156 59.02 72.4731 59.0696 72.1836 59.0186ZM79.2358 60.2621C78.96 60.2134 78.7475 60.0836 78.5983 59.8725C78.4491 59.6613 78.3976 59.4177 78.4439 59.1416L79.4385 53.1972C79.591 52.2859 79.4732 51.5472 79.0853 50.9813C78.7112 50.4178 78.1588 50.0716 77.4281 49.9428C76.656 49.8066 75.971 49.9559 75.373 50.3907C74.7889 50.8279 74.4287 51.4538 74.2924 52.2685L73.0515 52.0497C73.2132 51.1684 73.5298 50.4211 74.0015 49.8077C74.4893 49.1829 75.0826 48.7331 75.7815 48.4583C76.4804 48.1835 77.2297 48.1166 78.0294 48.2576C78.8291 48.3986 79.5022 48.7021 80.0487 49.1681C80.6091 49.6365 81.0039 50.2463 81.233 50.9975C81.4645 51.7349 81.5005 52.5799 81.3411 53.5327L80.3465 59.477C80.3003 59.7532 80.1726 59.9652 79.9633 60.1131C79.7678 60.2635 79.5253 60.3131 79.2358 60.2621Z" fill="black"></path>
<path id="7d166768a124bb5c2c377319a66e5b0c" d="M96.778 63.8552C95.6252 63.7089 94.6325 63.336 93.7997 62.7364C92.9825 62.1247 92.3735 61.356 91.973 60.4302C91.574 59.4906 91.4395 58.4575 91.5694 57.331C91.7008 56.1905 92.0524 55.2191 92.624 54.4167C93.1973 53.6005 93.9286 53.0018 94.8181 52.6208C95.7091 52.2259 96.7032 52.098 97.8004 52.2373C98.8699 52.373 99.7654 52.7336 100.487 53.319C101.21 53.8906 101.731 54.627 102.05 55.5283C102.371 56.4156 102.467 57.4087 102.341 58.5074C102.314 58.7438 102.207 58.9349 102.021 59.0806C101.851 59.2142 101.633 59.2643 101.37 59.2308L92.8073 58.1442L92.9853 56.6005L101.568 57.6897L100.645 58.1863C100.716 57.4474 100.646 56.7683 100.436 56.1489C100.225 55.5295 99.8822 55.0203 99.4068 54.6213C98.9314 54.2223 98.3326 53.977 97.6104 53.8853C96.8188 53.7849 96.1104 53.8784 95.4854 54.166C94.8743 54.4554 94.3799 54.8936 94.0022 55.4806C93.6244 56.0677 93.3899 56.7576 93.2985 57.5504C93.2071 58.3431 93.2989 59.0745 93.574 59.7444C93.8645 60.4022 94.2945 60.9506 94.8639 61.3898C95.4472 61.8307 96.1486 62.1031 96.968 62.2071C97.4124 62.2635 97.8804 62.2382 98.3718 62.1313C98.8772 62.0261 99.2816 61.8798 99.585 61.6925C99.7971 61.5642 100.014 61.5142 100.236 61.5424C100.46 61.5567 100.647 61.6439 100.798 61.8042C100.984 62.0253 101.07 62.255 101.057 62.4932C101.045 62.7175 100.925 62.8998 100.698 63.0403C100.182 63.3559 99.556 63.5939 98.8188 63.7544C98.0971 63.9027 97.4168 63.9363 96.778 63.8552Z" fill="black"></path>
<path id="fe3dd798092f1730d647740645998a78" d="M106.361 68.2195C106.081 68.2263 105.848 68.141 105.661 67.9636C105.475 67.7861 105.379 67.5574 105.372 67.2775L105.143 57.5571C105.131 56.4651 105.367 55.472 105.85 54.5779C106.347 53.6834 107.024 52.9736 107.88 52.4485C108.735 51.9233 109.709 51.6473 110.801 51.6205C111.907 51.5934 112.899 51.8281 113.779 52.3246C114.673 52.8069 115.382 53.4827 115.907 54.352C116.445 55.2071 116.727 56.1945 116.754 57.3141C116.78 58.4198 116.558 59.4196 116.089 60.3134C115.634 61.2068 115 61.9156 114.186 62.4397C113.372 62.9638 112.447 63.2386 111.411 63.264C110.53 63.2857 109.727 63.1233 109.005 62.7769C108.283 62.4306 107.669 61.9555 107.165 61.3517L107.304 67.23C107.31 67.51 107.225 67.7431 107.047 67.9295C106.883 68.1156 106.655 68.2123 106.361 68.2195ZM111.035 61.5508C111.777 61.5326 112.437 61.3413 113.017 60.977C113.61 60.5983 114.067 60.0969 114.389 59.4728C114.724 58.8344 114.882 58.1303 114.864 57.3605C114.846 56.5767 114.654 55.8812 114.29 55.274C113.939 54.6524 113.459 54.1741 112.849 53.8389C112.252 53.4895 111.583 53.3238 110.841 53.342C110.1 53.3603 109.432 53.5587 108.839 53.9374C108.26 54.3157 107.809 54.8169 107.488 55.441C107.167 56.065 107.015 56.769 107.034 57.5528C107.052 58.3225 107.236 59.0182 107.587 59.6398C107.937 60.2474 108.411 60.7259 109.007 61.0754C109.617 61.4105 110.293 61.569 111.035 61.5508Z" fill="black"></path>
<path id="ee8f71153ff9a1d33b7c7b9aa0bc2fea" d="M131.078 59.8202C130.803 59.8688 130.56 59.8193 130.349 59.6715C130.139 59.5238 130.01 59.3119 129.963 59.036L128.337 49.6203C128.287 49.3306 128.337 49.0872 128.488 48.89C128.636 48.6791 128.848 48.5493 129.124 48.5006C129.414 48.4496 129.65 48.5004 129.832 48.653C130.026 48.7894 130.148 49.0024 130.198 49.2921L131.824 58.7078C131.872 58.9838 131.828 59.226 131.694 59.4345C131.573 59.6406 131.368 59.7692 131.078 59.8202ZM122.434 61.3445C122.158 61.3931 121.915 61.3435 121.705 61.1958C121.508 61.0456 121.386 60.8326 121.339 60.5567L119.713 51.1409C119.663 50.8512 119.707 50.609 119.843 50.4143C119.992 50.2033 120.204 50.0735 120.479 50.0249C120.755 49.9763 120.998 50.0259 121.208 50.1736C121.416 50.3076 121.545 50.5194 121.595 50.8091L123.221 60.2248C123.268 60.5007 123.218 60.7442 123.07 60.9551C122.921 61.1661 122.709 61.2959 122.434 61.3445ZM122.259 56.2576L121.966 54.5607L129.556 53.2224L129.849 54.9193L122.259 56.2576Z" fill="black"></path>
<path id="28b66574600b34febf348c2a3e7629f3" d="M143.961 54.4931C143.708 54.5753 143.467 54.5577 143.24 54.4403C143.012 54.3229 142.856 54.1307 142.772 53.8635L141.897 51.0789L138.941 52.0393L138.865 51.7989C138.173 52.0239 137.51 52.0848 136.876 51.9817C136.251 51.861 135.707 51.6033 135.246 51.2086C134.784 50.8139 134.449 50.2827 134.239 49.6149C134.02 48.9205 133.991 48.2453 134.152 47.5896C134.322 46.9162 134.65 46.324 135.135 45.8131C135.62 45.3023 136.248 44.9213 137.021 44.6704L140.516 43.5348C140.795 43.4439 141.042 43.4594 141.257 43.5811C141.48 43.6851 141.636 43.8773 141.724 44.1578L144.596 53.2931C144.667 53.5645 144.643 53.8151 144.524 54.045C144.415 54.2572 144.227 54.4065 143.961 54.4931ZM136.641 56.6283C136.4 56.5153 136.255 56.3564 136.206 56.1518C136.152 55.9337 136.164 55.7163 136.243 55.4994L137.767 51.3167L140.17 50.558L138.035 56.0209C137.92 56.3529 137.713 56.5598 137.416 56.6416C137.119 56.7234 136.861 56.719 136.641 56.6283ZM138.816 50.3799L141.412 49.5363L140.159 45.5497L137.562 46.3933C136.976 46.5837 136.527 46.9284 136.214 47.4274C135.915 47.9221 135.856 48.4566 136.036 49.0309C136.233 49.6586 136.597 50.0924 137.128 50.3322C137.667 50.5544 138.23 50.5703 138.816 50.3799Z" fill="black"></path>
</g>
<path id="34e535c78c5bd3865252044e5866e662" fill-rule="evenodd" clip-rule="evenodd" d="M165.5 15.5C166.046 15.9225 166.146 16.71 165.715 17.2494C145.673 42.3332 112.525 53.0369 81.541 44.3176L64.1487 39.4233C45.7369 34.2421 25.9854 38.8494 11.777 51.5679C11.2626 52.0283 10.4719 52.004 10.0001 51.5V51.5C9.52825 50.996 9.55414 50.2033 10.0681 49.7423C24.9156 36.4262 45.5719 31.5986 64.8259 37.0168L82.2182 41.9111C112.222 50.3543 144.32 39.9974 163.737 15.7192C164.168 15.1801 164.954 15.0775 165.5 15.5V15.5Z" fill="#00ff88"></path>
<g id="6b420c20d56e59e0040ef9781cfbf51e">
<path id="fbe6f4a4b437940b7ffc7012585088f1" fill-rule="evenodd" clip-rule="evenodd" d="M104.193 13.1281C108.263 10.0486 116.946 5.24348 127.21 10.0091C133.906 13.1177 137.124 18.7438 137.722 24.5326C138.318 30.2996 136.318 36.2476 132.566 40.0564C132.092 40.5379 131.453 40.5694 130.964 40.3041C130.487 40.0458 130.153 39.5115 130.191 38.8787C130.547 32.8949 129.633 28.4268 127.975 25.0988C126.318 21.7754 123.904 19.5577 121.204 18.0946C115.778 15.1551 109.186 15.2571 105.308 15.6766C104.594 15.7537 104.009 15.366 103.757 14.83C103.499 14.2817 103.594 13.5807 104.193 13.1281Z" fill="#00ff88"></path>
<path id="c3e48c2956984a58864136ccff69e21c" d="M13.4644 39.6909C13.4129 39.9254 13.2713 40.1331 13.0396 40.3141C12.8006 40.4832 12.5708 40.548 12.3502 40.5084L5.48358 38.96L6.41672 31.3707C6.46088 31.1243 6.58593 30.903 6.79186 30.7068C6.9978 30.5106 7.2074 30.4263 7.42067 30.4539C7.6707 30.4881 7.86556 30.5919 8.00527 30.7653C8.14497 30.9387 8.19642 31.1545 8.15961 31.4128L7.33148 37.3838L12.8689 38.6464C13.0895 38.6859 13.2586 38.801 13.3762 38.9916C13.4939 39.1822 13.5233 39.4153 13.4644 39.6909ZM7.09328 44.9864C6.87264 45.1588 6.64833 45.2192 6.42037 45.1678C6.1924 45.1163 6.00489 44.9715 5.85785 44.7332L0.828823 36.584C0.674423 36.3338 0.619302 36.0855 0.663459 35.8391C0.700264 35.5808 0.828988 35.3655 1.04963 35.1931C1.28131 35.0121 1.51664 34.943 1.75564 34.9858C1.98729 35.0168 2.18031 35.1573 2.33471 35.4075L4.30882 38.6064L6.37735 36.9903L7.31478 38.5093L5.24625 40.1254L7.36373 43.5567C7.51078 43.7949 7.56039 44.0475 7.51255 44.3145C7.46471 44.5814 7.32496 44.8054 7.09328 44.9864Z" fill="black"></path>
<path id="2019888cc3c2f39398f49d4aa51c62d4" d="M20.7788 35.5968C19.6985 36.0247 18.6708 36.1692 17.6956 36.0303C16.7295 35.8727 15.8863 35.4714 15.166 34.8263C14.4416 34.1678 13.9151 33.296 13.5862 32.2107C13.2533 31.112 13.1823 30.0597 13.3731 29.0537C13.5599 28.0343 13.9727 27.1354 14.6116 26.3571C15.2464 25.5654 16.078 24.9659 17.1062 24.5586C18.1085 24.1616 19.0451 24.0532 19.9161 24.2334C20.783 24.4002 21.5355 24.8149 22.1736 25.4776C22.8077 26.1268 23.2851 26.9807 23.6058 28.0391C23.6748 28.2669 23.6556 28.4921 23.5481 28.7148C23.4496 28.9189 23.2767 29.0699 23.0294 29.1679L15.005 32.3465L14.5544 30.8593L22.5983 27.6729L21.9744 28.5728C21.7462 27.8679 21.4167 27.2856 20.9859 26.826C20.555 26.3663 20.0501 26.0711 19.4711 25.9403C18.8921 25.8095 18.2641 25.8782 17.5873 26.1463C16.8454 26.4402 16.2539 26.8696 15.8128 27.4345C15.3847 27.9943 15.1188 28.6323 15.0151 29.3487C14.9114 30.065 14.9753 30.8051 15.2067 31.5688C15.4381 32.3325 15.8079 32.9514 16.316 33.4254C16.833 33.8809 17.4306 34.1694 18.1089 34.2909C18.8002 34.4072 19.5298 34.3133 20.2977 34.0091C20.7142 33.8441 21.1194 33.5936 21.5132 33.2575C21.9201 32.9162 22.2212 32.5869 22.4166 32.2694C22.5541 32.0498 22.727 31.8988 22.9353 31.8163C23.1395 31.7204 23.34 31.7085 23.5368 31.7806C23.7888 31.8909 23.9559 32.0573 24.0379 32.2799C24.1159 32.4891 24.0816 32.7128 23.9351 32.9509C23.6022 33.488 23.1403 34.0086 22.5496 34.5127C21.9678 34.9983 21.3775 35.3596 20.7788 35.5968Z" fill="black"></path>
<path id="538e72ce0629f4eba9162b4de8eed939" d="M31.0003 37.2814C30.7281 37.3471 30.4842 37.3124 30.2687 37.1773C30.0531 37.0422 29.9155 36.8378 29.8561 36.5642L27.7905 27.0631C27.5721 25.9928 27.6142 24.9675 27.9168 23.9874C28.2329 23.0039 28.7594 22.1641 29.4961 21.4679C30.2327 20.7717 31.1318 20.2955 32.1933 20.0392C33.2685 19.7797 34.2829 19.8011 35.2367 20.1036C36.2012 20.3891 37.022 20.9037 37.6993 21.6473C38.3873 22.3739 38.8502 23.2844 39.0881 24.3789C39.3231 25.4596 39.2961 26.4884 39.0071 27.4653C38.7318 28.4389 38.2462 29.2688 37.5503 29.9552C36.8545 30.6415 36.003 31.1062 34.9959 31.3493C34.1386 31.5563 33.3242 31.5658 32.5528 31.3776C31.7814 31.1895 31.0921 30.852 30.485 30.365L31.7341 36.1108C31.7936 36.3844 31.7542 36.6315 31.616 36.852C31.4913 37.0693 31.2861 37.2124 31.0003 37.2814ZM34.3035 29.7455C35.0248 29.5714 35.634 29.2443 36.1313 28.7643C36.6391 28.2673 36.9909 27.6785 37.1867 26.9977C37.3931 26.2999 37.4145 25.5748 37.2509 24.8224C37.0843 24.0563 36.7655 23.4133 36.2944 22.8935C35.834 22.3568 35.274 21.988 34.6144 21.7873C33.9655 21.5696 33.2804 21.5478 32.5592 21.7219C31.8379 21.8961 31.2233 22.2316 30.7155 22.7286C30.2212 23.2223 29.8762 23.8095 29.6804 24.4903C29.4847 25.1711 29.4701 25.8945 29.6366 26.6606C29.8002 27.413 30.1122 28.0576 30.5727 28.5944C31.0302 29.1175 31.5834 29.4879 32.2323 29.7056C32.8918 29.9063 33.5822 29.9196 34.3035 29.7455Z" fill="black"></path>
<path id="6464fb2e5a52795ce8e3dba691890cf1" d="M48.6944 30.7062C47.6474 30.6259 46.7263 30.3025 45.9309 29.7362C45.1355 29.1698 44.5252 28.4281 44.0999 27.5111C43.6747 26.594 43.493 25.5834 43.5549 24.4791C43.6175 23.3609 43.9244 22.3877 44.4755 21.5596C45.0413 20.7186 45.771 20.0797 46.6647 19.6429C47.5731 19.1931 48.5717 19.01 49.6605 19.0935C50.7633 19.1781 51.7329 19.5122 52.5694 20.0958C53.4066 20.6654 54.0518 21.4097 54.505 22.3289C54.9721 23.2491 55.1818 24.2619 55.1338 25.3673L54.3695 25.4981C54.31 26.5605 54.019 27.4998 53.4966 28.316C52.9742 29.1323 52.2945 29.754 51.4575 30.1811C50.6344 30.6093 49.7134 30.7843 48.6944 30.7062ZM49.1048 29.011C49.8586 29.0688 50.5384 28.9455 51.1442 28.641C51.7509 28.3225 52.2389 27.8686 52.6084 27.2793C52.9926 26.677 53.2063 25.9915 53.2494 25.2227C53.2932 24.4399 53.1579 23.7277 52.8434 23.0859C52.5436 22.4311 52.1104 21.9066 51.5437 21.5122C50.9778 21.1038 50.3179 20.8707 49.5642 20.8128C48.8383 20.7572 48.1651 20.888 47.5445 21.2054C46.9246 21.5088 46.4226 21.9616 46.0384 22.5639C45.6689 23.1532 45.4622 23.8393 45.4184 24.6221C45.3753 25.3909 45.5036 26.1026 45.8034 26.7573C46.1179 27.3991 46.5651 27.9248 47.145 28.3342C47.7256 28.7297 48.3789 28.9553 49.1048 29.011ZM53.8278 31.0368C53.5486 31.0153 53.3234 30.9068 53.1521 30.7112C52.9808 30.5156 52.903 30.278 52.9187 29.9984L53.1067 26.6437L53.6173 24.6613L55.1338 25.3673L54.866 30.1478C54.8503 30.4273 54.7397 30.6505 54.5341 30.8172C54.3424 30.985 54.107 31.0582 53.8278 31.0368Z" fill="black"></path>
<path id="c5ee4423bdfcde80751853f51fea5491" d="M60.009 32.6021C59.736 32.5396 59.527 32.3985 59.3818 32.1788C59.2366 31.9591 59.1889 31.7114 59.2385 31.4359L60.9316 22.0321C60.9837 21.7427 61.1133 21.5357 61.3205 21.4109C61.5302 21.2724 61.7715 21.2344 62.0444 21.2969C62.4539 21.3905 62.7603 21.6615 62.9638 22.1098L66.1612 29.4479L71.6639 24.1007C71.9926 23.7743 72.3617 23.6579 72.7712 23.7516C73.0577 23.8172 73.2668 23.9582 73.3983 24.1748C73.546 24.3808 73.5937 24.6284 73.5416 24.9178L71.8485 34.3216C71.7989 34.5971 71.6693 34.8042 71.4596 34.9427C71.2636 35.0844 71.0223 35.1224 70.7357 35.0568C70.4491 34.9912 70.2332 34.8486 70.0881 34.6288C69.9565 34.4122 69.9156 34.1662 69.9652 33.8906L71.4016 25.9129L71.904 26.2L66.8536 31.0481C66.4764 31.4065 66.1104 31.5451 65.7556 31.4639C65.4169 31.3721 65.1415 31.0867 64.9293 30.6078L61.9887 23.974L62.5507 23.9305L61.1218 31.8669C61.0722 32.1424 60.9425 32.3495 60.7329 32.488C60.5369 32.6296 60.2956 32.6677 60.009 32.6021Z" fill="black"></path>
<path id="ecaeeb47a9159f6dc29ae1ff41633c4f" d="M78.2962 36.2792C78.01 36.2118 77.7938 36.0676 77.6475 35.8465C77.5013 35.6255 77.4519 35.377 77.4995 35.1011L79.1223 25.6849C79.1722 25.3951 79.3 25.1883 79.5057 25.0645C79.7138 24.9268 79.9609 24.8917 80.2471 24.959C80.5196 25.0232 80.729 25.1658 80.8753 25.3868C81.0239 25.5941 81.0732 25.8426 81.0233 26.1323L79.4005 35.5485C79.353 35.8244 79.2252 36.0312 79.0171 36.1689C78.809 36.3066 78.5687 36.3433 78.2962 36.2792ZM80.5654 22.9882C80.2248 22.908 79.9532 22.7149 79.7507 22.4088C79.5482 22.1027 79.4778 21.7703 79.5396 21.4116C79.6015 21.0529 79.7752 20.7852 80.0609 20.6083C80.3627 20.421 80.6839 20.3673 81.0246 20.4475C81.3516 20.5245 81.6164 20.716 81.8189 21.0221C82.0374 21.3176 82.1158 21.6447 82.0539 22.0034C81.9921 22.3621 81.8172 22.6368 81.5291 22.8274C81.241 23.018 80.9198 23.0716 80.5654 22.9882Z" fill="black"></path>
<path id="312f6122bd0f4b72291a6880801ee611" d="M88.9719 35.2285C87.9709 35.1103 87.1564 34.7886 86.5285 34.2636C85.9006 33.7385 85.4543 33.0658 85.1897 32.2455C84.9263 31.4112 84.8403 30.478 84.9315 29.4461L85.0869 27.6889C85.1128 27.3961 85.2235 27.1766 85.4191 27.0306C85.6158 26.8707 85.8533 26.8071 86.1313 26.84C86.4233 26.8744 86.6447 26.9922 86.7955 27.1932C86.9615 27.3818 87.0315 27.6226 87.0056 27.9155L86.8502 29.6726C86.7589 30.7046 86.9074 31.5676 87.2956 32.2616C87.6977 32.9573 88.4131 33.3659 89.442 33.4873C90.2762 33.5858 90.9628 33.526 91.5019 33.3078C92.0549 33.0913 92.3511 32.7599 92.3906 32.3136L93.3917 32.4318C93.321 33.0717 93.0834 33.6143 92.6787 34.0597C92.288 34.5068 91.7738 34.8406 91.1361 35.0613C90.4997 35.2679 89.7783 35.3237 88.9719 35.2285ZM92.7524 39.1835C92.4744 39.1507 92.253 39.033 92.0883 38.8303C91.9236 38.6277 91.8535 38.3869 91.8782 38.108L92.7199 28.5902C92.7458 28.2973 92.8565 28.0779 93.052 27.9319C93.2488 27.7719 93.4862 27.7084 93.7643 27.7412C94.0563 27.7757 94.2777 27.8934 94.4285 28.0944C94.5944 28.2831 94.6645 28.5238 94.6386 28.8167L93.7969 38.3346C93.7722 38.6135 93.6615 38.8329 93.4647 38.9929C93.2818 39.1544 93.0444 39.218 92.7524 39.1835Z" fill="black"></path>
<path id="9bb28f1bca6acc018145e6ee28a3db47" d="M109.238 39.1814C108.959 39.2013 108.723 39.1269 108.531 38.9581C108.339 38.7893 108.235 38.5651 108.22 38.2856L107.678 28.7459C107.662 28.4524 107.739 28.2153 107.911 28.0346C108.083 27.84 108.308 27.7328 108.587 27.7129C108.88 27.692 109.109 27.767 109.273 27.9378C109.45 28.0936 109.547 28.3182 109.564 28.6118L110.105 38.1514C110.121 38.431 110.05 38.6676 109.893 38.8612C109.749 39.0538 109.531 39.1606 109.238 39.1814ZM100.482 39.8044C100.203 39.8243 99.9671 39.7498 99.7753 39.581C99.5974 39.4112 99.5005 39.1866 99.4846 38.907L98.9434 29.3673C98.9267 29.0738 98.9974 28.8372 99.1555 28.6576C99.3267 28.4629 99.552 28.3557 99.8313 28.3358C100.111 28.316 100.346 28.3904 100.538 28.5592C100.729 28.714 100.833 28.9382 100.85 29.2317L101.391 38.7714C101.407 39.0509 101.329 39.288 101.158 39.4826C100.987 39.6773 100.761 39.7845 100.482 39.8044ZM100.888 34.7233L100.79 33.0041L108.478 32.4571L108.575 34.1764L100.888 34.7233Z" fill="black"></path>
<path id="5e2df38fd2de39f422ed5b6dfb682649" d="M120.366 38.4269C119.35 38.6888 118.391 38.676 117.489 38.3884C116.588 38.1009 115.818 37.5845 115.18 36.8393C114.541 36.0941 114.111 35.1798 113.888 34.0965C113.662 32.9994 113.706 31.9628 114.02 30.9869C114.344 29.9937 114.876 29.1419 115.615 28.4317C116.364 27.7042 117.268 27.2042 118.326 26.9318C119.397 26.6558 120.405 26.6633 121.349 26.9541C122.291 27.2312 123.095 27.7388 123.761 28.477C124.44 29.2117 124.897 30.119 125.134 31.1989L124.44 31.5727C124.654 32.6149 124.616 33.6137 124.327 34.5689C124.038 35.5242 123.55 36.3432 122.862 37.0257C122.188 37.7048 121.356 38.1719 120.366 38.4269ZM120.325 36.6615C121.057 36.4729 121.672 36.1338 122.171 35.6442C122.668 35.141 123.016 34.5457 123.218 33.8585C123.43 33.1541 123.458 32.4247 123.303 31.6705C123.146 30.9025 122.835 30.2605 122.372 29.7444C121.92 29.2112 121.374 28.8465 120.734 28.6503C120.092 28.4405 119.404 28.4299 118.672 28.6185C117.967 28.8002 117.36 29.1444 116.85 29.6511C116.338 30.1442 115.975 30.7429 115.763 31.4473C115.562 32.1346 115.54 32.8622 115.698 33.6301C115.853 34.3844 116.156 35.0281 116.609 35.5614C117.071 36.0775 117.631 36.4387 118.287 36.645C118.941 36.8376 119.62 36.8431 120.325 36.6615ZM125.336 37.0814C125.065 37.1513 124.823 37.1198 124.61 36.9869C124.397 36.8541 124.262 36.6505 124.206 36.3762L123.53 33.085L123.51 31.0107L125.134 31.1989L126.097 35.8889C126.154 36.1632 126.105 36.4139 125.952 36.6411C125.812 36.8648 125.607 37.0116 125.336 37.0814Z" fill="black"></path>
</g>
<g class="rotation" id="28bb81caaa6aa67fcdb8fcfdc041e1c3" >
<g id="652492fcf30f8a15259d9f9aa016d0bd">
<path d="M145.074 14.0741L146.206 12.9539ZM146.206 12.9539L147.426 11.9335ZM147.426 11.9335L148.727 11.0156ZM148.727 11.0156L150.101 10.2123ZM150.101 10.2123L151.536 9.52646ZM151.536 9.52646L153.025 8.96332ZM153.025 8.96332L154.556 8.52795ZM154.556 8.52795L156.119 8.21842ZM156.119 8.21842L157.699 8.04481ZM157.699 8.04481L159.29 8.00255ZM159.29 8.00255L160.88 8.09214ZM160.88 8.09214L162.455 8.31642ZM162.455 8.31642L164.009 8.67328ZM164.009 8.67328L165.525 9.15616ZM165.525 9.15616L166.997 9.76522ZM166.997 9.76522L168.411 10.4914ZM168.411 10.4914L169.761 11.3375ZM169.761 11.3375L171.035 12.2941ZM171.035 12.2941L172.225 13.3521ZM172.225 13.3521L173.32 14.5071ZM173.32 14.5071L174.317 15.7471ZM174.317 15.7471L175.205 17.0703ZM175.205 17.0703L175.981 18.4599ZM175.981 18.4599L176.636 19.9091ZM176.636 19.9091L177.169 21.4108ZM177.169 21.4108L177.574 22.9507ZM177.574 22.9507L177.848 24.5171ZM177.848 24.5171L177.989 26.1028ZM177.989 26.1028L178.001 27.6933ZM178.001 27.6933L177.876 29.2816ZM177.876 29.2816L177.62 30.8509ZM177.62 30.8509L177.235 32.3962ZM177.235 32.3962L176.718 33.9032ZM176.718 33.9032L176.08 35.362ZM176.08 35.362L175.32 36.7583ZM175.32 36.7583L174.45 38.0892ZM174.45 38.0892L173.467 39.3428ZM173.467 39.3428L172.384 40.5091ZM172.384 40.5091L171.209 41.5805ZM171.209 41.5805L169.945 42.5499ZM169.945 42.5499L168.609 43.4117ZM168.609 43.4117L167.201 44.1563ZM167.201 44.1563L165.737 44.7832ZM165.737 44.7832L164.224 45.2826ZM164.224 45.2826L162.679 45.6538ZM162.679 45.6538L161.104 45.8967ZM161.104 45.8967L159.517 46.0035ZM159.517 46.0035L157.925 45.9811ZM157.925 45.9811L156.343 45.8241ZM156.343 45.8241L154.777 45.5348ZM154.777 45.5348L153.24 45.115ZM153.24 45.115L151.746 44.569ZM151.746 44.569L150.302 43.899ZM150.302 43.899L148.917 43.1118ZM148.917 43.1118L147.606 42.2092ZM147.606 42.2092L146.373 41.2032ZM146.373 41.2032L145.229 40.0955ZM145.229 40.0955L144.181 38.8957ZM144.181 38.8957L143.237 37.613ZM143.237 37.613L142.407 36.2565ZM142.407 36.2565L141.69 34.8335ZM141.69 34.8335L141.096 33.3581ZM141.096 33.3581L140.625 31.835ZM140.625 31.835L140.284 30.2807ZM140.284 30.2807L140.077 28.7023ZM140.077 28.7023L140 27.1118ZM140 27.1118L140.058 25.5211ZM140.058 25.5211L140.249 23.9423ZM140.249 23.9423L140.569 22.3826ZM140.569 22.3826L141.02 20.8565ZM141.02 20.8565L141.597 19.3735ZM141.597 19.3735L142.296 17.9436ZM142.296 17.9436L143.115 16.5787ZM143.115 16.5787L144.041 15.2864ZM144.041 15.2864L145.074 14.0741Z" fill="#FFD500"></path>
<path d="M145.074 14.0741L146.206 12.9539L147.426 11.9335L148.727 11.0156L150.101 10.2123L151.536 9.52646L153.025 8.96332L154.556 8.52795L156.119 8.21842L157.699 8.04481L159.29 8.00255L160.88 8.09214L162.455 8.31642L164.009 8.67328L165.525 9.15616L166.997 9.76522L168.411 10.4914L169.761 11.3375L171.035 12.2941L172.225 13.3521L173.32 14.5071L174.317 15.7471L175.205 17.0703L175.981 18.4599L176.636 19.9091L177.169 21.4108L177.574 22.9507L177.848 24.5171L177.989 26.1028L178.001 27.6933L177.876 29.2816L177.62 30.8509L177.235 32.3962L176.718 33.9032L176.08 35.362L175.32 36.7583L174.45 38.0892L173.467 39.3428L172.384 40.5091L171.209 41.5805L169.945 42.5499L168.609 43.4117L167.201 44.1563L165.737 44.7832L164.224 45.2826L162.679 45.6538L161.104 45.8967L159.517 46.0035L157.925 45.9811L156.343 45.8241L154.777 45.5348L153.24 45.115L151.746 44.569L150.302 43.899L148.917 43.1118L147.606 42.2092L146.373 41.2032L145.229 40.0955L144.181 38.8957L143.237 37.613L142.407 36.2565L141.69 34.8335L141.096 33.3581L140.625 31.835L140.284 30.2807L140.077 28.7023L140 27.1118L140.058 25.5211L140.249 23.9423L140.569 22.3826L141.02 20.8565L141.597 19.3735L142.296 17.9436L143.115 16.5787L144.041 15.2864L145.074 14.0741Z" fill="#FFD500"></path>
</g>
<path id="f3d51f039b910ead8c98dde42124b9df" fill-rule="evenodd" clip-rule="evenodd" d="M157.553 27.8776L145.707 40.5854L145.368 40.2701L156.861 27.9419L141.869 35.2382L141.666 34.8215L156.773 27.4693L140.288 28.0504L140.27 27.5873L156.635 27.0107L140.702 21.5094L140.853 21.0713L157.215 26.721L144.388 14.8139L144.703 14.4743L157.542 26.3916L149.518 10.7571L149.934 10.5543L157.925 26.1199L157.455 8.3388L157.918 8.32156L158.366 25.522L164.056 9.04381L164.494 9.19506L158.708 25.9519L170.875 12.8442L171.215 13.1594L158.887 26.4406L175.834 18.1926L176.037 18.6093L158.952 26.9245L178.079 26.2898L178.096 26.7529L159.129 27.3816L176.928 33.4086L176.777 33.8466L159.141 27.8762L172.554 40.3262L172.239 40.6658L159.043 28.4174L166.724 44.4024L166.307 44.6052L158.47 28.2984L159.003 46.105L158.54 46.1222L157.995 28.016L151.956 44.7659L151.518 44.6147L157.553 27.8776Z" fill="#FFEB32"></path>
<path id="957cd97d743a739498af6bc4bd1539aa" fill-rule="evenodd" clip-rule="evenodd" d="M168.731 12.8374L168.992 12.4114L168.496 12.1067L168.235 12.5328L168.316 12.0394L167.738 11.9442L167.656 12.4376L167.539 11.9516L166.969 12.0895L167.087 12.5755L166.795 12.17L166.323 12.5108L166.615 12.9162L166.19 12.6536L165.881 13.1543L166.306 13.4168L165.813 13.3356L165.718 13.9136L166.211 13.9948L165.725 14.1126L165.863 14.6819L166.349 14.5642L165.943 14.8568L166.284 15.3288L166.69 15.0362L166.427 15.4617L166.928 15.7707L167.19 15.3452L167.112 15.839L167.685 15.9298L167.764 15.436L167.877 15.923L168.451 15.7894L168.338 15.3024L168.631 15.7072L169.107 15.3619L168.814 14.9571L169.24 15.2188L169.545 14.7227L169.119 14.4611L169.613 14.5378L169.703 13.9555L169.209 13.8787L169.696 13.764L169.563 13.199L169.076 13.3138L169.481 13.0203L169.135 12.5439L168.731 12.8374ZM168.384 13.2114L168.056 13.0102L167.675 12.9474L167.3 13.0383L166.988 13.2634L166.784 13.5954L166.721 13.9759L166.812 14.3511L167.037 14.6629L167.368 14.867L167.745 14.9269L168.126 14.8383L168.44 14.6107L168.64 14.285L168.7 13.8984L168.612 13.5261L168.384 13.2114Z" fill="#FFEC8A"></path>
<path id="9c8845aca764b08147fbdaf3a71f4a42" fill-rule="evenodd" clip-rule="evenodd" d="M143.661 23.6771L143.922 23.251L143.426 22.9463L143.165 23.3724L143.246 22.879L142.668 22.7839L142.587 23.2772L142.469 22.7913L141.9 22.9292L142.017 23.4151L141.725 23.0097L141.253 23.3504L141.545 23.7558L141.12 23.4932L140.811 23.9939L141.236 24.2565L140.743 24.1753L140.648 24.7533L141.141 24.8345L140.655 24.9522L140.793 25.5215L141.279 25.4038L140.874 25.6965L141.214 26.1685L141.62 25.8758L141.357 26.3013L141.858 26.6103L142.12 26.1848L142.042 26.6787L142.615 26.7695L142.694 26.2757L142.807 26.7627L143.381 26.6291L143.268 26.1421L143.561 26.5469L144.037 26.2016L143.744 25.7968L144.17 26.0584L144.475 25.5624L144.049 25.3007L144.543 25.3775L144.633 24.7952L144.139 24.7184L144.626 24.6037L144.493 24.0387L144.006 24.1534L144.411 23.8599L144.065 23.3836L143.661 23.6771ZM143.314 24.0511L142.986 23.8498L142.606 23.7871L142.23 23.878L141.918 24.103L141.714 24.4351L141.651 24.8155L141.742 25.1908L141.967 25.5026L142.298 25.7067L142.675 25.7665L143.056 25.678L143.37 25.4503L143.57 25.1247L143.63 24.7381L143.542 24.3657L143.314 24.0511Z" fill="#FFEC8A"></path>
<path id="da44e1d09017c90a605ba675f5771bc5" fill-rule="evenodd" clip-rule="evenodd" d="M158.368 19.5916L158.63 19.1655L158.134 18.8608L157.872 19.2869L157.953 18.7935L157.375 18.6984L157.294 19.1917L157.176 18.7058L156.607 18.8437L156.725 19.3296L156.432 18.9242L155.96 19.2649L156.253 19.6703L155.827 19.4077L155.518 19.9084L155.944 20.171L155.45 20.0898L155.355 20.6678L155.849 20.749L155.363 20.8667L155.5 21.436L155.986 21.3183L155.581 21.6109L155.922 22.083L156.327 21.7903L156.065 22.2158L156.565 22.5248L156.828 22.0993L156.75 22.5932L157.323 22.684L157.401 22.1902L157.515 22.6771L158.088 22.5436L157.975 22.0566L158.269 22.4614L158.745 22.116L158.452 21.7112L158.878 21.9729L159.182 21.4769L158.756 21.2152L159.25 21.292L159.341 20.7097L158.847 20.6329L159.333 20.5182L159.2 19.9532L158.713 20.0679L159.118 19.7744L158.773 19.2981L158.368 19.5916ZM158.022 19.9656L157.694 19.7643L157.313 19.7016L156.938 19.7925L156.626 20.0175L156.421 20.3496L156.358 20.73L156.449 21.1052L156.674 21.4171L157.005 21.6212L157.383 21.681L157.763 21.5925L158.077 21.3648L158.278 21.0391L158.338 20.6526L158.25 20.2802L158.022 19.9656Z" fill="#FFEC8A"></path>
<path id="95d8c2833a5b35b8f6425e09893be018" fill-rule="evenodd" clip-rule="evenodd" d="M172.346 33.9307L172.608 33.5047L172.112 33.2L171.85 33.6261L171.927 33.132L171.345 33.0415L171.268 33.5356L171.153 33.0489L170.588 33.1821L170.703 33.6688L170.409 33.264L169.933 33.6093L170.227 34.0141L169.801 33.7524L169.496 34.2485L169.922 34.5102L169.429 34.4289L169.333 35.0069L169.827 35.0882L169.341 35.2059L169.479 35.7752L169.965 35.6575L169.559 35.9501L169.9 36.4221L170.305 36.1295L170.043 36.555L170.543 36.864L170.806 36.4385L170.725 36.9318L171.303 37.027L171.384 36.5337L171.502 37.0196L172.071 36.8817L171.953 36.3957L172.246 36.8012L172.718 36.4605L172.425 36.0551L172.851 36.3176L173.16 35.8169L172.734 35.5544L173.228 35.6326L173.319 35.0593L172.825 34.981L173.312 34.8677L173.179 34.2937L172.692 34.4071L173.096 34.1136L172.751 33.6372L172.346 33.9307ZM172 34.3047L171.674 34.1047L171.288 34.0446L170.915 34.1324L170.601 34.3606L170.399 34.6882L170.337 35.0692L170.427 35.4444L170.653 35.7562L170.985 35.9612L171.365 36.0238L171.74 35.9329L172.052 35.7078L172.256 35.3771L172.316 34.9992L172.228 34.6188L172 34.3047Z" fill="#FFEC8A"></path>
<path id="4d0bfe0855c270deb71fb2a4435d8c7f" fill-rule="evenodd" clip-rule="evenodd" d="M147.641 35.558L147.903 35.1319L147.407 34.8273L147.145 35.2533L147.226 34.76L146.648 34.6648L146.567 35.1582L146.449 34.6722L145.88 34.8101L145.998 35.296L145.705 34.8906L145.233 35.2313L145.526 35.6367L145.1 35.3742L144.791 35.8748L145.217 36.1374L144.723 36.0562L144.628 36.6342L145.121 36.7154L144.635 36.8331L144.773 37.4025L145.259 37.2848L144.854 37.5774L145.195 38.0494L145.6 37.7568L145.337 38.1823L145.838 38.4913L146.101 38.0658L146.022 38.5596L146.596 38.6505L146.674 38.1566L146.787 38.6436L147.361 38.51L147.248 38.023L147.541 38.4278L148.018 38.0825L147.724 37.6777L148.15 37.9394L148.455 37.4433L148.029 37.1816L148.523 37.2585L148.614 36.6762L148.12 36.5994L148.606 36.4846L148.473 35.9196L147.986 36.0343L148.391 35.7408L148.046 35.2645L147.641 35.558ZM147.295 35.932L146.967 35.7308L146.586 35.668L146.211 35.7589L145.899 35.984L145.694 36.316L145.631 36.6964L145.722 37.0717L145.947 37.3835L146.278 37.5876L146.656 37.6475L147.036 37.559L147.35 37.3313L147.55 37.0056L147.61 36.619L147.523 36.2467L147.295 35.932Z" fill="#FFEC8A"></path>
<path id="6f096aae2790ed5f7c44d695d8dc1c99" fill-rule="evenodd" clip-rule="evenodd" d="M163.397 40.6322L163.659 40.2063L163.163 39.9014L162.901 40.3274L162.978 39.8334L162.396 39.7423L162.319 40.2363L162.205 39.7496L161.641 39.8821L161.755 40.3688L161.461 39.9639L160.986 40.3084L161.279 40.7133L160.853 40.4518L160.549 40.9469L160.975 41.2084L160.482 41.1277L160.388 41.7049L160.881 41.7857L160.394 41.8995L160.528 42.4729L161.015 42.3591L160.61 42.6519L160.951 43.1238L161.356 42.831L161.093 43.2564L161.594 43.5655L161.856 43.1401L161.779 43.6341L162.361 43.7252L162.438 43.2312L162.555 43.7172L163.124 43.5801L163.007 43.094L163.299 43.4996L163.771 43.1598L163.478 42.7542L163.904 43.0166L164.212 42.5168L163.786 42.2544L164.28 42.3322L164.37 41.7596L163.876 41.6818L164.363 41.568L164.229 40.9945L163.742 41.1084L164.147 40.8147L163.802 40.3386L163.397 40.6322ZM163.05 41.0062L162.725 40.8058L162.338 40.7454L161.967 40.8326L161.653 41.0597L161.453 41.3862L161.39 41.7685L161.479 42.1477L161.703 42.4577L162.033 42.6617L162.418 42.7218L162.794 42.631L163.105 42.407L163.308 42.0775L163.367 41.7005L163.278 41.3204L163.05 41.0062Z" fill="#FFEC8A"></path>
<path id="321edd2c1d3b4bf1a9673dc6d1ff6a6c" fill-rule="evenodd" clip-rule="evenodd" d="M156.015 32.4158L156.277 31.9899L155.781 31.685L155.519 32.111L155.596 31.617L155.015 31.526L154.937 32.02L154.823 31.5332L154.259 31.6657L154.373 32.1525L154.08 31.7475L153.604 32.092L153.897 32.4969L153.471 32.2354L153.167 32.7306L153.594 32.9921L153.1 32.9113L153.006 33.4886L153.499 33.5693L153.012 33.6831L153.146 34.2566L153.633 34.1428L153.228 34.4356L153.569 34.9074L153.974 34.6146L153.711 35.04L154.212 35.3492L154.475 34.9238L154.397 35.4177L154.979 35.5088L155.056 35.0148L155.174 35.5009L155.742 35.3637L155.625 34.8777L155.918 35.2832L156.389 34.9434L156.096 34.5379L156.522 34.8003L156.83 34.3005L156.404 34.0381L156.898 34.1158L156.988 33.5432L156.495 33.4654L156.981 33.3516L156.847 32.7782L156.361 32.892L156.765 32.5983L156.42 32.1222L156.015 32.4158ZM155.669 32.7898L155.343 32.5895L154.957 32.5291L154.585 32.6163L154.272 32.8434L154.071 33.1698L154.009 33.5522L154.097 33.9313L154.321 34.2414L154.652 34.4454L155.036 34.5055L155.412 34.4147L155.723 34.1906L155.926 33.8611L155.985 33.4842L155.897 33.104L155.669 32.7898Z" fill="#FFEC8A"></path>
<path id="3f8434bcc96be27b6451a9c1847f8c5c" fill-rule="evenodd" clip-rule="evenodd" d="M171.245 23.3577L171.507 22.9318L171.011 22.6269L170.749 23.0529L170.826 22.5589L170.245 22.4679L170.167 22.9619L170.053 22.4751L169.489 22.6076L169.603 23.0943L169.31 22.6894L168.834 23.0339L169.127 23.4388L168.701 23.1773L168.397 23.6725L168.824 23.934L168.33 23.8532L168.236 24.4305L168.729 24.5112L168.242 24.625L168.376 25.1985L168.863 25.0847L168.458 25.3775L168.799 25.8493L169.204 25.5565L168.941 25.9819L169.442 26.291L169.705 25.8657L169.627 26.3596L170.209 26.4507L170.286 25.9567L170.404 26.4428L170.972 26.3056L170.855 25.8196L171.148 26.2251L171.619 25.8853L171.326 25.4797L171.752 25.7422L172.06 25.2424L171.634 24.98L172.128 25.0577L172.218 24.4851L171.725 24.4073L172.211 24.2935L172.077 23.7201L171.591 23.8339L171.995 23.5402L171.65 23.0641L171.245 23.3577ZM170.899 23.7317L170.573 23.5314L170.187 23.4709L169.815 23.5582L169.502 23.7853L169.301 24.1117L169.239 24.4941L169.327 24.8732L169.551 25.1833L169.882 25.3873L170.266 25.4474L170.642 25.3565L170.953 25.1325L171.156 24.803L171.215 24.4261L171.127 24.0459L170.899 23.7317Z" fill="#FFEC8A"></path>
<path id="dd25a7cd1f379218eb1fc5d80f6fcf32" fill-rule="evenodd" clip-rule="evenodd" d="M150.366 12.962L149.988 12.9021L149.607 12.9907L149.297 13.2144L149.093 13.5445L149.033 13.9305L149.121 14.3029L149.349 14.6175L149.677 14.8188L150.058 14.8815L150.432 14.7908L150.748 14.5617L150.95 14.2341L151.012 13.8531L150.921 13.4779L150.696 13.1661L150.366 12.962ZM151.044 12.7928L151.306 12.3673L150.805 12.0583L150.543 12.4838L150.621 11.99L150.048 11.8991L149.97 12.3929L149.856 11.906L149.282 12.0395L149.396 12.5265L149.103 12.1211L148.631 12.4618L148.924 12.8672L148.498 12.6046L148.189 13.1053L148.615 13.3679L148.12 13.2911L148.03 13.8734L148.524 13.9502L148.037 14.065L148.171 14.63L148.657 14.5152L148.252 14.8087L148.598 15.285L149.003 14.9915L148.741 15.4176L149.237 15.7223L149.499 15.2962L149.417 15.7896L149.995 15.8847L150.077 15.3914L150.194 15.8773L150.764 15.7395L150.646 15.2535L150.939 15.6583L151.416 15.3129L151.122 14.9082L151.548 15.1698L151.853 14.6738L151.427 14.4121L151.92 14.4934L152.015 13.9153L151.522 13.8341L152.008 13.7164L151.87 13.1471L151.384 13.2648L151.79 12.9722L151.449 12.5002L151.044 12.7928Z" fill="#FFEC8A"></path>
</g>
</g>

<style>
	.rotation {
	  transform-origin: 160px 27px;
	  -webkit-animation:spin 4s linear infinite;
	    -moz-animation:spin 4s linear infinite;
	    animation:spin 4s linear infinite;
	}

	@-moz-keyframes spin { 100% { -moz-transform: rotate(360deg); } }
	@-webkit-keyframes spin { 100% { -webkit-transform: rotate(360deg); } }
	@keyframes spin { 100% { -webkit-transform: rotate(360deg); transform:rotate(360deg); } }
	</style>
</svg>