<svg width="85" height="87" viewBox="0 0 85 87" fill="none" xmlns="http://www.w3.org/2000/svg">
<path d="M42.5 35C61.0015 35 76 28.9558 76 21.5C76 14.0442 61.0015 8 42.5 8C23.9985 8 9 14.0442 9 21.5C9 28.9558 23.9985 35 42.5 35Z" stroke="#00FF88" stroke-width="2" stroke-linecap="round" stroke-linejoin="round"/>
<path fill-rule="evenodd" clip-rule="evenodd" d="M9.00033 52.2864C8.96426 63.794 11.9223 72.5959 17.8023 78.512C20.9407 81.6504 24.8367 83.9231 29.382 85.2217C33.0976 86.3039 36.272 86.4482 37.8593 86.4482L38.5447 86.4482L41.2141 86.4482L42.2963 86.4482L42.6932 86.4482L46.0841 86.4482L46.7695 86.4482C48.3567 86.4482 51.5312 86.3039 55.2468 85.2217C59.7921 83.887 63.688 81.6504 66.8265 78.512C72.4395 72.8645 75.4876 59 75.6193 53.8326C75.7511 48.6652 75.5379 42.4682 75.7406 37.2024C75.3717 38.9245 75.1059 40.6862 74.946 42.4684C74.946 42.4684 74.389 32.2518 71.9224 28.8419L71.9224 32.7195C71.9224 32.7195 68.9165 22.5162 64.4037 17.3886L64.9702 20.4824C64.9702 20.4824 59.9279 13.8272 57.0132 11.5036L57.351 14.2818L46.6271 3.57384L47.4128 6.51603L42.4795 -2.90778e-06L37.5467 6.54152L38.3318 3.57384L27.5799 14.2572L27.9176 11.479C25.0037 13.8028 19.9607 20.4578 19.9607 20.4578L20.5552 17.3889C16.0698 22.4398 13.0462 32.7197 13.0462 32.7197L13.0455 28.8306C10.5788 32.2405 10.0219 42.4571 10.0219 42.4571C9.86258 40.6742 9.59685 38.9124 9.22727 37.1902C9.42158 42.2387 9.00033 47.2507 9.00033 52.2864Z" fill="black"/>
<path fill-rule="evenodd" clip-rule="evenodd" d="M59.2207 38.324C54.9607 34.19 49.0645 31.6299 42.5569 31.6299C42.2842 31.6299 42.0209 31.6394 41.7576 31.6489L40.6385 31.7057C40.0367 31.7531 39.4348 31.8195 38.8424 31.9143L37.7233 32.1229C33.1624 33.0522 29.0811 35.2519 25.9025 38.3335C21.6425 42.4676 19 48.1851 19 54.4905V62.5406C19 63.8585 19.5548 65.0627 20.4482 65.9256C21.3416 66.7884 22.5829 67.3289 23.9371 67.3289H24.1628C24.7552 67.3289 25.2819 67.5565 25.6674 67.9357C26.053 68.315 26.2881 68.827 26.2881 69.3959V69.8321C26.2881 71.1501 26.8429 72.3542 27.7363 73.2171C28.6297 74.0799 29.871 74.6204 31.244 74.6204H31.338C32.5887 74.6204 33.736 74.1558 34.6012 73.3878C34.7704 73.2361 34.9209 73.0654 35.062 72.8947C35.156 73.0085 35.2594 73.1223 35.3723 73.2266C36.2657 74.0894 37.507 74.6299 38.8612 74.6299C40.2247 74.6299 41.4661 74.0894 42.35 73.2266C42.4629 73.1128 42.5757 72.999 42.6698 72.8757C42.7732 72.999 42.8767 73.1128 42.9895 73.2266C43.8829 74.0894 45.1242 74.6299 46.4784 74.6299C47.8419 74.6299 49.0833 74.0894 49.9672 73.2266C50.0801 73.1128 50.1929 72.999 50.287 72.8757C50.3904 72.999 50.4938 73.1128 50.6067 73.2266C51.5001 74.0894 52.7414 74.6299 54.0956 74.6299C55.4591 74.6299 56.7005 74.0894 57.5844 73.2266C58.4778 72.3637 59.0326 71.1595 59.0326 69.8416V69.4054C59.0326 68.827 59.2678 68.3245 59.6533 67.9452C60.0389 67.5659 60.5655 67.3384 61.1579 67.3384C62.5215 67.3384 63.7628 66.7979 64.6468 65.9351C65.5402 65.0722 66.095 63.868 66.095 62.5501V54.5C66.1232 48.1756 63.4901 42.4581 59.2207 38.324ZM63.0951 64.38C63.5842 63.906 63.8851 63.2517 63.8851 62.5311L63.8193 54.481C63.8193 48.7635 61.4401 43.6054 57.575 39.8601C53.71 36.1148 48.3874 33.8012 42.5005 33.8012C42.2372 33.8012 41.9645 33.8107 41.7012 33.8202V34.5218L44.0521 35.47L43.6196 36.4751L41.2122 35.5079L39.8956 36.4182L39.2467 35.5364L40.5821 34.6072V33.8866C35.4663 34.3322 30.8678 36.5225 27.4353 39.8506C23.5797 43.5959 21.1911 48.754 21.1911 54.4716V62.5216C21.1911 63.2517 21.492 63.8965 21.9811 64.3706C22.4795 64.8447 23.1472 65.1386 23.8901 65.1386H24.1158C25.3195 65.1386 26.4197 65.6127 27.2097 66.3807C27.9996 67.1487 28.4886 68.2202 28.4886 69.3864V69.8226C28.4886 70.5527 28.7895 71.1975 29.2785 71.6716C29.7675 72.1457 30.4352 72.4396 31.1969 72.4396H31.291C31.9681 72.4396 32.5699 72.1931 33.0307 71.7853C33.4915 71.3776 33.7924 70.8087 33.8489 70.1639L33.8865 69.7467L36.1246 69.8321C36.1246 70.5622 36.4255 71.207 36.9145 71.681C37.4129 72.1551 38.0806 72.4491 38.8235 72.4491C39.5759 72.4491 40.2435 72.1551 40.7325 71.681C41.2215 71.207 41.5225 70.5527 41.5225 69.8321H43.77C43.77 70.5622 44.071 71.207 44.56 71.681C45.0584 72.1551 45.7261 72.4491 46.469 72.4491C47.2213 72.4491 47.889 72.1551 48.378 71.681C48.867 71.207 49.1679 70.5527 49.1679 69.8321H51.4154C51.4154 70.5622 51.7164 71.207 52.2054 71.681C52.7038 72.1551 53.3621 72.4491 54.1144 72.4491C54.8667 72.4491 55.5344 72.1551 56.0234 71.681C56.5124 71.207 56.8133 70.5527 56.8133 69.8321V69.3959C56.8133 68.2202 57.3023 67.1582 58.0923 66.3902C58.8822 65.6222 59.9824 65.1481 61.1861 65.1481C61.9385 65.1481 62.6061 64.8541 63.0951 64.38Z" fill="white"/>
<path d="M63.8851 62.5311C63.8851 63.2517 63.5842 63.906 63.0951 64.38C62.6061 64.8541 61.9385 65.1481 61.1861 65.1481C59.9824 65.1481 58.8822 65.6222 58.0923 66.3902C57.3023 67.1582 56.8133 68.2202 56.8133 69.3959V69.8321C56.8133 70.5527 56.5124 71.207 56.0234 71.681C55.5344 72.1551 54.8667 72.4491 54.1144 72.4491C53.3621 72.4491 52.7038 72.1551 52.2054 71.681C51.7164 71.207 51.4154 70.5622 51.4154 69.8321H49.1679C49.1679 70.5527 48.867 71.207 48.378 71.681C47.889 72.1551 47.2213 72.4491 46.469 72.4491C45.7261 72.4491 45.0584 72.1551 44.56 71.681C44.071 71.207 43.77 70.5622 43.77 69.8321H41.5225C41.5225 70.5527 41.2215 71.207 40.7325 71.681C40.2435 72.1551 39.5759 72.4491 38.8235 72.4491C38.0806 72.4491 37.4129 72.1551 36.9145 71.681C36.4255 71.207 36.1246 70.5622 36.1246 69.8321L33.8865 69.7467L33.8489 70.1639C33.7924 70.8087 33.4915 71.3776 33.0307 71.7853C32.5699 72.1931 31.9681 72.4396 31.291 72.4396H31.1969C30.4352 72.4396 29.7675 72.1457 29.2785 71.6716C28.7895 71.1975 28.4886 70.5527 28.4886 69.8226V69.3864C28.4886 68.2202 27.9996 67.1487 27.2097 66.3807C26.4197 65.6127 25.3195 65.1386 24.1158 65.1386H23.8901C23.1472 65.1386 22.4795 64.8447 21.9811 64.3706C21.492 63.8965 21.1911 63.2517 21.1911 62.5216V54.4716C21.1911 48.754 23.5797 43.5959 27.4353 39.8506C30.8678 36.5225 35.4663 34.3322 40.5821 33.8866V34.6072L39.2467 35.5364L39.8956 36.4182L41.2122 35.5079L43.6196 36.4751L44.0521 35.47L41.7012 34.5218V33.8202C41.9645 33.8107 42.2372 33.8012 42.5005 33.8012C48.3874 33.8012 53.71 36.1148 57.575 39.8601C61.4401 43.6054 63.8193 48.7635 63.8193 54.481L63.8851 62.5311Z" fill="white"/>
<path d="M31.1007 60.6301C33.166 60.6301 35.0505 60.2376 36.402 59.605C37.7536 58.9724 38.6006 58.0951 38.6006 57.1301C38.6006 56.165 39.0059 54.2626 37.6448 53.6301C36.2933 52.9975 33.166 53.6301 31.1007 53.6301C29.0353 53.6301 24.9522 52.9972 23.6007 53.6298C22.2492 54.2624 23.6006 56.165 23.6006 57.1301C23.6006 58.0951 24.4382 58.9724 25.7993 59.605C27.1508 60.2376 29.0353 60.6301 31.1007 60.6301Z" fill="black"/>
<path d="M54.2013 60.6301C52.136 60.6301 50.2515 60.2376 48.9 59.605C47.5484 58.9724 46.7014 58.0951 46.7014 57.1301C46.7014 56.165 46.2961 54.2626 47.6572 53.6301C49.0087 52.9975 52.136 53.6301 54.2013 53.6301C56.2667 53.6301 60.3498 52.9972 61.7013 53.6298C63.0528 54.2624 61.7014 56.165 61.7014 57.1301C61.7014 58.0951 60.8638 58.9724 59.5028 59.605C58.1512 60.2376 56.2667 60.6301 54.2013 60.6301Z" fill="black"/>
<path d="M43.0713 65.8693V61.8976C43.0713 61.3518 43.6203 61.1093 43.8829 61.5439C44.8934 63.2417 46.2062 66.122 43.5726 66.4352C43.31 66.4757 43.0713 66.2129 43.0713 65.8693Z" fill="black"/>
<path d="M42.0476 65.8693V61.8976C42.0476 61.3518 41.4986 61.1093 41.236 61.5439C40.2255 63.2417 38.9127 66.122 41.5463 66.4352C41.8089 66.4757 42.0476 66.2129 42.0476 65.8693Z" fill="black"/>
<path d="M76 21C76 28.732 61.0015 35 42.5 35C23.9985 35 9 28.732 9 21" stroke="#00FF88" stroke-width="2" stroke-linecap="round" stroke-linejoin="round"/>
<path d="M43.0001 17.2339C39.5923 17.1507 36.3593 18.0668 33.3884 19.8992C31.2913 18.3167 29.3689 15.9013 29.5437 12.7363C24.5631 17.9003 24.5631 22.2313 27.6214 25.7295C25.8738 28.7279 25 31.8096 25 34.9746C25 39.7221 26.7476 43.9698 30.3301 47.468C33.8253 50.9661 38.1068 52.6319 43.0001 52.6319V17.2339Z" fill="#00FF88"/>
<path d="M42.9999 17.2339C46.4077 17.1507 49.6407 18.0668 52.6116 19.8992C54.7087 18.3167 56.6311 15.9013 56.4563 12.7363C61.4369 17.9003 61.4369 22.2313 58.3786 25.7295C60.1262 28.7279 61 31.8096 61 34.9746C61 39.7221 59.2524 43.9698 55.6699 47.468C52.1747 50.9661 47.8932 52.6319 42.9999 52.6319V17.2339Z" fill="#00FF88"/>
<circle cx="43" cy="34.9007" r="7.32091" stroke="white" stroke-width="2.55224"/>
</svg>
