<svg width="83" height="99" viewBox="0 0 83 99" fill="none" xmlns="http://www.w3.org/2000/svg">
<path d="M41.6892 35.364C63.5845 35.364 81.3342 27.8539 81.3342 18.5897C81.3342 9.32553 63.5845 1.81543 41.6892 1.81543C19.7939 1.81543 2.04419 9.32553 2.04419 18.5897C2.04419 27.8539 19.7939 35.364 41.6892 35.364Z" stroke="#00FF88" stroke-width="2" stroke-linecap="round" stroke-linejoin="round"/>
<path fill-rule="evenodd" clip-rule="evenodd" d="M74.9853 54.3032C73.362 63.3216 80.6489 63.8988 80.6489 63.8988C80.6489 63.8988 78.3402 71.4742 73.3259 70.3199C76.3616 72.8628 75.4899 75.8189 74.7493 78.3304C73.809 81.5195 73.08 83.9918 80.8293 83.9918C80.8293 83.9918 78.4484 92.397 68.961 92.397C60.3394 92.397 58.3554 81.6109 58.3554 81.6109L56.2992 80.3844L50.2388 89.0061L42.014 98.5L33.0316 89.0061L27.4763 81.5749L24.8068 82.2603C24.8068 82.2603 18.7825 93.4431 12.0728 93.4431C4.60554 93.4431 3.0183 86.2284 3.0183 86.2284C10.6751 86.2284 9.59491 82.9819 8.33231 79.187C7.3999 76.3846 6.36799 73.2831 8.68187 70.9692C8.17684 71.2217 7.63573 71.3299 7.09463 71.3299C3.84799 71.3299 1.86394 67.0011 1.79179 66.8207L0.998169 65.0531C0.998169 65.0531 8.53757 62.3837 8.3572 54.3032V54.231V54.1589C8.28506 42.6874 11.2792 33.8494 17.1592 27.9333C20.2976 24.7949 24.1936 22.5583 28.7388 21.2236C32.4544 20.1414 35.6289 19.9971 37.2162 19.9971H37.9016H41.2925H41.6893H42.7715H45.441H46.1264C47.7136 19.9971 50.8881 20.1414 54.6037 21.2236C59.149 22.5222 63.0449 24.7949 66.1833 27.9333C72.0634 33.8494 75.0214 42.6513 74.9853 54.1589V54.231V54.3032ZM56.9845 68.1194L61.7102 67.0011C61.9101 66.6901 62.11 66.3655 62.3183 66.0272C62.4483 65.8161 62.5816 65.5996 62.7203 65.3778C64.4518 62.6362 66.0751 60.0028 66.1473 57.5137L65.2454 52.5355L60.6641 41.028L58.8965 39.1883L56.8042 37.565C54.7119 36.1942 52.5475 35.5088 50.3831 35.5088C45.6378 35.5088 42.3746 38.8258 42.2688 38.9334L42.2665 38.9358L41.7614 39.4769L41.2564 38.9358L41.2548 38.9342C41.1646 38.843 37.8616 35.5088 33.1398 35.5088C30.759 35.5088 28.4142 36.3385 26.1415 37.9618L24.9511 38.8997C24.9143 38.9313 24.8782 38.9621 24.8429 38.9923C24.6362 39.1688 24.4558 39.3228 24.3018 39.4769L22.7867 41.0641C22.7506 41.0641 22.7506 41.1002 22.7506 41.1002L18.1693 52.5716L17.3396 57.1891V57.5137C17.3752 60.0103 18.9977 62.6126 20.7078 65.3556L20.7666 65.4499C21.0912 65.955 21.4159 66.46 21.7405 67.0011L26.4662 68.1194L29.9653 75.0816L34.7271 75.8392L38.4787 84.6544L39.3806 83.5L39.561 83.5721L40.8957 84.1133L41.7254 84.4379L43.8537 83.5721V83.6082L44.1062 83.5L45.0081 84.6904L48.7237 75.8392L53.4854 75.0816L56.9845 68.1194Z" fill="black"/>
<path d="M53.7963 58.1991C55.7886 58.1991 57.4037 56.584 57.4037 54.5917C57.4037 52.5994 55.7886 50.9844 53.7963 50.9844C51.804 50.9844 50.189 52.5994 50.189 54.5917C50.189 56.584 51.804 58.1991 53.7963 58.1991Z" fill="black"/>
<path d="M29.6074 58.1991C31.5997 58.1991 33.2147 56.584 33.2147 54.5917C33.2147 52.5994 31.5997 50.9844 29.6074 50.9844C27.6151 50.9844 26 52.5994 26 54.5917C26 56.584 27.6151 58.1991 29.6074 58.1991Z" fill="black"/>
<path d="M42.0001 13.0494C38.5923 12.9661 35.3593 13.8823 32.3884 15.7146C30.2913 14.1321 28.3689 11.7168 28.5437 8.55176C23.5631 13.7157 23.5631 18.0467 26.6214 21.5449C24.8738 24.5433 24 27.625 24 30.79C24 35.5375 25.7476 39.7852 29.3301 43.2834C32.8253 46.7815 37.1068 48.4473 42.0001 48.4473V13.0494Z" fill="#00FF88"/>
<path d="M41.9999 13.0494C45.4077 12.9661 48.6407 13.8823 51.6116 15.7146C53.7087 14.1321 55.6311 11.7168 55.4563 8.55176C60.4369 13.7157 60.4369 18.0467 57.3786 21.5449C59.1262 24.5433 60 27.625 60 30.79C60 35.5375 58.2524 39.7852 54.6699 43.2834C51.1747 46.7815 46.8932 48.4473 41.9999 48.4473V13.0494Z" fill="#00FF88"/>
<circle cx="42" cy="30.7162" r="7.32091" stroke="white" stroke-width="2.55224"/>
</svg>
