<svg width="101" height="100" viewBox="0 0 101 100" fill="none" xmlns="http://www.w3.org/2000/svg">
<path d="M78.0565 39.2959H73.1402C72.8991 39.2959 72.6763 39.1673 72.5557 38.9584C72.4352 38.7495 72.4352 38.4923 72.5557 38.2834L75.0139 34.0259C75.255 33.6081 75.9417 33.6081 76.1828 34.0259L78.641 38.2834C78.7615 38.4923 78.7615 38.7495 78.641 38.9584C78.5204 39.1673 78.2976 39.2959 78.0565 39.2959ZM74.309 37.9466H76.8877L75.5983 35.7127L74.309 37.9466Z" fill="#2495FF"/>
<path d="M25.8813 50.3879H20.9649C20.7238 50.3879 20.501 50.2593 20.3804 50.0504C20.2599 49.8414 20.2599 49.5843 20.3804 49.3754L22.8386 45.1179C23.0797 44.7 23.7664 44.7 24.0075 45.1179L26.4657 49.3754C26.5862 49.5843 26.5862 49.8414 26.4657 50.0504C26.3451 50.2593 26.1223 50.3879 25.8813 50.3879ZM22.1337 49.0386H24.7124L23.4231 46.8047L22.1337 49.0386Z" fill="#2495FF"/>
<path d="M32.3206 26.5454C30.6324 26.5454 29.259 25.172 29.259 23.4838C29.259 21.7963 30.6324 20.4221 32.3206 20.4221C34.0089 20.4221 35.3815 21.7963 35.3815 23.4838C35.3815 25.172 34.0089 26.5454 32.3206 26.5454ZM32.3206 21.7721C31.3768 21.7721 30.6083 22.5399 30.6083 23.4838C30.6083 24.4276 31.3768 25.1954 32.3206 25.1954C33.2645 25.1954 34.0322 24.4276 34.0322 23.4838C34.0322 22.5399 33.2645 21.7721 32.3206 21.7721Z" fill="#2495FF"/>
<path d="M72.2942 65.5149L68.7191 32.5195C68.535 30.8167 67.1046 29.5331 65.3916 29.5331H57.4084V28.7442C57.4084 24.3384 53.8238 20.7538 49.418 20.7538C45.0115 20.7538 41.4269 24.3384 41.4269 28.7442V29.5331H34.1494C32.4364 29.5331 31.006 30.8167 30.8219 32.5195L26.5038 72.3693C26.4023 73.3132 26.7069 74.2599 27.341 74.9663C27.9743 75.6727 28.8824 76.0782 29.8321 76.0782H62.8143C65.5187 76.0782 68.1054 74.924 69.9113 72.9114C71.7171 70.8988 72.5857 68.2032 72.2942 65.5149ZM42.7761 28.7442C42.7761 25.0821 45.7559 22.103 49.418 22.103C53.0794 22.103 56.0592 25.0821 56.0592 28.7442V29.5331H42.7761V28.7442ZM49.418 40.149C49.7906 40.149 50.0923 39.8466 50.0923 39.474V37.6762C50.8213 37.9509 51.3444 38.65 51.3444 39.474C51.3444 40.537 50.4795 41.4004 49.418 41.4004C48.3558 41.4004 47.4909 40.537 47.4909 39.474C47.4909 38.65 48.014 37.9509 48.743 37.6762V39.474C48.743 39.8466 49.0447 40.149 49.418 40.149ZM48.743 36.27C47.2593 36.5819 46.1416 37.899 46.1416 39.474C46.1416 41.2806 47.6107 42.7504 49.418 42.7504C51.2246 42.7504 52.6937 41.2806 52.6937 39.474C52.6937 37.899 51.576 36.5819 50.0923 36.27V34.7293H54.669C54.7661 34.7293 54.8553 34.7878 54.894 34.8769L56.5464 38.6405V55.3526C56.5464 57.7589 54.5886 59.7175 52.1816 59.7175H42.5351C42.3992 59.7175 42.2889 59.6064 42.2889 59.4713V38.6405L43.9413 34.8769C43.98 34.7878 44.0692 34.7293 44.1663 34.7293H48.743V36.27ZM68.9068 72.0107C67.3559 73.7376 65.1359 74.7282 62.8143 74.7282H29.8321C29.2571 74.7282 28.729 74.493 28.3447 74.0649C27.9612 73.6368 27.7837 73.0867 27.8458 72.5147L32.1631 32.6649C32.2735 31.6487 33.1267 30.8824 34.1494 30.8824H48.743V33.3801H44.1663C43.5329 33.3801 42.9602 33.7548 42.7053 34.3348L40.9959 38.2278C40.9586 38.3132 40.9396 38.4053 40.9396 38.4988V59.4713C40.9396 60.3508 41.6555 61.0667 42.5351 61.0667H52.1816C55.3323 61.0667 57.8964 58.5033 57.8964 55.3526V38.4988C57.8964 38.4053 57.8767 38.3132 57.8394 38.2278L56.13 34.3348C55.8751 33.7548 55.3024 33.3801 54.669 33.3801H50.0923V30.8824H65.3916C66.4143 30.8824 67.2675 31.6487 67.3778 32.6649L70.953 65.661C71.2036 67.9687 70.4577 70.283 68.9068 72.0107Z" fill="#2495FF"/>
<path d="M67.0489 54.2285C67.073 54.2285 67.0979 54.227 67.122 54.2248C67.4931 54.1846 67.7604 53.8515 67.7203 53.4812L67.6392 52.7331C67.599 52.362 67.2593 52.0932 66.8962 52.1348C66.5251 52.175 66.2578 52.5081 66.2979 52.8785L66.379 53.6265C66.4163 53.9721 66.7092 54.2285 67.0489 54.2285Z" fill="#2495FF"/>
<path d="M68.296 58.8001C68.2558 58.4297 67.9139 58.1638 67.553 58.2025C67.1819 58.2427 66.9146 58.5751 66.9547 58.9455L67.7203 66.011C67.8723 67.4231 67.4354 68.7826 66.4872 69.8382C65.5383 70.8953 64.2343 71.4768 62.8149 71.4768C62.4423 71.4768 62.1406 71.7792 62.1406 72.1518C62.1406 72.5244 62.4423 72.8268 62.8149 72.8268C64.6222 72.8268 66.2827 72.0853 67.4909 70.7397C68.6985 69.3948 69.2559 67.6642 69.0616 65.8657L68.296 58.8001Z" fill="#2495FF"/>
</svg>
