<svg width="101" height="100" viewBox="0 0 101 100" fill="none" xmlns="http://www.w3.org/2000/svg">
<path d="M37.6201 63.1661C36.1154 69.1849 38.247 75.0784 39.501 77.2727C40.4414 76.8025 42.7925 75.8621 44.6733 75.8621C47.0244 75.8621 48.9053 77.2727 52.6671 77.2727C56.4288 77.2727 57.3693 74.9216 61.6012 74.9216C64.9868 74.9216 69.9085 76.489 71.9461 77.2727C69.4382 74.4514 63.8583 67.6802 61.6012 63.1661C59.3442 58.652 57.8395 51.5674 57.3693 48.5893V44.8276C58.3097 41.8495 60.1906 35.4232 60.1906 33.5423V24.7261C60.1906 23.6216 59.2952 22.7273 58.1906 22.7273H57.2576C56.4437 22.7273 55.711 23.2205 55.4046 23.9745L50.7249 35.4938C50.3871 36.3253 49.2098 36.3252 48.872 35.4938L44.1923 23.9745C43.886 23.2205 43.1533 22.7273 42.3394 22.7273H41.501C40.3964 22.7273 39.501 23.6213 39.501 24.7259V33.5423C39.501 36.9279 41.3818 42.4765 42.3223 44.8276V48.5893C41.3818 50.9404 39.1248 57.1473 37.6201 63.1661Z" stroke="#2495FF" stroke-width="1.3"/>
<path d="M42.2749 44.8275H57.3219" stroke="#2495FF" stroke-width="1.3"/>
<path d="M42.2749 49.0594H57.3219" stroke="#2495FF" stroke-width="1.3"/>
<path d="M46.1895 49.0594C45.7193 50.3133 45.061 54.0437 46.1895 58.934" stroke="#2495FF" stroke-width="1.3"/>
<path d="M51.8324 49.0594C51.3622 50.3133 53.09 62.2255 55.4412 67.8682" stroke="#2495FF" stroke-width="1.3"/>
<circle cx="70.8525" cy="37.3864" r="3.1" stroke="#2495FF" stroke-width="1.3"/>
<circle cx="31.9888" cy="52.3864" r="3.1" stroke="#2495FF" stroke-width="1.3"/>
<path d="M69.5937 29.302H65.0051C64.7801 29.302 64.5721 29.182 64.4596 28.987C64.3471 28.792 64.3471 28.552 64.4596 28.357L66.7539 24.3834C66.9789 23.9934 67.6198 23.9934 67.8448 24.3834L70.1392 28.357C70.2517 28.552 70.2517 28.792 70.1392 28.987C70.0267 29.182 69.8187 29.302 69.5937 29.302ZM66.096 28.0427H68.5028L67.2994 25.9577L66.096 28.0427Z" fill="#2495FF"/>
<path d="M31.4118 64.0748H26.8232C26.5982 64.0748 26.3902 63.9548 26.2777 63.7598C26.1652 63.5648 26.1652 63.3248 26.2777 63.1298L28.5721 59.1561C28.7971 58.7661 29.438 58.7661 29.663 59.1561L31.9573 63.1298C32.0698 63.3248 32.0698 63.5648 31.9573 63.7598C31.8448 63.9548 31.6368 64.0748 31.4118 64.0748ZM27.9141 62.8155H30.3209L29.1175 60.7304L27.9141 62.8155Z" fill="#2495FF"/>
</svg>
