<svg width="101" height="100" viewBox="0 0 101 100" fill="none" xmlns="http://www.w3.org/2000/svg">
<path d="M74.7181 47.5746C74.7175 47.5571 74.7188 47.5396 74.7168 47.5221C74.7168 47.5214 74.7168 47.5208 74.7162 47.5195C74.7149 47.5071 74.7103 47.4954 74.7084 47.4837C74.7045 47.4591 74.6993 47.4357 74.6928 47.4123C74.685 47.3844 74.6752 47.3578 74.6642 47.3311C74.6584 47.3182 74.6532 47.3045 74.6467 47.2915C74.6421 47.2831 74.6363 47.2766 74.6317 47.2682C74.6304 47.2662 74.6285 47.2643 74.6272 47.2617C74.6136 47.2383 74.5999 47.2156 74.583 47.1935C74.5642 47.1695 74.5428 47.1487 74.5207 47.1272C74.5071 47.1136 74.4967 47.098 74.4824 47.0863L60.583 35.8285C60.411 35.6902 60.1791 35.6467 59.9701 35.7169L49.2447 39.1182V29.9604C49.2447 28.5798 48.1194 27.4571 46.7356 27.4571H44.2811C44.1363 27.0798 43.9188 26.7324 43.6266 26.4409C43.2155 26.0298 42.7058 25.7558 42.1512 25.6409C41.872 24.061 40.4889 22.8571 38.8298 22.8571H38.6376C36.9791 22.8571 35.596 24.061 35.3168 25.6409C34.7623 25.7558 34.2512 26.0298 33.8402 26.4415C33.548 26.7337 33.3304 27.0831 33.1882 27.4571H30.7324C29.3486 27.4571 28.2227 28.5798 28.2227 29.9604V48.6928C28.2227 50.0766 29.3486 51.2019 30.7324 51.2019H38.2804L38.0876 64.1915C38.0843 64.3909 38.1733 64.5805 38.3285 64.7058L52.2214 75.9578C52.2253 75.961 52.2298 75.9617 52.233 75.9643C52.2376 75.9682 52.2408 75.9727 52.2447 75.9759C52.2811 76.0026 52.322 76.0175 52.3616 76.0363C52.3824 76.0454 52.3999 76.0597 52.4214 76.0669C52.4895 76.0902 52.5603 76.1039 52.6324 76.1039C52.6986 76.1039 52.7642 76.0935 52.8291 76.0733L73.948 69.374C74.2142 69.2896 74.3967 69.0441 74.4012 68.7643L74.7207 47.5993C74.7207 47.5909 74.7181 47.5831 74.7181 47.5746ZM60.0363 37.0597L72.7252 47.335L65.3791 49.6656C65.3532 49.635 65.335 49.6 65.3032 49.574L52.7155 39.3811L60.0363 37.0597ZM68.1714 50.1889V52.0526L58.498 55.1214V53.2565L68.1714 50.1889ZM34.3162 28.2182C34.3733 27.8889 34.5266 27.5915 34.759 27.3591C35.0681 27.0493 35.4791 26.8785 35.9149 26.8785C36.274 26.8785 36.5642 26.5883 36.5642 26.2292C36.5642 25.0863 37.4947 24.1558 38.6376 24.1558H38.8298C39.9733 24.1558 40.9038 25.0863 40.9038 26.2292C40.9038 26.5883 41.1941 26.8785 41.5532 26.8785C41.9889 26.8785 42.3986 27.0493 42.7084 27.3591C42.9415 27.5922 43.1012 27.898 43.1623 28.2441C43.1636 28.2506 43.1629 28.2584 43.1642 28.2649C43.1817 28.3493 43.1882 28.4389 43.1863 28.5396C43.185 28.6175 43.1753 28.6922 43.1636 28.7669C43.159 28.7961 43.1577 28.8266 43.1519 28.8552C43.135 28.9324 43.109 29.0065 43.0817 29.0792C43.072 29.1058 43.0655 29.1337 43.0545 29.1591C43.0285 29.2188 42.9941 29.274 42.9616 29.3298C42.9402 29.3656 42.9227 29.4039 42.8986 29.4376C42.874 29.474 42.8428 29.5052 42.8155 29.5389C42.7759 29.5863 42.7382 29.6363 42.6941 29.6792C42.6791 29.6941 42.661 29.7052 42.6454 29.7195C42.583 29.7746 42.5201 29.8292 42.4499 29.8753C42.4473 29.8772 42.4441 29.8779 42.4408 29.8798C42.3571 29.9344 42.2688 29.9818 42.1753 30.0208C42.172 30.0221 42.1675 30.0227 42.1642 30.024C42.0714 30.0617 41.9753 30.0915 41.8753 30.1123C41.7714 30.1331 41.6636 30.1448 41.5532 30.1448H35.9149C35.4791 30.1448 35.0681 29.974 34.759 29.6643C34.4532 29.3591 34.2843 28.9506 34.2843 28.5149C34.2843 28.4136 34.2928 28.3272 34.3162 28.2182ZM38.8149 42.4324C38.8025 42.437 38.7889 42.4383 38.7759 42.4441C38.7629 42.4506 38.7525 42.461 38.7402 42.4675C38.7214 42.4779 38.7019 42.4863 38.6843 42.4987C38.6727 42.5071 38.6623 42.5169 38.6506 42.5259C38.6317 42.5409 38.6142 42.5571 38.5973 42.574C38.5804 42.5909 38.5636 42.6078 38.5486 42.6266C38.5389 42.6383 38.5298 42.65 38.5207 42.6623C38.5097 42.6785 38.5006 42.6954 38.4908 42.713C38.4766 42.737 38.4655 42.7617 38.4545 42.7876C38.4486 42.8026 38.4402 42.8162 38.4356 42.8311C38.4304 42.8461 38.4285 42.8617 38.4246 42.8772C38.422 42.8889 38.4155 42.8993 38.4136 42.9117C38.4097 42.9305 38.4123 42.9493 38.4103 42.9688C38.4084 42.987 38.4025 43.0039 38.4019 43.0227L38.2999 49.9032H30.7324C30.0642 49.9032 29.5214 49.3604 29.5214 48.6928V29.9604C29.5214 29.2961 30.0642 28.7558 30.7324 28.7558H32.9954C33.0006 28.8214 33.0188 28.8837 33.0279 28.9487C33.0389 29.0227 33.0493 29.0961 33.0655 29.1682C33.0902 29.2766 33.1246 29.3818 33.1616 29.4863C33.185 29.5526 33.2045 29.6195 33.2324 29.6837C33.2804 29.7948 33.3415 29.8993 33.4032 30.0039C33.4337 30.0552 33.4584 30.1091 33.4921 30.1584C33.5947 30.3091 33.7097 30.4513 33.8408 30.5824C34.3954 31.1376 35.1324 31.4435 35.9149 31.4435H41.5532C41.7545 31.4435 41.9499 31.4214 42.1395 31.3837C42.1538 31.3811 42.1662 31.3753 42.1798 31.3721C42.9343 31.2117 43.5714 30.7656 43.9856 30.1513C43.9856 30.1506 43.9856 30.1506 43.9863 30.1506C44.0856 30.0026 44.1714 29.8454 44.2428 29.6792C44.2558 29.65 44.2649 29.6201 44.2766 29.5902C44.3298 29.4545 44.3753 29.3149 44.4077 29.1695C44.422 29.1071 44.4304 29.0435 44.4408 28.9798C44.4525 28.9045 44.4733 28.8331 44.4791 28.7558H46.7356C47.4032 28.7558 47.946 29.2961 47.946 29.9604V39.5298L38.8551 42.413C38.8408 42.4175 38.8291 42.4266 38.8149 42.4324ZM52.0006 74.1084L39.3908 63.8954L39.5889 50.5688C39.5889 50.5669 39.5902 50.5649 39.5902 50.5623L39.6785 44.5571L39.6811 44.3779L41.6233 45.9513V53.2383C41.6233 53.5974 41.9136 53.8876 42.2727 53.8876C42.6317 53.8876 42.922 53.5974 42.922 53.2383V47.0032L52.2973 54.5961L52.0006 74.1084ZM48.885 50.161L40.3973 43.2863L48.296 40.7818L51.2324 39.8513L63.9233 50.1272L53.0869 53.5643L48.885 50.161ZM73.109 68.2772L53.2954 74.563L53.5947 54.7669L57.1993 53.6233V56.0084C57.1993 56.2156 57.2986 56.4097 57.4655 56.5318C57.5778 56.6143 57.7123 56.6578 57.8486 56.6578C57.9149 56.6578 57.9804 56.6474 58.0454 56.6272L69.0175 53.1467C69.2869 53.061 69.4701 52.8104 69.4701 52.5272V49.7318L73.4084 48.4831L73.109 68.2772Z" fill="#2495FF"/>
<path d="M41.1388 33.4716L36.8051 37.1852L36.5888 36.9332C35.7285 35.9306 34.2103 35.8131 33.2077 36.6742C32.2038 37.5345 32.0869 39.0508 32.9479 40.0553L34.7246 42.1287C35.1979 42.6813 35.8707 42.9651 36.5473 42.9651C37.0992 42.9651 37.6551 42.7761 38.1057 42.3884L44.2596 37.1138C44.7466 36.6969 45.0414 36.1157 45.0901 35.4768C45.1395 34.8378 44.9369 34.2183 44.5194 33.7319C43.659 32.7268 42.1414 32.6112 41.1388 33.4716ZM43.4148 36.1281L37.2609 41.4034C36.7999 41.7956 36.1051 41.743 35.7103 41.2839L33.9337 39.2112C33.5395 38.7508 33.5927 38.0547 34.0525 37.6599C34.5135 37.2651 35.209 37.319 35.6031 37.7787L36.2414 38.5235C36.3538 38.6547 36.5135 38.7352 36.6849 38.7488C36.8635 38.7605 37.0265 38.706 37.157 38.5943L41.9837 34.4573C42.4447 34.0631 43.1382 34.1164 43.5336 34.5774C43.7246 34.8001 43.8181 35.0839 43.7953 35.3768C43.7733 35.6696 43.6382 35.9365 43.4148 36.1281Z" fill="#2495FF"/>
<path d="M42.2729 55.9417C41.9138 55.9417 41.6235 56.232 41.6235 56.5911V57.032C41.6235 57.3911 41.9138 57.6813 42.2729 57.6813C42.632 57.6813 42.9222 57.3911 42.9222 57.032V56.5911C42.9222 56.232 42.632 55.9417 42.2729 55.9417Z" fill="#2495FF"/>
<path d="M67.208 31.5747H62.4762C62.2444 31.5747 62.0301 31.4513 61.9138 31.25C61.7976 31.0494 61.7976 30.802 61.9138 30.6007L64.2801 26.5026C64.5119 26.1007 65.1729 26.1007 65.4047 26.5026L67.771 30.6007C67.8866 30.802 67.8866 31.0494 67.771 31.25C67.6547 31.4513 67.4405 31.5747 67.208 31.5747ZM63.6015 30.276H66.0833L64.8424 28.126L63.6015 30.276Z" fill="#2495FF"/>
<path d="M33.6044 62.1853H28.8726C28.6401 62.1853 28.4258 62.0619 28.3096 61.8606C28.194 61.6593 28.194 61.4125 28.3096 61.2113L30.6758 57.1132C30.9076 56.7113 31.5687 56.7113 31.8005 57.1132L34.1667 61.2113C34.283 61.4125 34.283 61.6593 34.1667 61.8606C34.0505 62.0619 33.8362 62.1853 33.6044 62.1853ZM29.9973 60.8866H32.4791L31.2382 58.7366L29.9973 60.8866Z" fill="#2495FF"/>
<path d="M75.2798 40.876C73.6551 40.876 72.333 39.5546 72.333 37.9299C72.333 36.3052 73.6551 34.9838 75.2798 34.9838C76.9044 34.9838 78.2259 36.3052 78.2259 37.9299C78.2259 39.5546 76.9044 40.876 75.2798 40.876ZM75.2798 36.2825C74.3713 36.2825 73.6317 37.0215 73.6317 37.9299C73.6317 38.8383 74.3713 39.5773 75.2798 39.5773C76.1882 39.5773 76.9272 38.8383 76.9272 37.9299C76.9272 37.0215 76.1889 36.2825 75.2798 36.2825Z" fill="#2495FF"/>
</svg>
