<svg width="101" height="100" viewBox="0 0 101 100" fill="none" xmlns="http://www.w3.org/2000/svg">
<path d="M33.9618 52.2228H29.23C28.9975 52.2228 28.7832 52.0988 28.667 51.8982C28.5514 51.6969 28.5514 51.4495 28.667 51.2488L31.0332 47.1508C31.2651 46.7482 31.9261 46.7482 32.1579 47.1508L34.5242 51.2488C34.6404 51.4495 34.6404 51.6969 34.5242 51.8982C34.4079 52.0988 34.1936 52.2228 33.9618 52.2228ZM30.3547 50.9241H32.8365L31.5956 48.7741L30.3547 50.9241Z" fill="#2495FF"/>
<path d="M36.9765 29.6298H32.2447C32.0129 29.6298 31.7986 29.5064 31.6824 29.3051C31.5662 29.1045 31.5662 28.8571 31.6824 28.6558L34.0486 24.5577C34.2804 24.1558 34.9415 24.1558 35.1733 24.5577L37.5395 28.6558C37.6551 28.8571 37.6551 29.1045 37.5395 29.3051C37.4233 29.5064 37.209 29.6298 36.9765 29.6298ZM33.3701 28.3311H35.8519L34.611 26.1811L33.3701 28.3311Z" fill="#2495FF"/>
<path d="M67.0014 56.9669C65.3767 56.9669 64.054 55.6454 64.054 54.0208C64.054 52.3961 65.3767 51.074 67.0014 51.074C68.626 51.074 69.9475 52.3961 69.9475 54.0208C69.9475 55.6454 68.626 56.9669 67.0014 56.9669ZM67.0014 52.3727C66.0923 52.3727 65.3527 53.1117 65.3527 54.0208C65.3527 54.9292 66.0923 55.6682 67.0014 55.6682C67.9098 55.6682 68.6488 54.9292 68.6488 54.0208C68.6488 53.1117 67.9098 52.3727 67.0014 52.3727Z" fill="#2495FF"/>
<path d="M62.5591 58.4475C61.7597 57.8877 60.8701 57.4481 59.9195 57.1397C59.7688 57.0897 59.6117 57.0332 59.4792 56.9838C58.6311 56.6358 57.8902 56.1001 57.2779 55.3942C56.3454 54.3163 55.8071 52.9377 55.7324 51.4371C56.9039 50.752 57.9487 49.8897 58.8253 48.8527C60.1162 47.3546 60.9974 45.563 61.4292 43.6514H62.663C64.4156 43.6514 65.8409 42.226 65.8409 40.4741V38.0682C65.8409 36.3163 64.4156 34.8903 62.663 34.8903H61.4273C61.3448 34.5312 61.2461 34.176 61.1305 33.8241C62.6831 32.5079 63.6052 30.563 63.6052 28.5182C63.6052 24.6806 60.4818 21.5585 56.6415 21.5585C53.9363 21.5585 51.526 23.091 50.374 25.4994C50.1182 25.4825 49.8682 25.4579 49.5993 25.4579C43.8195 25.4579 39 29.4143 37.7701 34.8903H36.5798C34.8273 34.8903 33.4019 36.3163 33.4019 38.0682V40.4741C33.4019 42.226 34.8273 43.6514 36.5798 43.6514H36.5824V45.2273C36.5824 48.1708 38.9773 50.5663 41.9214 50.5663H42.2169C42.6273 50.8851 43.0604 51.1741 43.5123 51.4384C43.5078 51.5351 43.5084 51.6332 43.5 51.7299C43.3967 52.9014 42.9896 54.0137 42.3208 54.9488C42.2097 55.1046 42.0915 55.2553 41.9656 55.4001C41.3558 56.1027 40.6162 56.6325 39.7617 56.978C39.6195 57.0371 39.4779 57.0903 39.3279 57.1384C38.3727 57.4481 37.4831 57.8877 36.6889 58.4436C33.9045 60.3494 32.2422 63.5059 32.2422 66.8851V74.1559C32.2422 74.515 32.5324 74.8053 32.8915 74.8053H66.3513C66.7097 74.8053 67.0006 74.515 67.0006 74.1559V66.8851C67.0006 63.5059 65.3383 60.3494 62.5591 58.4475ZM61.6753 42.1767C61.6837 42.0929 61.6909 42.0091 61.6974 41.9247C61.7221 41.6091 61.7396 41.2936 61.7396 40.9799V37.5377C61.7396 37.5338 61.7409 37.5312 61.7409 37.528C61.7409 37.5143 61.7396 37.5014 61.7396 37.4877V36.6221C61.7415 36.5884 61.7415 36.554 61.7383 36.5195C61.7285 36.4105 61.7175 36.3007 61.7039 36.189H62.663C63.6993 36.189 64.5422 37.0319 64.5422 38.0682V40.4741C64.5422 41.5105 63.6993 42.3527 62.663 42.3527H61.6604C61.6669 42.2942 61.6695 42.2351 61.6753 42.1767ZM36.5798 42.3527C35.5435 42.3527 34.7006 41.5105 34.7006 40.4741V38.0682C34.7006 37.0319 35.5435 36.189 36.5798 36.189H37.5383C37.5253 36.3007 37.5136 36.4105 37.5045 36.5195C37.5026 36.5384 37.5045 36.5559 37.5039 36.5747C37.5039 36.5754 37.5032 36.576 37.5032 36.5773V39.026C37.5032 39.0312 37.5032 39.0364 37.5032 39.0416V40.9799C37.5032 41.2929 37.5208 41.6085 37.5454 41.9241C37.5519 42.0085 37.5591 42.0929 37.5675 42.1773C37.5734 42.2358 37.576 42.2942 37.5824 42.3527H36.5798ZM56.6415 22.8572C59.7649 22.8572 62.3065 25.3968 62.3065 28.5182C62.3065 30.0273 61.6941 31.4747 60.6376 32.5299C60.4156 32.0488 60.1604 31.5864 59.8792 31.1423C59.8402 31.0799 59.798 31.0202 59.7578 30.9592C59.6545 30.802 59.5487 30.6462 59.4383 30.4949C59.3798 30.4137 59.3188 30.3345 59.2578 30.2553C59.161 30.128 59.0617 30.0033 58.9597 29.8799C58.887 29.7929 58.8143 29.7066 58.7396 29.6208C58.6435 29.5117 58.5454 29.4053 58.4454 29.2994C58.3617 29.2104 58.2785 29.1215 58.1922 29.0351C58.0967 28.9403 57.998 28.8488 57.9 28.7566C57.8052 28.6682 57.7123 28.578 57.6149 28.4923C57.5253 28.4143 57.4324 28.3403 57.3415 28.265C57.1162 28.078 56.885 27.9001 56.6467 27.7299C56.5747 27.678 56.5039 27.6234 56.4305 27.5734C56.3026 27.4858 56.1701 27.4046 56.0389 27.3215C55.9506 27.2663 55.8636 27.2098 55.7747 27.1572C55.6441 27.0799 55.511 27.0066 55.3779 26.9345C55.2831 26.8825 55.1876 26.8306 55.0915 26.7819C54.9591 26.7143 54.826 26.6494 54.6909 26.5871C54.5876 26.539 54.4837 26.4929 54.3785 26.4475C54.2467 26.3903 54.1149 26.3351 53.9805 26.2825C53.8656 26.2377 53.7487 26.1968 53.6324 26.1553C53.5052 26.1105 53.3785 26.0637 53.2493 26.0234C53.1019 25.976 52.9519 25.9358 52.8019 25.8942C52.7019 25.8669 52.6026 25.8358 52.5019 25.8105C52.2565 25.7501 52.0091 25.6962 51.7597 25.6514C52.7617 23.9306 54.5987 22.8572 56.6415 22.8572ZM38.8019 36.713C38.813 36.6611 38.8104 36.6098 38.8084 36.5579C38.8344 36.2851 38.8727 36.0169 38.9175 35.7507C38.9234 35.7182 38.9253 35.6877 38.9311 35.6553C38.9311 35.654 38.9305 35.6527 38.9311 35.6514C39.848 30.5163 44.2714 26.7566 49.5993 26.7566C49.9883 26.7566 50.3643 26.7767 50.724 26.8176C51.2844 26.8741 51.8331 26.9793 52.3688 27.1215C54.5526 27.7014 56.5019 28.9598 57.9389 30.6806C58.713 31.6092 59.3396 32.6695 59.7701 33.8319C60.2071 35.0104 60.4318 36.2423 60.4409 37.4929V39.0637C59.4169 38.5949 58.5 37.8572 57.7571 36.8871C57.5467 36.6124 57.3571 36.3286 57.1773 36.0202C56.7376 35.2669 56.4169 34.4449 56.2227 33.5754C56.1656 33.3169 55.9571 33.1202 55.6961 33.076C55.4324 33.0351 55.1734 33.152 55.0357 33.3773C54.6234 34.0501 54.1552 34.6806 53.6415 35.2533C53.426 35.4981 53.2006 35.7319 52.9682 35.9598C50.5175 38.3371 47.2831 39.6462 43.8604 39.6462C42.1078 39.6462 40.4091 39.2994 38.8019 38.6234V36.713ZM37.8811 45.2273V43.954C38.3363 45.7514 39.1935 47.4325 40.4136 48.8481C40.4688 48.9143 40.5318 48.9721 40.5883 49.0371C39.0149 48.4845 37.8811 46.9877 37.8811 45.2273ZM42.6734 49.2676C42.2188 48.8838 41.7909 48.4663 41.4013 48.0059C40.1435 46.5449 39.3097 44.7754 38.9721 42.8903C38.9721 42.8897 38.9721 42.889 38.9721 42.889C38.8591 42.2533 38.8019 41.6111 38.8019 40.9799V40.0221C40.4195 40.6325 42.1156 40.9449 43.8604 40.9449C47.6227 40.9449 51.1786 39.5059 53.8753 36.889C54.1318 36.6377 54.3792 36.3806 54.6117 36.1163C54.8714 35.8273 55.1201 35.5241 55.3578 35.2085C55.55 35.7176 55.7831 36.2072 56.0558 36.6734C56.2623 37.0293 56.4818 37.3572 56.726 37.6767C57.7266 38.9832 59.0045 39.9384 60.4409 40.4682V40.9799C60.4409 41.6111 60.3837 42.2533 60.2708 42.889C60.2708 42.889 60.2708 42.8897 60.2708 42.8903C59.9331 44.7754 59.0987 46.5462 57.8376 48.0098C56.9734 49.0325 55.9376 49.8728 54.7597 50.5085C51.6636 52.176 47.7156 52.1929 44.5993 50.5663H49.0065C49.3649 50.5663 49.6558 50.276 49.6558 49.9169C49.6558 49.5579 49.3649 49.2676 49.0065 49.2676H42.6734ZM43.2188 55.9111C43.4045 55.6702 43.5734 55.4176 43.7286 55.1566C43.7545 55.1117 43.7799 55.0676 43.8052 55.0228C43.9552 54.7572 44.0902 54.4838 44.2078 54.2014C44.226 54.1585 44.2415 54.1143 44.2591 54.0708C44.3747 53.7793 44.4753 53.4812 44.5558 53.1741C44.5643 53.1429 44.5701 53.1105 44.5779 53.0786C44.6584 52.7546 44.7234 52.4247 44.7643 52.0877C44.8019 52.104 44.8415 52.1143 44.8792 52.1306C46.3708 52.7617 47.9889 53.0975 49.6214 53.0975C51.25 53.0975 52.8643 52.763 54.3539 52.1345C54.3935 52.1176 54.435 52.1066 54.4747 52.0897C54.4753 52.0929 54.476 52.0962 54.4766 52.0994C54.5156 52.4215 54.5779 52.7377 54.6545 53.0494C54.6656 53.0923 54.6734 53.1351 54.6844 53.1773C54.761 53.4669 54.8571 53.7494 54.9662 54.0267C54.9909 54.0903 55.0143 54.1533 55.0409 54.2163C55.15 54.4754 55.2747 54.728 55.4117 54.9734C55.4526 55.0468 55.4941 55.1189 55.537 55.1903C55.6773 55.4234 55.8285 55.6488 55.9935 55.8663C56.0162 55.8968 56.0337 55.9312 56.0578 55.9611L55.737 56.926C54.6532 60.1916 52.4896 63.0079 49.6214 64.8975C46.7532 63.0079 44.5889 60.1916 43.5052 56.926L43.185 55.9611C43.1974 55.9455 43.2065 55.9273 43.2188 55.9111ZM65.7019 73.5066H59.985C61.0578 72.5592 61.7396 71.1773 61.7396 69.6371C61.7396 68.0189 61.0026 66.5247 59.7182 65.5371C59.4344 65.3182 59.026 65.3721 58.8078 65.6559C58.5889 65.9403 58.6422 66.3481 58.9266 66.5669C59.8889 67.3059 60.4409 68.4254 60.4409 69.6371C60.4409 71.7708 58.7045 73.5066 56.5708 73.5066H42.6721C40.5383 73.5066 38.8019 71.7708 38.8019 69.6371C38.8019 68.4254 39.3539 67.3059 40.3156 66.5669C40.6 66.3481 40.6532 65.9403 40.435 65.6559C40.2162 65.3721 39.8084 65.3189 39.5247 65.5371C38.2402 66.5247 37.5032 68.0189 37.5032 69.6371C37.5032 71.1773 38.1844 72.5592 39.2571 73.5066H33.5409V66.8851C33.5409 63.9345 34.9922 61.1793 37.4279 59.5111C38.1214 59.026 38.8954 58.6429 39.7253 58.3747C39.9078 58.3163 40.0837 58.2507 40.2539 58.1793C40.9571 57.8955 41.5928 57.4988 42.1649 57.0117L42.2727 57.3358C43.4948 61.0176 45.9824 64.1728 49.2785 66.2202C49.3837 66.2858 49.5026 66.3182 49.6214 66.3182C49.7402 66.3182 49.8591 66.2858 49.9643 66.2202C53.2597 64.1728 55.748 61.0176 56.9701 57.3358L57.0792 57.0059C57.6558 57.4962 58.3013 57.904 59.0039 58.1923C59.1708 58.2546 59.3441 58.3169 59.5149 58.3734C60.3474 58.6429 61.1214 59.026 61.8201 59.515C64.2506 61.1793 65.7019 63.9345 65.7019 66.8851V73.5066Z" fill="#2495FF"/>
<path d="M47.7246 30.2908C48.0726 30.2038 48.2837 29.8512 48.1966 29.5031C48.1096 29.1557 47.7564 28.946 47.409 29.0317C45.2044 29.5843 43.3259 30.9454 42.1187 32.8622C41.9272 33.1661 42.0187 33.5668 42.322 33.7583C42.4298 33.8259 42.5492 33.8577 42.6674 33.8577C42.883 33.8577 43.094 33.7506 43.2174 33.5551C44.246 31.9213 45.8466 30.7622 47.7246 30.2908Z" fill="#2495FF"/>
<path d="M41.663 35.4623C41.3085 35.3954 40.9721 35.6324 40.9078 35.985C40.8585 36.2558 40.8214 36.5305 40.7974 36.8097C40.7662 37.1675 41.0305 37.4818 41.3877 37.5129C41.4072 37.5149 41.426 37.5155 41.4448 37.5155C41.7779 37.5155 42.0617 37.261 42.0909 36.9227C42.1117 36.6837 42.1435 36.4487 42.1857 36.2168C42.2494 35.8642 42.0156 35.5266 41.663 35.4623Z" fill="#2495FF"/>
<path d="M46.1358 41.25C44.9877 41.25 44.054 42.1838 44.054 43.3312C44.054 43.6903 44.3449 43.9805 44.7033 43.9805C45.0617 43.9805 45.3527 43.6903 45.3527 43.3312C45.3527 42.9 45.704 42.5487 46.1358 42.5487C46.5669 42.5487 46.9182 42.9 46.9182 43.3312C46.9182 43.6903 47.2091 43.9805 47.5676 43.9805C47.9267 43.9805 48.2169 43.6903 48.2169 43.3312C48.2169 42.1838 47.2832 41.25 46.1358 41.25Z" fill="#2495FF"/>
<path d="M51.6755 43.9805C52.0339 43.9805 52.3248 43.6903 52.3248 43.3312C52.3248 42.9 52.6761 42.5487 53.1073 42.5487C53.5391 42.5487 53.8904 42.9 53.8904 43.3312C53.8904 43.6903 54.1807 43.9805 54.5398 43.9805C54.8982 43.9805 55.1891 43.6903 55.1891 43.3312C55.1891 42.1838 54.2553 41.25 53.1073 41.25C51.9592 41.25 51.0261 42.1838 51.0261 43.3312C51.0261 43.6903 51.3164 43.9805 51.6755 43.9805Z" fill="#2495FF"/>
</svg>
