<svg width="18" height="15" viewBox="0 0 18 15" fill="none" xmlns="http://www.w3.org/2000/svg">
<path d="M0.685547 7.32556C0.685547 7.0531 0.799805 6.78943 1.00195 6.59607L6.77637 0.821655C7.00488 0.601929 7.24219 0.505249 7.48828 0.505249C8.05078 0.505249 8.45508 0.900757 8.45508 1.43689C8.45508 1.71814 8.34082 1.95544 8.16504 2.13123L6.1875 4.13513L3.63867 6.46423L5.67773 6.34119H16.3301C16.9189 6.34119 17.3232 6.74548 17.3232 7.32556C17.3232 7.89685 16.9189 8.30115 16.3301 8.30115H5.67773L3.63867 8.1781L6.1875 10.5072L8.16504 12.5111C8.34082 12.6869 8.45508 12.9242 8.45508 13.2054C8.45508 13.7416 8.05078 14.1371 7.48828 14.1371C7.24219 14.1371 7.00488 14.0404 6.79395 13.8383L1.00195 8.04626C0.799805 7.85291 0.685547 7.58923 0.685547 7.32556Z" fill="black"/>
</svg>
