<svg width="18" height="14" viewBox="0 0 18 14" fill="none" xmlns="http://www.w3.org/2000/svg">
<path d="M17.3145 7.03455C17.3145 7.30701 17.2002 7.57068 16.998 7.76404L11.2236 13.5385C10.9951 13.7582 10.7578 13.8549 10.5117 13.8549C9.94922 13.8549 9.54492 13.4594 9.54492 12.9232C9.54492 12.642 9.65918 12.4047 9.83496 12.2289L11.8125 10.225L14.3613 7.89588L12.3223 8.01892L1.66992 8.01892C1.08106 8.01892 0.676759 7.61462 0.676759 7.03455C0.676759 6.46326 1.08106 6.05896 1.66992 6.05896L12.3223 6.05896L14.3613 6.18201L11.8125 3.85291L9.83496 1.849C9.65918 1.67322 9.54492 1.43591 9.54492 1.15466C9.54492 0.618532 9.94922 0.223024 10.5117 0.223024C10.7578 0.223024 10.9951 0.319704 11.2061 0.521852L16.998 6.31385C17.2002 6.50721 17.3145 6.77088 17.3145 7.03455Z" fill="black"/>
</svg>
