<svg width="19" height="19" viewBox="0 0 19 19" fill="none" xmlns="http://www.w3.org/2000/svg">
<path d="M9.66113 18.7422C14.6445 18.7422 18.7578 14.6289 18.7578 9.6543C18.7578 4.67969 14.6357 0.566406 9.65234 0.566406C4.67773 0.566406 0.573242 4.67969 0.573242 9.6543C0.573242 14.6289 4.68652 18.7422 9.66113 18.7422ZM9.66113 16.9316C5.62695 16.9316 2.40137 13.6885 2.40137 9.6543C2.40137 5.62012 5.62695 2.38574 9.65234 2.38574C13.6865 2.38574 16.9297 5.62012 16.9385 9.6543C16.9473 13.6885 13.6953 16.9316 9.66113 16.9316ZM14.1963 9.6543C14.1963 9.41699 14.1084 9.22363 13.9062 9.03027L10.918 6.08594C10.7773 5.94531 10.6016 5.875 10.3906 5.875C9.97754 5.875 9.67871 6.18262 9.67871 6.5957C9.67871 6.81543 9.77539 7 9.90723 7.13184L10.9707 8.15137L11.9551 8.95117L10.1621 8.86328H5.87305C5.4248 8.86328 5.1084 9.19727 5.1084 9.6543C5.1084 10.1025 5.4248 10.4453 5.87305 10.4453H10.1621L11.9639 10.3662L10.9795 11.1572L9.90723 12.1768C9.75781 12.3086 9.67871 12.4932 9.67871 12.7129C9.67871 13.126 9.97754 13.4424 10.3906 13.4424C10.6016 13.4424 10.7773 13.3633 10.918 13.2227L13.9062 10.2871C14.0996 10.0938 14.1963 9.90039 14.1963 9.6543Z" fill="#DBADAA"/>
</svg>
