<svg width="21" height="20" viewBox="0 0 21 20" fill="none" xmlns="http://www.w3.org/2000/svg">
<style>
    .svg-fill {
        fill: #000;
    }
</style>
<path d="M10.9902 20C16.4738 20 20.9999 15.4739 20.9999 10C20.9999 4.52611 16.4641 0 10.9806 0C5.50668 0 0.990234 4.52611 0.990234 10C0.990234 15.4739 5.51635 20 10.9902 20ZM10.9902 18.0077C6.55116 18.0077 3.00184 14.4391 3.00184 10C3.00184 5.56093 6.55116 2.00193 10.9806 2.00193C15.4196 2.00193 18.9883 5.56093 18.998 10C19.0076 14.4391 15.4293 18.0077 10.9902 18.0077ZM8.82389 14.7679C9.10435 15.0484 9.67495 15.029 9.97476 14.7389L13.9109 11.0348C14.5009 10.4932 14.5009 9.53578 13.9109 8.9942L9.97476 5.29014C9.64594 4.98066 9.14304 4.97099 8.83356 5.26112C8.49507 5.58027 8.4854 6.12186 8.81422 6.43133L12.6343 10.0097L8.81422 13.5977C8.49507 13.9072 8.4854 14.4391 8.82389 14.7679Z" class="svg-fill"/>
</svg>
