<svg width="28" height="24" viewBox="0 0 28 24" fill="none" xmlns="http://www.w3.org/2000/svg">
<path d="M9.8335 17.9579H23.8435C24.4092 17.9579 24.9268 17.5125 24.9268 16.8746C24.9268 16.2487 24.4092 15.8034 23.8435 15.8034H10.1103C9.5326 15.8034 9.17151 15.4062 9.08726 14.7924L8.90672 13.5406H23.9398C25.7813 13.5406 26.7563 12.4213 27.0211 10.5918L27.9238 4.56169C27.9478 4.40522 27.9719 4.2006 27.9719 4.0682C27.9719 3.35807 27.4784 2.87663 26.6479 2.87663H7.35406L7.17352 1.57673C7.01705 0.529589 6.59579 0 5.25978 0H1.13139C0.529589 0 0 0.529589 0 1.14343C0 1.76931 0.529589 2.2989 1.13139 2.2989H4.8987L6.76429 15.0331C7.02909 16.8506 7.99198 17.9579 9.8335 17.9579ZM25.4684 5.03109L24.7101 10.3751C24.6138 10.989 24.2889 11.3741 23.6991 11.3741L8.59378 11.3862L7.667 5.03109H25.4684ZM10.8205 24C11.988 24 12.9268 23.0612 12.9268 21.8937C12.9268 20.7262 11.988 19.7874 10.8205 19.7874C9.65296 19.7874 8.71414 20.7262 8.71414 21.8937C8.71414 23.0612 9.65296 24 10.8205 24ZM21.9418 24C23.1093 24 24.0361 23.0612 24.0361 21.8937C24.0361 20.7262 23.1093 19.7874 21.9418 19.7874C20.7743 19.7874 19.8235 20.7262 19.8235 21.8937C19.8235 23.0612 20.7743 24 21.9418 24Z" fill="black"/>
</svg>
