<svg width="26" height="24" viewBox="0 0 26 24" fill="none" xmlns="http://www.w3.org/2000/svg">
<path d="M4.81055 23.7674C5.3454 24.1686 6.00282 24.0349 6.76052 23.4889L12.5547 19.2323L18.3378 23.4889C19.0955 24.0349 19.7529 24.1686 20.2878 23.7674C20.8115 23.3663 20.9229 22.7089 20.6221 21.8286L18.3378 15.0315L24.1766 10.8419C24.9343 10.307 25.2463 9.70532 25.0346 9.08132C24.8229 8.45733 24.2323 8.14533 23.2963 8.15648L16.1427 8.21219L13.9587 1.37056C13.669 0.479137 13.2122 0 12.5547 0C11.8862 0 11.4293 0.479137 11.1396 1.37056L8.96678 8.21219L1.80201 8.15648C0.86602 8.14533 0.275456 8.45733 0.0637437 9.07018C-0.147968 9.70532 0.175171 10.307 0.921734 10.8419L6.76052 15.0315L4.47626 21.8286C4.17541 22.7089 4.28684 23.3663 4.81055 23.7674ZM6.80509 21.0375C6.78281 21.0152 6.78281 21.004 6.80509 20.9372L8.91107 14.9981C9.1005 14.441 9.04478 14.1067 8.52107 13.7613L3.31742 10.1956C3.27285 10.1622 3.25056 10.1399 3.27285 10.1176C3.28399 10.0842 3.30628 10.0842 3.36199 10.0842L9.66877 10.229C10.2482 10.2513 10.5491 10.0619 10.7162 9.4936L12.4879 3.45425C12.5102 3.38739 12.5213 3.3651 12.5547 3.3651C12.577 3.3651 12.5993 3.38739 12.6105 3.45425L14.3821 9.4936C14.5493 10.0619 14.8501 10.2513 15.4407 10.229L21.7364 10.0842C21.8032 10.0842 21.8255 10.0842 21.8366 10.1176C21.8478 10.1399 21.8255 10.1622 21.7809 10.1956L16.5773 13.7613C16.0647 14.1067 15.9978 14.441 16.1984 14.9981L18.2932 20.9372C18.3155 21.004 18.3155 21.0152 18.2932 21.0375C18.2821 21.0598 18.2487 21.0486 18.2041 21.0152L13.2122 17.1598C12.7442 16.8032 12.3542 16.8032 11.8862 17.1598L6.89424 21.0152C6.84967 21.0486 6.82738 21.0598 6.80509 21.0375Z" fill="black"/>
</svg>
