<svg width="36" height="35" viewBox="0 0 36 35" fill="none" xmlns="http://www.w3.org/2000/svg">
<path d="M18.0016 0.0275879C13.2614 0.0275879 12.6665 0.0483155 10.8047 0.133043C8.94662 0.218134 7.67829 0.512315 6.56851 0.943952C5.42054 1.38977 4.44675 1.98613 3.4766 2.95668C2.50572 3.92686 1.90937 4.90068 1.46211 6.04831C1.0294 7.1585 0.734864 8.42722 0.65123 10.2847C0.56796 12.1465 0.546143 12.7418 0.546143 17.4821C0.546143 22.2225 0.567233 22.8156 0.651594 24.6774C0.737046 26.5356 1.03122 27.8039 1.46248 28.9138C1.90865 30.0618 2.50499 31.0356 3.47551 32.0058C4.4453 32.9767 5.41909 33.5745 6.56632 34.0203C7.67684 34.452 8.94552 34.7461 10.8033 34.8312C12.665 34.916 13.2596 34.9367 17.9994 34.9367C22.74 34.9367 23.3331 34.916 25.1949 34.8312C27.053 34.7461 28.3228 34.452 29.4333 34.0203C30.5809 33.5745 31.5532 32.9767 32.523 32.0058C33.4939 31.0356 34.0902 30.0618 34.5375 28.9141C34.9666 27.804 35.2611 26.5352 35.3484 24.6778C35.432 22.816 35.4538 22.2225 35.4538 17.4821C35.4538 12.7418 35.432 12.1469 35.3484 10.285C35.2611 8.42686 34.9666 7.1585 34.5375 6.04868C34.0902 4.90068 33.4939 3.92686 32.523 2.95668C31.5521 1.98577 30.5812 1.38941 29.4322 0.943952C28.3195 0.512315 27.0504 0.218134 25.1923 0.133043C23.3305 0.0483155 22.7378 0.0275879 17.9962 0.0275879H18.0016ZM16.4358 3.17304C16.9006 3.17231 17.4191 3.17304 18.0016 3.17304C22.6618 3.17304 23.2142 3.18977 25.0545 3.27341C26.7563 3.35122 27.6799 3.63559 28.2951 3.8745C29.1096 4.19086 29.6904 4.56904 30.3009 5.17995C30.9118 5.79086 31.2899 6.37268 31.607 7.18722C31.8459 7.80177 32.1306 8.72541 32.2081 10.4272C32.2917 12.2672 32.3099 12.82 32.3099 17.4781C32.3099 22.1363 32.2917 22.689 32.2081 24.529C32.1303 26.2309 31.8459 27.1545 31.607 27.769C31.2907 28.5836 30.9118 29.1636 30.3009 29.7741C29.69 30.385 29.11 30.7632 28.2951 31.0796C27.6806 31.3196 26.7563 31.6032 25.0545 31.681C23.2145 31.7647 22.6618 31.7829 18.0016 31.7829C13.341 31.7829 12.7887 31.7647 10.9487 31.681C9.24697 31.6025 8.32336 31.3181 7.70774 31.0792C6.89322 30.7629 6.31142 30.3847 5.70053 29.7738C5.08964 29.1629 4.71147 28.5825 4.39439 27.7676C4.15549 27.153 3.87077 26.2294 3.79332 24.5276C3.70968 22.6876 3.69296 22.1349 3.69296 17.4738C3.69296 12.8127 3.70968 12.2629 3.79332 10.4229C3.87113 8.72104 4.15549 7.79741 4.39439 7.18213C4.71074 6.36759 5.08964 5.78577 5.70053 5.17486C6.31142 4.56395 6.89322 4.18577 7.70774 3.86868C8.323 3.62868 9.24697 3.34504 10.9487 3.26686C12.5589 3.19413 13.1829 3.17232 16.4358 3.16868V3.17304ZM27.3184 6.07122C26.1621 6.07122 25.2239 7.00831 25.2239 8.16504C25.2239 9.32141 26.1621 10.2596 27.3184 10.2596C28.4748 10.2596 29.4129 9.32141 29.4129 8.16504C29.4129 7.00868 28.4748 6.0705 27.3184 6.0705V6.07122ZM18.0016 8.5185C13.0516 8.5185 9.03825 12.532 9.03825 17.4821C9.03825 22.4323 13.0516 26.4439 18.0016 26.4439C22.9516 26.4439 26.9635 22.4323 26.9635 17.4821C26.9635 12.532 22.9513 8.5185 18.0012 8.5185H18.0016ZM18.0016 11.664C21.2146 11.664 23.8196 14.2687 23.8196 17.4821C23.8196 20.6952 21.2146 23.3003 18.0016 23.3003C14.7883 23.3003 12.1836 20.6952 12.1836 17.4821C12.1836 14.2687 14.7883 11.664 18.0016 11.664Z" fill="white"/>
</svg>
