<svg width="25" height="26" viewBox="0 0 25 26" fill="none" xmlns="http://www.w3.org/2000/svg">
<path fill-rule="evenodd" clip-rule="evenodd" d="M6.6321 0.644531C3.12539 0.644531 0.286621 3.51615 0.286621 7.06345V19.2256C0.286621 22.7729 3.12539 25.6445 6.6321 25.6445H18.6551C22.1618 25.6445 25.0006 22.7729 25.0006 19.2256V7.06345C25.0006 3.51615 22.1618 0.644531 18.6551 0.644531H6.6321ZM6.63205 2.67124H18.6551C21.0931 2.67124 22.9967 4.59692 22.9967 7.06314V19.2253C22.9967 21.6915 21.0931 23.6172 18.6551 23.6172H6.63205C4.19405 23.6172 2.29041 21.6915 2.29041 19.2253V7.06314C2.29041 4.59692 4.19405 2.67124 6.63205 2.67124ZM17.987 6.04991C17.987 5.30667 18.5882 4.69856 19.3229 4.69856C20.0577 4.69856 20.6588 5.30667 20.6588 6.04991C20.6588 6.79316 20.0577 7.40126 19.3229 7.40126C18.5882 7.40126 17.987 6.79316 17.987 6.04991ZM12.6436 7.06316C9.33727 7.06316 6.63209 9.79965 6.63209 13.1442C6.63209 16.4888 9.33727 19.2253 12.6436 19.2253C15.9499 19.2253 18.6551 16.4888 18.6551 13.1442C18.6551 9.79965 15.9499 7.06316 12.6436 7.06316ZM16.6512 13.1445C16.6512 10.881 14.8812 9.09048 12.6435 9.09048C10.4059 9.09048 8.63588 10.881 8.63588 13.1445C8.63588 15.408 10.4059 17.1986 12.6435 17.1986C14.8812 17.1986 16.6512 15.408 16.6512 13.1445Z" fill="black"/>
</svg>
