<svg width="21" height="21" viewBox="0 0 21 21" fill="none" xmlns="http://www.w3.org/2000/svg">
<path d="M19.2882 14.397L16.9991 12.114C16.5471 11.6463 16.0007 11.4009 15.4217 11.4009C14.8466 11.4009 14.2964 11.6463 13.8309 12.1083L12.6382 13.2967C12.5786 13.266 12.5209 13.2373 12.467 13.2105C12.3266 13.1414 12.1919 13.0724 12.0765 12.9996C10.8666 12.2348 9.76431 11.2322 8.70439 9.93836C8.23695 9.34988 7.91377 8.85533 7.67909 8.36844C7.9811 8.08666 8.2658 7.79913 8.53511 7.5231C8.6486 7.40809 8.76787 7.28925 8.88329 7.17423C9.36035 6.69885 9.61235 6.14488 9.61235 5.57365C9.61235 4.99859 9.36035 4.44461 8.88329 3.97306L7.74642 2.84019C7.61753 2.71176 7.49442 2.58717 7.36746 2.4549L7.36169 2.44915C7.11354 2.19421 6.84616 1.92393 6.57877 1.67665C6.12479 1.23386 5.58233 1 5.00908 1C4.43968 1 3.89145 1.23577 3.424 1.68049L1.99089 3.10856C1.41188 3.67978 1.08486 4.37752 1.01753 5.18261C0.940588 6.14104 1.11564 7.15315 1.56769 8.36269C2.24866 10.2067 3.27396 11.9127 4.79363 13.7318C6.63456 15.9247 8.85828 17.6595 11.3994 18.8882L11.4013 18.8901C12.3843 19.354 13.7001 19.8984 15.1563 19.9923H15.1736C15.2582 19.9962 15.3448 20 15.4371 20C16.4817 20 17.3242 19.6396 18.0109 18.8978C18.0225 18.8844 18.0379 18.869 18.0533 18.848C18.2456 18.6199 18.4649 18.4052 18.6996 18.1809L18.7535 18.1291C18.9728 17.9202 19.1459 17.7477 19.2998 17.5886C19.7595 17.1113 20.0019 16.5573 20 15.9842C20 15.4091 19.7538 14.8609 19.2882 14.397V14.397ZM2.60453 5.31679C2.64301 4.88166 2.80652 4.53471 3.11622 4.22609L4.53394 2.81336C4.68976 2.66384 4.85327 2.58333 5.00523 2.58333C5.1899 2.58333 5.35341 2.70985 5.45729 2.81527L5.46883 2.82678C5.68428 3.02613 5.89203 3.23699 6.11133 3.45934L6.21136 3.56094C6.27676 3.62803 6.34409 3.69512 6.41141 3.76412C6.47682 3.8293 6.54222 3.89639 6.60762 3.96348L7.74834 5.10018C7.86761 5.21903 8.00996 5.39921 8.00996 5.5794C8.00996 5.75958 7.86761 5.93977 7.74834 6.05862C7.68871 6.11804 7.62908 6.17746 7.56944 6.2388C7.51173 6.29823 7.4521 6.35765 7.39247 6.41707L7.31168 6.49758C6.99043 6.82153 6.68457 7.12823 6.35563 7.42151L6.32293 7.4541C5.8247 7.95057 5.99591 8.46429 6.05169 8.63297C6.05554 8.64639 6.05939 8.65597 6.06323 8.66747L6.07093 8.68664C6.38256 9.43039 6.80961 10.1243 7.45595 10.9351L7.45787 10.937C8.62167 12.367 9.84895 13.4807 11.2128 14.3452C11.3629 14.443 11.5148 14.5197 11.6629 14.5925C11.6899 14.6059 11.7187 14.6194 11.7457 14.6347L11.7476 14.6366C11.888 14.7056 12.0227 14.7746 12.1381 14.8475L12.1727 14.8666C12.1842 14.8724 12.1958 14.88 12.2073 14.8858C12.3766 14.9721 12.5517 15.0161 12.7267 15.0161C13.023 15.0161 13.2923 14.8973 13.5269 14.6615L14.9543 13.2392C15.0659 13.128 15.2351 12.9977 15.4198 12.9977C15.6083 12.9977 15.7718 13.1434 15.8545 13.2315L15.8584 13.2354L18.1629 15.5279C18.4938 15.8576 18.488 16.149 18.1475 16.5017L18.1437 16.5055C17.9821 16.6781 17.8109 16.8429 17.6493 16.9982L17.6031 17.0423C17.3454 17.2915 17.0799 17.5483 16.8318 17.8435C16.4547 18.2461 16.0258 18.4243 15.441 18.4243C15.3871 18.4243 15.3255 18.4205 15.264 18.4167C14.0694 18.34 12.9441 17.8704 12.0958 17.4678C9.76047 16.3407 7.71564 14.7459 6.02092 12.7255C4.62243 11.0482 3.6837 9.48981 3.06236 7.82022C2.69495 6.83495 2.54683 6.03753 2.60453 5.31679V5.31679Z" fill="black" stroke="white" stroke-width="0.25"/>
</svg>
