<svg width="27" height="25" viewBox="0 0 27 25" fill="none" xmlns="http://www.w3.org/2000/svg">
<path fill-rule="evenodd" clip-rule="evenodd" d="M24.6408 1.94404C24.6614 1.84097 24.5567 1.7578 24.461 1.80116L2.67262 11.6676L7.20478 13.6099L20.6095 4.82754C20.9496 4.60473 21.4015 4.66445 21.672 4.96795C21.9426 5.27145 21.9502 5.72725 21.6899 6.03959L12.7443 16.7743L20.346 22.4756C20.422 22.5325 20.5314 22.4908 20.55 22.3976L24.6408 1.94404ZM12.0769 18.3257L12.6122 18.7272L11.8348 19.3747L12.0769 18.3257ZM9.99202 20.0596L10.7609 16.728C10.7898 16.6026 10.8477 16.4859 10.9301 16.3871L16.9049 9.21726L8.26483 14.878L9.99202 20.0596ZM6.62411 15.1471L1.70076 13.0371C0.513367 12.5282 0.496324 10.851 1.67314 10.3181L23.7838 0.305724C25.0975 -0.289162 26.5333 0.851865 26.2505 2.26599L22.1598 22.7196C21.9043 23.997 20.4033 24.5705 19.3611 23.7889L13.962 19.7395L11.0703 22.1478C10.4838 22.8947 9.1708 22.7872 8.82337 21.7449L6.62411 15.1471Z" fill="black"/>
</svg>
