<svg width="25" height="25" viewBox="0 0 25 25" fill="none" xmlns="http://www.w3.org/2000/svg">
<path fill-rule="evenodd" clip-rule="evenodd" d="M21.3912 3.6363C19.1402 1.38451 16.1387 0.147461 12.9426 0.147461C6.36117 0.147461 0.999831 5.48332 0.994103 12.0334C0.994103 14.1313 1.54398 16.1722 2.58647 17.9793L0.896729 24.1417L7.23181 22.4885C8.97883 23.4349 10.9435 23.9365 12.9426 23.9365H12.9483C19.5297 23.9365 24.891 18.6007 24.8967 12.0448C24.891 8.86955 23.648 5.88237 21.3912 3.6363ZM12.9426 21.9242C11.1554 21.9242 9.40842 21.4453 7.8848 20.5446L7.52394 20.328L3.76642 21.3085L4.7688 17.66L4.53396 17.2838C3.5373 15.7104 3.01606 13.8919 3.01606 12.0277C3.01606 6.58926 7.47238 2.15411 12.9483 2.15411C15.6003 2.15411 18.092 3.18594 19.9707 5.05007C21.8437 6.9199 22.8748 9.39971 22.8748 12.0391C22.869 17.4947 18.4127 21.9242 12.9426 21.9242ZM18.3898 14.5246C18.092 14.3764 16.6256 13.6581 16.3507 13.5555C16.0757 13.4586 15.8752 13.4073 15.6805 13.7037C15.48 14.0002 14.9072 14.6729 14.7354 14.8667C14.5636 15.0662 14.386 15.089 14.0881 14.9408C13.7903 14.7926 12.828 14.479 11.6881 13.4643C10.8003 12.6776 10.2046 11.7028 10.027 11.4064C9.8552 11.1099 10.0099 10.9503 10.1588 10.8021C10.2905 10.671 10.4566 10.4543 10.6056 10.2833C10.7545 10.1123 10.806 9.98689 10.9034 9.78736C11.0008 9.58784 10.955 9.41681 10.8805 9.2686C10.806 9.12038 10.2103 7.6553 9.9583 7.06242C9.71773 6.48095 9.47143 6.56076 9.28814 6.55506C9.1163 6.54366 8.91582 6.54366 8.71534 6.54366C8.51487 6.54366 8.1941 6.61777 7.91916 6.9142C7.64422 7.21064 6.87668 7.92893 6.87668 9.39401C6.87668 10.8591 7.9478 12.2672 8.09673 12.4667C8.24565 12.6662 10.1989 15.6648 13.1946 16.9532C13.9048 17.261 14.4605 17.4434 14.8958 17.5802C15.6118 17.8083 16.259 17.7741 16.7745 17.6999C17.3473 17.6144 18.5387 16.9817 18.7908 16.2862C19.0371 15.5907 19.0371 14.9978 18.9626 14.8724C18.8881 14.747 18.6877 14.6729 18.3898 14.5246Z" fill="black"/>
</svg>
