<svg width="4" height="8" viewBox="0 0 4 8" fill="none" xmlns="http://www.w3.org/2000/svg">
<path d="M4 3.99992C4 3.83673 3.94307 3.70391 3.81025 3.57867L0.899431 0.732369C0.800759 0.629902 0.679317 0.580566 0.531309 0.580566C0.239089 0.580566 0 0.815861 0 1.10808C0 1.25229 0.0607211 1.38512 0.166983 1.49138L2.74763 3.99613L0.166983 6.50846C0.0607211 6.61093 0 6.74375 0 6.89176C0 7.18398 0.239089 7.41928 0.531309 7.41928C0.675522 7.41928 0.800759 7.36994 0.899431 7.26747L3.81025 4.42117C3.94307 4.29594 4 4.15931 4 3.99992Z" fill="black"/>
</svg>
