<svg width="16" height="16" viewBox="0 0 16 16" fill="none" xmlns="http://www.w3.org/2000/svg">
<path fill-rule="evenodd" clip-rule="evenodd" d="M10.9207 4.66671L12.1489 7.1232L13.9993 8.35683V10.6667H13.2189C12.9444 9.88991 12.2035 9.33337 11.3327 9.33337C10.4619 9.33337 9.72109 9.88991 9.44653 10.6667H6.55221C6.27765 9.88991 5.53683 9.33337 4.66602 9.33337C3.7952 9.33337 3.05438 9.88991 2.77982 10.6667H1.99935V4.66671H10.9207ZM13.9993 12H13.2189C12.9444 12.7768 12.2035 13.3334 11.3327 13.3334C10.4619 13.3334 9.72109 12.7768 9.44653 12H6.55221C6.27766 12.7768 5.53683 13.3334 4.66602 13.3334C3.7952 13.3334 3.05438 12.7768 2.77982 12H1.99935C1.26297 12 0.666016 11.4031 0.666016 10.6667V4.66671C0.666016 3.93033 1.26297 3.33337 1.99935 3.33337H10.9207C11.4257 3.33337 11.8874 3.61871 12.1132 4.07042L13.1831 6.21021L15.3327 7.64325V10.6667C15.3327 11.4031 14.7357 12 13.9993 12ZM5.33264 11.3334C5.33264 11.7016 5.03416 12 4.66597 12C4.29778 12 3.9993 11.7016 3.9993 11.3334C3.9993 10.9652 4.29778 10.6667 4.66597 10.6667C5.03416 10.6667 5.33264 10.9652 5.33264 11.3334ZM11.9993 11.3334C11.9993 11.7016 11.7009 12 11.3327 12C10.9645 12 10.666 11.7016 10.666 11.3334C10.666 10.9652 10.9645 10.6667 11.3327 10.6667C11.7009 10.6667 11.9993 10.9652 11.9993 11.3334Z" fill="#242424"/>
</svg>
