<svg width="16" height="16" viewBox="0 0 16 16" fill="none" xmlns="http://www.w3.org/2000/svg">
<path fill-rule="evenodd" clip-rule="evenodd" d="M5.99935 2.66663H13.9993C14.7357 2.66663 15.3327 3.26358 15.3327 3.99996V12.6666C15.3327 13.403 14.7357 14 13.9993 14H5.99935H4.66602H1.99935C1.26297 14 0.666016 13.403 0.666016 12.6666V3.99996C0.666016 3.26358 1.26297 2.66663 1.99935 2.66663H4.66602H5.99935ZM4.66602 3.99996H1.9993V5.99996H4.66602V3.99996ZM5.99935 5.99996V3.99996H13.9993V5.99996H5.99935ZM4.66602 7.33329H1.9993V9.33329H4.66602V7.33329ZM5.99935 9.33329V7.33329H13.9993V9.33329H5.99935ZM4.66602 10.6666H1.9993V12.6666H4.66602V10.6666ZM5.99935 12.6666V10.6666H13.9993V12.6666H5.99935Z" fill="#242424"/>
</svg>
