<svg width="80" height="80" viewBox="0 0 80 80" fill="none" xmlns="http://www.w3.org/2000/svg">
<circle opacity="0.1" cx="40" cy="40" r="40" fill="#2266FF"/>
<path fill-rule="evenodd" clip-rule="evenodd" d="M39.9998 31C43.8658 31 46.9998 34.134 46.9998 38C46.9998 41.866 43.8658 45 39.9998 45C36.1338 45 32.9998 41.866 32.9998 38C32.9998 34.134 36.1338 31 39.9998 31ZM40.9998 47.9503V48.9997H42.9998V50.9997H36.9998V48.9997H38.9998V47.9501C36.713 47.7225 34.5971 46.7189 32.9727 45.1144L34.3781 43.6915C35.8664 45.1615 37.8656 45.9997 39.9998 45.9997C44.4181 45.9997 47.9998 42.418 47.9998 37.9997C47.9998 35.8994 47.1883 33.9294 45.7596 32.4477L47.1993 31.0595C48.9839 32.9103 49.9998 35.3763 49.9998 37.9997C49.9998 43.185 46.0531 47.4486 40.9998 47.9503ZM35 38C35 35.2386 37.2386 33 40 33C42.7614 33 45 35.2386 45 38C45 40.7614 42.7614 43 40 43C37.2386 43 35 40.7614 35 38Z" fill="black"/>
</svg>
