<svg width="10" height="9" viewBox="0 0 10 9" fill="none" xmlns="http://www.w3.org/2000/svg">
<path d="M0.494141 4.26391C0.494141 4.48862 0.659906 4.66912 0.928813 4.66912C1.05037 4.66912 1.16825 4.6065 1.27139 4.52177L1.64344 4.20866V7.56448C1.64344 8.13545 1.98971 8.47803 2.5791 8.47803H7.56678C8.15616 8.47803 8.50243 8.13545 8.50243 7.56448V4.19392L8.8929 4.52177C8.99604 4.6065 9.11392 4.66912 9.23916 4.66912C9.48597 4.66912 9.67015 4.5144 9.67015 4.27128C9.67015 4.1313 9.61121 4.01343 9.5007 3.92133L8.50243 3.08146V1.47538C8.50243 1.30961 8.3956 1.1991 8.22984 1.1991H7.63308C7.46732 1.1991 7.35313 1.30961 7.35313 1.47538V2.11634L5.66969 0.70181C5.31606 0.403433 4.85928 0.403433 4.50197 0.70181L0.663589 3.92133C0.553079 4.01711 0.494141 4.14235 0.494141 4.26391ZM6.13752 5.26219C6.13752 5.08906 6.02701 4.97855 5.85387 4.97855H4.31779C4.14097 4.97855 4.02678 5.08906 4.02678 5.26219V7.63447H2.83327C2.60856 7.63447 2.48332 7.50922 2.48332 7.28084V3.5014L4.90349 1.47538C5.01768 1.37592 5.15029 1.37592 5.26817 1.47538L7.66255 3.48298V7.28084C7.66255 7.50922 7.53731 7.63447 7.3126 7.63447H6.13752V5.26219Z" fill="black"/>
</svg>
