<svg width="22" height="21" viewBox="0 0 22 21" fill="none" xmlns="http://www.w3.org/2000/svg">
<path fill-rule="evenodd" clip-rule="evenodd" d="M5.90423 0.156677C3.00255 0.156677 0.653564 2.53285 0.653564 5.46812V15.5319C0.653564 18.4672 3.00255 20.8433 5.90423 20.8433H15.8529C18.7546 20.8433 21.1035 18.4672 21.1035 15.5319V5.46812C21.1035 2.53285 18.7546 0.156677 15.8529 0.156677H5.90423ZM5.90436 1.83372H15.853C17.8704 1.83372 19.4456 3.42715 19.4456 5.46786V15.5316C19.4456 17.5724 17.8704 19.1658 15.853 19.1658H5.90436C3.887 19.1658 2.3118 17.5724 2.3118 15.5316V5.46786C2.3118 3.42715 3.887 1.83372 5.90436 1.83372ZM15.3002 4.62943C15.3002 4.01442 15.7976 3.51123 16.4056 3.51123C17.0135 3.51123 17.511 4.01442 17.511 4.62943C17.511 5.24444 17.0135 5.74763 16.4056 5.74763C15.7976 5.74763 15.3002 5.24444 15.3002 4.62943ZM10.8786 5.46788C8.14273 5.46788 5.90429 7.73223 5.90429 10.4998C5.90429 13.2673 8.14273 15.5317 10.8786 15.5317C13.6145 15.5317 15.8529 13.2673 15.8529 10.4998C15.8529 7.73223 13.6145 5.46788 10.8786 5.46788ZM14.1949 10.5C14.1949 8.627 12.7302 7.14539 10.8787 7.14539C9.02712 7.14539 7.56246 8.627 7.56246 10.5C7.56246 12.373 9.02712 13.8546 10.8787 13.8546C12.7302 13.8546 14.1949 12.373 14.1949 10.5Z" fill="black"/>
</svg>
