<svg width="524" height="345" viewBox="0 0 524 345" fill="none" xmlns="http://www.w3.org/2000/svg">
<rect width="524" height="345" fill="#EEF2F6"/>
<rect width="524" height="345" fill="white" fill-opacity="0.5"/>
<circle cx="262" cy="172" r="56" fill="white"/>
<path d="M229.348 186.819C230.243 191.884 233.393 194.231 238.458 193.273V193.644C238.458 198.832 241.206 201.581 246.364 201.581H291.545C296.733 201.581 299.481 198.74 299.481 193.644V162.576C299.481 157.481 296.733 154.64 291.545 154.64H285.677L284.071 145.653C283.175 140.619 279.995 138.303 274.899 139.198L230.398 147.043C225.302 147.969 223.048 151.15 223.943 156.246L229.348 186.819ZM230.83 186.479L225.456 156.06C224.715 151.86 226.537 149.266 230.737 148.525L275.084 140.712C279.13 140.001 281.848 141.762 282.62 145.993L284.102 154.64H246.364C241.206 154.64 238.458 157.419 238.458 162.576V191.729L238.365 191.76C234.165 192.532 231.571 190.679 230.83 186.479ZM239.971 162.669C239.971 158.376 242.164 156.153 246.456 156.153H291.483C295.59 156.153 297.968 158.376 297.968 162.669V190.093L284.565 177.894C283.145 176.597 281.662 175.856 279.809 175.856C277.987 175.856 276.628 176.566 275.146 177.863L262.052 189.073L257.142 184.565C255.875 183.36 254.764 182.743 253.158 182.743C251.675 182.743 250.656 183.36 249.39 184.503L239.971 193.212V162.669ZM257.636 178.419C261.373 178.419 264.43 175.3 264.43 171.471C264.43 167.734 261.373 164.584 257.636 164.584C253.806 164.584 250.718 167.734 250.718 171.471C250.718 175.3 253.806 178.419 257.636 178.419Z" fill="#00ff88"/>
</svg>
