<svg width="80" height="80" viewBox="0 0 80 80" fill="none" xmlns="http://www.w3.org/2000/svg">
<circle opacity="0.1" cx="40" cy="40" r="40" fill="#2266FF"/>
<path fill-rule="evenodd" clip-rule="evenodd" d="M48.9455 30L49.9394 47.8891C50.0006 48.9919 49.1563 49.9357 48.0534 49.9969C48.0257 49.9982 48.0118 49.9988 47.9979 49.9992C47.9841 49.9996 47.9702 49.9997 47.9424 50H32.0566C30.9521 50 30.0566 49.1046 30.0566 48C30.0572 47.9445 30.0572 47.9445 30.0597 47.8891L31.0536 30H48.9455ZM32.9455 32L32.0566 48H47.9424L47.0536 32H32.9455ZM37 34H35V36.5C35 38.9007 37.3232 41 40 41C42.6768 41 45 38.9007 45 36.5V34H43V36.5C43 37.7484 41.6149 39 40 39C38.3851 39 37 37.7484 37 36.5V34Z" fill="black"/>
</svg>
