<svg width="54" height="54" viewBox="0 0 54 54" fill="none" xmlns="http://www.w3.org/2000/svg">
<circle cx="27" cy="27" r="27" fill="white"/>
<path d="M27.9014 17.8001L30.3014 22.0001C30.6014 22.5001 31.1014 22.8001 31.6014 23.0001L36.3014 24.0001C37.1014 24.2001 37.4014 25.1001 36.8014 25.7001L33.6014 29.3001C33.2014 29.7001 33.0014 30.3001 33.1014 30.9001L33.6014 35.7001C33.7014 36.5001 32.9014 37.0001 32.2014 36.7001L27.8014 34.7001C27.3014 34.5001 26.7014 34.5001 26.2014 34.7001L21.8014 36.7001C21.1014 37.0001 20.3014 36.4001 20.4014 35.7001L20.9014 30.9001C21.0014 30.3001 20.8014 29.8001 20.4014 29.3001L17.2014 25.7001C16.7014 25.1001 17.0014 24.2001 17.7014 24.0001L22.4014 23.0001C23.0014 22.9001 23.4014 22.5001 23.7014 22.0001L26.1014 17.8001C26.5014 17.2001 27.5014 17.2001 27.9014 17.8001Z" stroke="#242424" stroke-width="2" stroke-miterlimit="10" stroke-linecap="round" stroke-linejoin="round"/>
</svg>
