<svg fill="none" height="20" viewBox="0 0 20 20" width="20" xmlns="http://www.w3.org/2000/svg"><path clip-rule="evenodd" d="m7.27124 0h5.45456c1.0041 0 1.8182.814027 1.8182 1.81818v.90899h2.7278c1.0042 0 1.8182.81402 1.8182 1.81818v1.81818c0 1.00415-.814 1.81818-1.8182 1.81818h-.0735l-.8363 10.00009c0 1.0042-.814 1.8182-1.8182 1.8182h-9.09087c-1.00416 0-1.81818-.814-1.81504-1.7427l-.83964-10.07559h-.07187c-1.00415 0-1.818177-.81403-1.818177-1.81818v-1.81818c0-1.00416.814027-1.81818 1.818177-1.81818h2.72668v-.90899c0-1.004153.81402-1.81818 1.81818-1.81818zm-1.81889 18.1819-.83047-10h10.75152l-.827 9.9245-.0031.0755zm-2.72612-11.81799v-1.81818h14.54547v1.81818zm10.00137-4.54571v.90909h-5.45456v-.90909z" fill="#8a8a8a" fill-rule="evenodd"/></svg>