<svg width="20" height="21" viewBox="0 0 20 21" fill="none" xmlns="http://www.w3.org/2000/svg">
<path fill-rule="evenodd" clip-rule="evenodd" d="M16.9585 3.45965C15.0958 1.59637 12.6123 0.572754 9.96752 0.572754C4.52164 0.572754 0.085314 4.988 0.0805743 10.408C0.0805743 12.1439 0.535582 13.8327 1.3982 15.328L0 20.4272L5.24207 19.0593C6.68767 19.8423 8.31338 20.2574 9.96752 20.2574H9.97226C15.4181 20.2574 19.8545 15.8422 19.8592 10.4174C19.8545 7.78999 18.826 5.3182 16.9585 3.45965ZM9.96752 18.5923C8.48874 18.5923 7.04314 18.196 5.78239 17.4507L5.48379 17.2715L2.37457 18.0828L3.20401 15.0638L3.00969 14.7525C2.18499 13.4506 1.75368 11.9458 1.75368 10.4033C1.75368 5.90313 5.44114 2.23319 9.97226 2.23319C12.1667 2.23319 14.2285 3.08699 15.7831 4.6295C17.333 6.17672 18.1861 8.22868 18.1861 10.4127C18.1814 14.927 14.4939 18.5923 9.96752 18.5923ZM14.4749 12.4694C14.2285 12.3468 13.0151 11.7524 12.7876 11.6675C12.5601 11.5873 12.3942 11.5448 12.2331 11.7901C12.0672 12.0354 11.5932 12.592 11.451 12.7524C11.3088 12.9175 11.1619 12.9364 10.9155 12.8138C10.669 12.6911 9.87273 12.4317 8.92953 11.592C8.19488 10.941 7.70196 10.1344 7.55503 9.88912C7.41284 9.64383 7.54081 9.51175 7.66404 9.3891C7.77305 9.28061 7.9105 9.10136 8.03374 8.95984C8.15697 8.81833 8.19962 8.71455 8.2802 8.54945C8.36077 8.38435 8.32285 8.24284 8.26124 8.12019C8.19962 7.99754 7.7067 6.78524 7.49815 6.29465C7.29909 5.8135 7.09528 5.87954 6.94361 5.87483C6.80142 5.86539 6.63553 5.86539 6.46965 5.86539C6.30376 5.86539 6.03834 5.92672 5.81083 6.17201C5.58333 6.4173 4.94821 7.01166 4.94821 8.22397C4.94821 9.43627 5.83453 10.6014 5.95776 10.7665C6.08099 10.9316 7.69722 13.4128 10.1761 14.4789C10.7638 14.7336 11.2235 14.8846 11.5837 14.9978C12.1762 15.1865 12.7118 15.1582 13.1384 15.0969C13.6123 15.0261 14.5982 14.5025 14.8067 13.927C15.0105 13.3515 15.0105 12.8609 14.9489 12.7571C14.8873 12.6534 14.7214 12.592 14.4749 12.4694Z" fill="black"/>
</svg>
