<svg width="24" height="24" viewBox="0 0 24 24" fill="none" xmlns="http://www.w3.org/2000/svg">
<path fill-rule="evenodd" clip-rule="evenodd" d="M6.8 2.25006H6.7679H6.76789C5.95505 2.25005 5.29944 2.25005 4.76853 2.29342C4.2219 2.33809 3.74175 2.43245 3.29754 2.65879C2.59193 3.01831 2.01825 3.59199 1.65873 4.2976C1.43239 4.74182 1.33803 5.22196 1.29336 5.76859C1.24999 6.2995 1.24999 6.9551 1.25 7.76793V7.76796V7.80006V8.00006C1.25 8.41428 1.58579 8.75006 2 8.75006C2.41421 8.75006 2.75 8.41428 2.75 8.00006V7.80006C2.75 6.94761 2.75058 6.35337 2.78838 5.89074C2.82547 5.43687 2.8946 5.1761 2.99524 4.97858C3.21095 4.55522 3.55516 4.21101 3.97852 3.9953C4.17604 3.89466 4.43681 3.82553 4.89068 3.78844C5.35331 3.75064 5.94755 3.75006 6.8 3.75006H7C7.41421 3.75006 7.75 3.41427 7.75 3.00006C7.75 2.58585 7.41421 2.25006 7 2.25006H6.8ZM17.2 3.75006C18.0525 3.75006 18.6467 3.75064 19.1093 3.78844C19.5632 3.82553 19.824 3.89466 20.0215 3.9953C20.4448 4.21101 20.789 4.55522 21.0048 4.97858C21.1054 5.1761 21.1745 5.43687 21.2116 5.89074C21.2494 6.35337 21.25 6.94761 21.25 7.80006V8.00006C21.25 8.41428 21.5858 8.75006 22 8.75006C22.4142 8.75006 22.75 8.41428 22.75 8.00006V7.80006V7.76794C22.75 6.95511 22.75 6.2995 22.7066 5.76859C22.662 5.22196 22.5676 4.74182 22.3413 4.2976C21.9817 3.59199 21.4081 3.01831 20.7025 2.65879C20.2582 2.43245 19.7781 2.33809 19.2315 2.29342C18.7006 2.25005 18.0449 2.25005 17.2321 2.25006H17.2321H17.2H17C16.5858 2.25006 16.25 2.58585 16.25 3.00006C16.25 3.41427 16.5858 3.75006 17 3.75006H17.2ZM2.75 16.0001C2.75 15.5858 2.41421 15.2501 2 15.2501C1.58579 15.2501 1.25 15.5858 1.25 16.0001V16.2001V16.2322V16.2322C1.24999 17.045 1.24999 17.7006 1.29336 18.2315C1.33803 18.7782 1.43239 19.2583 1.65873 19.7025C2.01825 20.4081 2.59193 20.9818 3.29754 21.3413C3.74175 21.5677 4.2219 21.662 4.76853 21.7067C5.29944 21.7501 5.95505 21.7501 6.76788 21.7501H6.8H7C7.41421 21.7501 7.75 21.4143 7.75 21.0001C7.75 20.5858 7.41421 20.2501 7 20.2501H6.8C5.94755 20.2501 5.35331 20.2495 4.89068 20.2117C4.43681 20.1746 4.17604 20.1055 3.97852 20.0048C3.55516 19.7891 3.21095 19.4449 2.99524 19.0215C2.8946 18.824 2.82547 18.5633 2.78838 18.1094C2.75058 17.6468 2.75 17.0525 2.75 16.2001V16.0001ZM22.75 16.0001C22.75 15.5858 22.4142 15.2501 22 15.2501C21.5858 15.2501 21.25 15.5858 21.25 16.0001V16.2001C21.25 17.0525 21.2494 17.6468 21.2116 18.1094C21.1745 18.5633 21.1054 18.824 21.0048 19.0215C20.789 19.4449 20.4448 19.7891 20.0215 20.0048C19.824 20.1055 19.5632 20.1746 19.1093 20.2117C18.6467 20.2495 18.0525 20.2501 17.2 20.2501H17C16.5858 20.2501 16.25 20.5858 16.25 21.0001C16.25 21.4143 16.5858 21.7501 17 21.7501H17.2H17.2321C18.045 21.7501 18.7006 21.7501 19.2315 21.7067C19.7781 21.662 20.2582 21.5677 20.7025 21.3413C21.4081 20.9818 21.9817 20.4081 22.3413 19.7025C22.5676 19.2583 22.662 18.7782 22.7066 18.2315C22.75 17.7006 22.75 17.045 22.75 16.2322V16.2001V16.0001ZM9.16957 6.25006L9.2 6.25006L14.8 6.25006L14.8304 6.25006C15.3646 6.25005 15.8104 6.25004 16.1747 6.2798C16.5546 6.31084 16.9112 6.37795 17.2485 6.54979C17.7659 6.81345 18.1866 7.23414 18.4503 7.75159C18.6221 8.08885 18.6892 8.44551 18.7203 8.82539C18.75 9.18962 18.75 9.63546 18.75 10.1696V10.2001V11.0001V13.8001V13.8305C18.75 14.3647 18.75 14.8105 18.7203 15.1747C18.6892 15.5546 18.6221 15.9113 18.4503 16.2485C18.1866 16.766 17.7659 17.1867 17.2485 17.4503C16.9112 17.6222 16.5546 17.6893 16.1747 17.7203C15.8104 17.7501 15.3646 17.7501 14.8304 17.7501H14.8304H14.8H9.2H9.16959H9.16955C8.6354 17.7501 8.18956 17.7501 7.82533 17.7203C7.44545 17.6893 7.08879 17.6222 6.75153 17.4503C6.23408 17.1867 5.81338 16.766 5.54973 16.2485C5.37789 15.9113 5.31078 15.5546 5.27974 15.1747C5.24998 14.8105 5.24999 14.3646 5.25 13.8305L5.25 13.8001L5.25 11.0001V10.2001L5.25 10.1696C5.24999 9.63547 5.24998 9.18962 5.27974 8.82539C5.31078 8.44551 5.37789 8.08885 5.54973 7.75159C5.81338 7.23414 6.23408 6.81345 6.75153 6.54979C7.08879 6.37795 7.44545 6.31084 7.82533 6.2798C8.18956 6.25004 8.63541 6.25005 9.16957 6.25006ZM17.25 10.2001V10.2501L6.75 10.2501V10.2001C6.75 9.62763 6.75058 9.24342 6.77476 8.94754C6.79822 8.66042 6.8401 8.52313 6.88624 8.43257C7.00608 8.19737 7.19731 8.00614 7.43251 7.8863C7.52307 7.84016 7.66035 7.79828 7.94748 7.77482C8.24336 7.75064 8.62757 7.75006 9.2 7.75006L14.8 7.75006C15.3724 7.75006 15.7566 7.75064 16.0525 7.77482C16.3396 7.79828 16.4769 7.84016 16.5675 7.8863C16.8027 8.00614 16.9939 8.19737 17.1138 8.43257C17.1599 8.52313 17.2018 8.66042 17.2252 8.94754C17.2494 9.24342 17.25 9.62763 17.25 10.2001ZM17.25 11.7501L6.75 11.7501V13.8001C6.75 14.3725 6.75058 14.7567 6.77476 15.0526C6.79822 15.3397 6.8401 15.477 6.88624 15.5675C7.00608 15.8028 7.19731 15.994 7.43251 16.1138C7.52307 16.16 7.66035 16.2018 7.94748 16.2253C8.24336 16.2495 8.62757 16.2501 9.2 16.2501H14.8C15.3724 16.2501 15.7566 16.2495 16.0525 16.2253C16.3396 16.2018 16.4769 16.16 16.5675 16.1138C16.8027 15.994 16.9939 15.8028 17.1138 15.5675C17.1599 15.477 17.2018 15.3397 17.2252 15.0526C17.2494 14.7567 17.25 14.3725 17.25 13.8001V11.7501Z" fill="#242424"/>
</svg>
