<svg width="24" height="24" viewBox="0 0 24 24" fill="none" xmlns="http://www.w3.org/2000/svg">
<path fill-rule="evenodd" clip-rule="evenodd" d="M15.5 2.75C16.4665 2.75 17.25 3.5335 17.25 4.5C17.25 5.4665 16.4665 6.25 15.5 6.25L13.008 6.25L13.6667 4.05432C13.899 3.28016 14.6115 2.75 15.4198 2.75H15.5ZM18.75 4.5C18.75 5.14432 18.5625 5.74485 18.2391 6.25H20C20.9665 6.25 21.75 7.0335 21.75 8V10C21.75 10.9665 20.9665 11.75 20 11.75H19.75L19.75 19C19.75 20.5188 18.5188 21.75 17 21.75H12H7C5.48122 21.75 4.25 20.5188 4.25 19L4.25 11.75H4C3.0335 11.75 2.25 10.9665 2.25 10V8C2.25 7.0335 3.0335 6.25 4 6.25H5.76091C5.4375 5.74485 5.25 5.14432 5.25 4.5C5.25 2.70507 6.70507 1.25 8.5 1.25H8.58023C10.0509 1.25 11.3474 2.21466 11.77 3.6233L12 4.38992L12.23 3.6233C12.6526 2.21466 13.9491 1.25 15.4198 1.25H15.5C17.2949 1.25 18.75 2.70507 18.75 4.5ZM5 10.25L11.25 10.25L11.25 7.75H8.5L4 7.75C3.86193 7.75 3.75 7.86193 3.75 8V10C3.75 10.1381 3.86193 10.25 4 10.25H5ZM12.75 10.25H19H20C20.1381 10.25 20.25 10.1381 20.25 10V8C20.25 7.86193 20.1381 7.75 20 7.75H15.5L12.75 7.75L12.75 10.25ZM5.75 11.75V19C5.75 19.6904 6.30964 20.25 7 20.25H11.25V11.75L5.75 11.75ZM12.75 11.75V20.25H17C17.6904 20.25 18.25 19.6904 18.25 19V11.75H12.75ZM10.992 6.25L10.3333 4.05432C10.101 3.28016 9.38847 2.75 8.58023 2.75H8.5C7.5335 2.75 6.75 3.5335 6.75 4.5C6.75 5.4665 7.5335 6.25 8.5 6.25H10.992Z" fill="#242424"/>
</svg>
