<svg width="24" height="24" viewBox="0 0 24 24" fill="none" xmlns="http://www.w3.org/2000/svg">
<path fill-rule="evenodd" clip-rule="evenodd" d="M10.4398 6.97513C8.88285 5.38284 6.32087 5.38284 4.76396 6.97513C3.25576 8.51761 3.25576 10.9823 4.76396 12.5248L11.8631 19.7853C11.9392 19.8631 12.0645 19.8631 12.1406 19.7853L19.2398 12.5248C20.748 10.9823 20.748 8.51761 19.2398 6.97513C17.6828 5.38284 15.1209 5.38284 13.564 6.97513L12.5381 8.0243C12.397 8.16861 12.2037 8.24996 12.0019 8.24996C11.8 8.24996 11.6067 8.16861 11.4656 8.0243L10.4398 6.97513ZM3.69145 5.92645C5.83675 3.7324 9.36697 3.7324 11.5123 5.92645L12.0019 6.42718L12.4915 5.92645C14.6367 3.7324 18.167 3.7324 20.3123 5.92645C22.3904 8.05187 22.3904 11.448 20.3123 13.5735L13.2131 20.834C12.5486 21.5136 11.4551 21.5136 10.7906 20.834L3.69145 13.5735C1.61326 11.448 1.61327 8.05187 3.69145 5.92645Z" fill="#242424"/>
</svg>
